<svg width="151" height="151" viewBox="0 0 151 151" fill="none" xmlns="http://www.w3.org/2000/svg">
<g filter="url(#filter0_d_101_1853)">
<circle cx="71.5" cy="71.5" r="45.5" fill="#EC1F27"/>
</g>
<path d="M53.7906 57.0049C57.1967 57.0016 60.6179 57 64.0541 57C64.0769 57 64.0991 57.0063 64.1184 57.0182C64.1377 57.0301 64.1532 57.0471 64.1633 57.0673L66.7397 62.2151C66.7453 62.2265 66.754 62.236 66.7647 62.2427C66.7755 62.2494 66.7878 62.2529 66.8004 62.2528C72.88 62.2528 78.9602 62.255 85.0409 62.2594C85.7719 62.26 86.3889 62.4862 86.8917 62.9382C87.1648 63.1833 87.3724 63.4654 87.5147 63.7844C87.6569 64.1023 87.7379 64.4517 87.7576 64.8325C87.758 64.8385 87.7571 64.8445 87.755 64.8502C87.7529 64.8559 87.7497 64.8611 87.7455 64.8654C87.7414 64.8698 87.7364 64.8733 87.7309 64.8757C87.7253 64.8781 87.7193 64.8793 87.7133 64.8793C80.1798 64.8793 72.6409 64.8793 65.0965 64.8793C64.8207 64.8793 64.5231 64.899 64.2035 64.9384C63.8987 64.9756 63.6079 65.0341 63.3311 65.114C61.6633 65.5939 60.3451 66.5706 59.3766 68.0441C59.1047 68.4583 58.8363 69.0654 58.5715 69.8654C58.5655 69.884 56.8963 74.3254 53.564 83.1895C53.5598 83.201 53.5522 83.2107 53.5423 83.2174C53.5324 83.2241 53.5207 83.2272 53.5091 83.2265C52.6653 83.1827 51.9983 82.8276 51.508 82.1611C51.2016 81.7447 51.0323 81.2627 51 80.715C51 73.663 51 66.6113 51 59.5599C51.035 59.1419 51.1051 58.8237 51.2101 58.6054C51.7239 57.5395 52.5841 57.006 53.7906 57.0049Z" fill="white"/>
<path d="M65.9999 67.5059C74.3366 67.5059 82.6687 67.5059 90.9961 67.5059C91.1176 67.5059 91.2385 67.5127 91.3589 67.5264C92.3733 67.6402 92.9189 68.1611 92.9955 69.0891C93.0124 69.2987 92.9815 69.5383 92.9027 69.8081C92.744 70.3503 92.5599 70.8841 92.3504 71.4094C90.6076 76.2245 88.858 81.0369 87.1016 85.8465C87.0975 85.858 87.0901 85.868 87.0804 85.8751C87.0707 85.8822 87.0592 85.8859 87.0474 85.8859L55.4269 85.8908C55.4192 85.8908 55.4116 85.8889 55.4048 85.8853C55.3979 85.8817 55.3921 85.8765 55.3877 85.8702C55.3833 85.8639 55.3806 85.8566 55.3797 85.8491C55.3788 85.8415 55.3798 85.8339 55.3826 85.8268C57.2173 80.9345 59.0457 76.062 60.8677 71.2091C61.2053 70.3096 61.4056 69.8007 61.4685 69.6825C61.7832 69.0877 62.2316 68.5934 62.8138 68.1994C63.2942 67.8744 63.8099 67.6634 64.3609 67.5666C64.5912 67.5261 65.1376 67.5059 65.9999 67.5059Z" fill="white"/>
<defs>
<filter id="filter0_d_101_1853" x="0" y="0" width="151" height="151" filterUnits="userSpaceOnUse" color-interpolation-filters="sRGB">
<feFlood flood-opacity="0" result="BackgroundImageFix"/>
<feColorMatrix in="SourceAlpha" type="matrix" values="0 0 0 0 0 0 0 0 0 0 0 0 0 0 0 0 0 0 127 0" result="hardAlpha"/>
<feOffset dx="4" dy="4"/>
<feGaussianBlur stdDeviation="15"/>
<feComposite in2="hardAlpha" operator="out"/>
<feColorMatrix type="matrix" values="0 0 0 0 0.92549 0 0 0 0 0.121569 0 0 0 0 0.152941 0 0 0 1 0"/>
<feBlend mode="normal" in2="BackgroundImageFix" result="effect1_dropShadow_101_1853"/>
<feBlend mode="normal" in="SourceGraphic" in2="effect1_dropShadow_101_1853" result="shape"/>
</filter>
</defs>
</svg>
