<svg width="68" height="68" viewBox="0 0 68 68" fill="none" xmlns="http://www.w3.org/2000/svg">
<circle cx="34" cy="34" r="34" transform="rotate(-180 34 34)" fill="black" fill-opacity="0.6"/>
<g clip-path="url(#clip0_174_3082)">
<path fill-rule="evenodd" clip-rule="evenodd" d="M28.423 45.7728C28.891 46.2234 29.6478 46.2234 30.1146 45.7728L40.009 36.2239C40.2305 36.0134 40.4069 35.7601 40.5274 35.4793C40.6479 35.1985 40.71 34.8962 40.71 34.5906C40.71 34.2851 40.6479 33.9827 40.5274 33.702C40.4069 33.4212 40.2305 33.1678 40.009 32.9574L30.043 23.338C29.8168 23.123 29.5173 23.0022 29.2053 23C28.8932 22.9979 28.592 23.1146 28.3629 23.3264C28.2494 23.4311 28.1586 23.5579 28.0961 23.699C28.0336 23.8401 28.0007 23.9926 27.9995 24.147C27.9984 24.3013 28.0289 24.4543 28.0892 24.5964C28.1495 24.7384 28.2384 24.8666 28.3502 24.973L37.4716 33.7743C37.5824 33.8795 37.6707 34.0062 37.731 34.1467C37.7913 34.2871 37.8224 34.4384 37.8224 34.5912C37.8224 34.7441 37.7913 34.8953 37.731 35.0357C37.6707 35.1762 37.5824 35.3029 37.4716 35.4081L28.423 44.1401C28.3122 44.2452 28.224 44.3718 28.1637 44.5122C28.1034 44.6525 28.0723 44.8037 28.0723 44.9564C28.0723 45.1092 28.1034 45.2603 28.1637 45.4007C28.224 45.541 28.3122 45.6676 28.423 45.7728Z" fill="white"/>
</g>
<defs>
<clipPath id="clip0_174_3082">
<rect width="12.7103" height="23.1096" fill="white" transform="translate(28 23)"/>
</clipPath>
</defs>
</svg>
