<svg width="246" height="247" viewBox="0 0 246 247" fill="none" xmlns="http://www.w3.org/2000/svg">
<path d="M212.862 125.012H224.379V135.48H212.862V133.732H223.287L222.828 134.169V126.323L223.287 126.782H212.862V125.012Z" fill="white"/>
<path d="M209.853 146.683C210.065 145.566 210.498 144.618 211.151 143.838C211.819 143.06 212.637 142.504 213.605 142.17C214.574 141.836 215.616 141.775 216.733 141.988C217.863 142.204 218.81 142.644 219.573 143.309C220.334 143.988 220.876 144.803 221.198 145.755C221.533 146.724 221.594 147.766 221.381 148.882C221.168 149.999 220.728 150.946 220.061 151.723C219.405 152.518 218.601 153.076 217.65 153.399C216.695 153.736 215.653 153.797 214.522 153.581C213.406 153.368 212.459 152.928 211.682 152.26C210.901 151.607 210.345 150.789 210.014 149.806C209.693 148.84 209.64 147.799 209.853 146.683ZM211.377 146.974C211.227 147.761 211.266 148.488 211.495 149.154C211.736 149.838 212.144 150.42 212.719 150.901C213.295 151.382 214.005 151.702 214.85 151.864C215.708 152.027 216.487 151.991 217.185 151.753C217.897 151.518 218.484 151.126 218.944 150.576C219.417 150.043 219.728 149.383 219.878 148.596C220.025 147.823 219.979 147.095 219.738 146.411C219.51 145.744 219.107 145.171 218.531 144.69C217.97 144.212 217.26 143.891 216.401 143.727C215.557 143.566 214.778 143.603 214.066 143.838C213.354 144.073 212.762 144.457 212.289 144.989C211.828 145.539 211.524 146.201 211.377 146.974Z" fill="white"/>
<path d="M204.269 161.699C204.682 160.625 205.283 159.748 206.075 159.068C206.874 158.408 207.774 157.996 208.772 157.833C209.785 157.676 210.828 157.803 211.903 158.216C212.977 158.628 213.831 159.229 214.465 160.019C215.098 160.808 215.484 161.714 215.623 162.735C215.77 163.774 215.638 164.832 215.226 165.906C214.871 166.831 214.366 167.597 213.712 168.205C213.058 168.812 212.286 169.195 211.399 169.353L211.06 167.795C211.731 167.631 212.298 167.334 212.76 166.903C213.222 166.471 213.57 165.95 213.805 165.338C214.092 164.589 214.181 163.851 214.07 163.122C213.968 162.411 213.676 161.769 213.195 161.194C212.727 160.624 212.085 160.182 211.269 159.869C210.452 159.555 209.673 159.451 208.931 159.556C208.202 159.667 207.555 159.949 206.99 160.403C206.434 160.876 206.013 161.487 205.726 162.235C205.491 162.847 205.394 163.466 205.435 164.09C205.49 164.72 205.713 165.32 206.102 165.891L204.808 166.823C204.268 166.116 203.951 165.315 203.857 164.421C203.777 163.532 203.914 162.625 204.269 161.699Z" fill="white"/>
<path d="M199.333 170.361L209.249 176.221L208.338 177.764L198.23 177.731L198.597 177.11L203.448 186.045L202.626 187.437L192.699 181.596L193.51 180.222L201.714 185.07L201.408 185.245L197.007 177.009L197.407 176.331L206.866 176.26L206.733 176.613L198.511 171.754L199.333 170.361Z" fill="white"/>
<path d="M184.683 188.426C185.448 187.585 186.312 187.003 187.277 186.679C188.252 186.364 189.239 186.318 190.24 186.539C191.24 186.76 192.161 187.252 193.001 188.017C193.852 188.792 194.43 189.662 194.733 190.628C195.027 191.604 195.063 192.583 194.841 193.563C194.62 194.564 194.128 195.485 193.363 196.325C192.598 197.166 191.729 197.744 190.754 198.058C189.779 198.393 188.802 198.45 187.823 198.228C186.833 198.017 185.913 197.524 185.061 196.749C184.221 195.984 183.643 195.114 183.329 194.138C183.005 193.173 182.958 192.185 183.189 191.174C183.421 190.183 183.919 189.267 184.683 188.426ZM185.831 189.471C185.292 190.063 184.946 190.704 184.793 191.392C184.64 192.101 184.684 192.81 184.924 193.521C185.164 194.232 185.602 194.877 186.238 195.455C186.884 196.044 187.567 196.419 188.286 196.581C189.016 196.753 189.721 196.725 190.401 196.496C191.082 196.289 191.692 195.889 192.232 195.296C192.761 194.714 193.102 194.068 193.254 193.36C193.407 192.671 193.363 191.972 193.124 191.261C192.895 190.56 192.457 189.916 191.81 189.327C191.174 188.749 190.492 188.373 189.762 188.201C189.032 188.03 188.326 188.048 187.645 188.255C186.965 188.483 186.36 188.888 185.831 189.471Z" fill="white"/>
<path d="M174.18 196.85L180.537 205.139L179.898 205.024L183.66 202.136L184.604 203.367L176.369 209.688L175.425 208.457L179.204 205.556L179.15 206.204L172.793 197.914L174.18 196.85Z" fill="white"/>
<path d="M159.134 205.431C159.988 204.96 160.876 204.728 161.795 204.736C162.715 204.745 163.596 205.016 164.44 205.549C165.27 206.089 165.988 206.908 166.593 208.005C167.212 209.128 167.531 210.175 167.551 211.146C167.565 212.137 167.33 213.023 166.846 213.806C166.363 214.589 165.681 215.223 164.801 215.709C163.831 216.244 162.851 216.502 161.859 216.484C160.854 216.472 159.924 216.203 159.068 215.677C158.2 215.158 157.48 214.382 156.91 213.348C156.348 212.328 156.078 211.311 156.103 210.299C156.114 209.294 156.383 208.364 156.909 207.508C157.423 206.659 158.164 205.966 159.134 205.431ZM162.401 198.91L170.01 212.709L168.537 213.522L166.933 210.613L165.855 208.387L164.482 206.349L160.851 199.766L162.401 198.91ZM159.998 206.727C159.309 207.107 158.781 207.598 158.414 208.2C158.035 208.809 157.844 209.488 157.841 210.239C157.839 210.989 158.045 211.74 158.46 212.493C158.882 213.258 159.408 213.834 160.036 214.219C160.672 214.617 161.352 214.825 162.076 214.841C162.788 214.864 163.488 214.686 164.177 214.306C164.866 213.926 165.396 213.425 165.769 212.803C166.142 212.181 166.329 211.495 166.332 210.745C166.341 210.008 166.135 209.256 165.712 208.491C165.297 207.738 164.772 207.163 164.137 206.764C163.501 206.366 162.825 206.165 162.107 206.162C161.39 206.158 160.687 206.347 159.998 206.727Z" fill="white"/>
<path d="M143.654 210.512C144.804 210.139 145.892 210.046 146.918 210.234C147.948 210.435 148.843 210.88 149.602 211.568C150.362 212.256 150.917 213.14 151.267 214.221C151.618 215.302 151.7 216.333 151.512 217.313C151.315 218.311 150.884 219.179 150.219 219.915C149.559 220.666 148.709 221.21 147.67 221.547C146.631 221.885 145.633 221.948 144.676 221.738C143.72 221.528 142.875 221.074 142.144 220.377C141.417 219.694 140.873 218.798 140.514 217.69C140.491 217.62 140.464 217.537 140.433 217.44C140.401 217.343 140.379 217.251 140.366 217.163L149.803 214.099L150.201 215.326L141.637 218.106L142.154 217.433C142.401 218.195 142.785 218.813 143.307 219.287C143.819 219.78 144.413 220.1 145.089 220.248C145.77 220.41 146.477 220.372 147.211 220.134C147.946 219.895 148.548 219.508 149.018 218.973C149.478 218.456 149.771 217.847 149.896 217.148C150.022 216.449 149.958 215.711 149.707 214.935L149.619 214.665C149.363 213.875 148.962 213.231 148.418 212.734C147.86 212.241 147.206 211.925 146.456 211.785C145.711 211.659 144.922 211.732 144.091 212.002C143.426 212.218 142.852 212.526 142.37 212.928C141.878 213.348 141.507 213.859 141.258 214.461L139.972 213.683C140.282 212.939 140.755 212.296 141.391 211.752C142.012 211.213 142.767 210.8 143.654 210.512Z" fill="white"/>
<path d="M130.612 212.467L132.016 222.819L131.518 222.402L136.218 221.764L136.426 223.301L126.139 224.697L125.931 223.16L130.652 222.519L130.283 223.054L128.88 212.702L130.612 212.467Z" fill="white"/>
<path d="M113.702 219.998C112.246 219.956 111.145 219.607 110.4 218.951C109.655 218.295 109.294 217.378 109.316 216.198C109.34 214.959 109.774 214.013 110.617 213.359C111.445 212.72 112.624 212.422 114.154 212.466L118.939 212.58L118.716 224.095L116.946 224.061L117.023 220.084L113.702 219.998ZM114.259 213.801C113.24 213.767 112.464 213.956 111.931 214.368C111.384 214.795 111.102 215.416 111.086 216.232C111.07 217.062 111.321 217.672 111.838 218.061C112.355 218.45 113.131 218.661 114.165 218.696L117.048 218.795L117.142 213.901L114.259 213.801Z" fill="white"/>
<path d="M94.8852 208.142L91.5385 219.162L86.5827 217.656C85.3141 217.271 84.3915 216.724 83.8148 216.016C83.2338 215.321 83.083 214.514 83.3624 213.594C83.6376 212.688 84.1978 212.097 85.043 211.82C85.87 211.554 86.8481 211.592 87.9773 211.936L87.5385 212.328C86.2142 211.925 85.3194 211.387 84.8542 210.712C84.375 210.034 84.2773 209.227 84.5609 208.293C84.8531 207.331 85.435 206.694 86.3069 206.38C87.1605 206.076 88.3123 206.144 89.7621 206.585L94.8852 208.142ZM92.8541 208.964L89.4666 207.934C88.5604 207.659 87.835 207.59 87.2903 207.729C86.7414 207.882 86.3716 208.273 86.1811 208.9C85.9906 209.527 86.06 210.051 86.3893 210.471C86.7144 210.905 87.323 211.257 88.2152 211.528L91.7491 212.602L92.8541 208.964ZM91.3744 213.836L88.1751 212.864C87.3526 212.614 86.6787 212.577 86.1534 212.752C85.6282 212.927 85.2787 213.301 85.1051 213.872C84.9273 214.458 85.0101 214.963 85.3533 215.387C85.6965 215.811 86.2794 216.148 87.1019 216.398L90.3012 217.37L91.3744 213.836Z" fill="white"/>
<path d="M80.2868 201.801L75.026 212.047L73.4514 211.238L77.5043 203.345L66.8228 207.832L65.4232 207.113L70.684 196.867L72.2391 197.666L68.1862 205.559L78.8677 201.072L80.2868 201.801Z" fill="white"/>
<path d="M59.3269 187.946L53.6885 195.134L57.9002 198.441L59.4834 196.599C59.9739 196.021 60.4727 195.468 60.9796 194.94C61.4661 194.414 61.9567 193.966 62.4515 193.595C62.9348 193.215 63.4022 192.961 63.8537 192.834C64.2938 192.698 64.7038 192.742 65.0835 192.966L66.2699 194.286C65.9236 193.996 65.5325 193.893 65.0965 193.976C64.6604 194.06 64.2098 194.28 63.7444 194.638C63.2587 194.997 62.7578 195.447 62.2419 195.986C61.726 196.526 61.208 197.092 60.688 197.684L58.163 200.62L51.3556 195.275L57.9517 186.867L59.3269 187.946ZM69.2613 191.217L66.6309 194.57L56.1104 186.31L58.7408 182.957L60.0472 183.983L58.3611 186.132L66.2687 192.34L67.9548 190.191L69.2613 191.217Z" fill="white"/>
<path d="M51.4016 177.135C52.2087 178.036 52.7341 178.993 52.9779 180.008C53.2109 181.032 53.1667 182.03 52.8454 183.003C52.5241 183.977 51.9404 184.843 51.0944 185.601C50.2483 186.36 49.3395 186.852 48.3678 187.078C47.3755 187.303 46.4082 187.26 45.4657 186.951C44.5124 186.651 43.6711 186.094 42.9418 185.28C42.2125 184.467 41.7503 183.58 41.5551 182.62C41.3599 181.659 41.4326 180.704 41.7734 179.752C42.1033 178.81 42.7021 177.95 43.5699 177.172C43.6241 177.124 43.6892 177.065 43.7651 176.997C43.841 176.929 43.9164 176.871 43.9912 176.824L50.6131 184.213L49.6532 185.074L43.6439 178.368L44.4686 178.568C43.872 179.103 43.4626 179.705 43.2404 180.374C42.9977 181.042 42.9455 181.715 43.0838 182.393C43.2113 183.081 43.5328 183.713 44.0481 184.288C44.5635 184.863 45.1609 185.257 45.8405 185.47C46.4995 185.681 47.174 185.702 47.8641 185.533C48.5541 185.365 49.2028 185.008 49.8103 184.463L50.0218 184.274C50.64 183.719 51.0662 183.092 51.3004 182.393C51.5248 181.683 51.549 180.956 51.3728 180.214C51.1859 179.481 50.8007 178.79 50.2173 178.139C49.7505 177.618 49.2359 177.218 48.6734 176.94C48.0903 176.66 47.4734 176.529 46.8226 176.545L47.0123 175.053C47.8179 175.036 48.5977 175.207 49.3517 175.568C50.096 175.918 50.7793 176.441 51.4016 177.135Z" fill="white"/>
<path d="M43.041 163.761C43.6367 164.729 43.9567 165.721 44.0008 166.738C44.0326 167.762 43.8037 168.724 43.3144 169.625C42.825 170.525 42.0965 171.274 41.1289 171.87C40.149 172.473 39.1532 172.787 38.1415 172.812C37.1223 172.824 36.1726 172.587 35.2926 172.103C34.3925 171.613 33.6446 170.885 33.0489 169.917C32.4531 168.949 32.1394 167.953 32.1076 166.929C32.0559 165.899 32.2723 164.945 32.7569 164.064C33.2339 163.171 33.9623 162.423 34.9423 161.819C35.9099 161.223 36.9057 160.909 37.9297 160.877C38.9461 160.833 39.9082 161.062 40.8159 161.564C41.7035 162.061 42.4452 162.793 43.041 163.761ZM41.7199 164.575C41.2998 163.892 40.7805 163.382 40.162 163.045C39.5235 162.702 38.8296 162.548 38.0804 162.581C37.3313 162.615 36.5907 162.857 35.8589 163.308C35.1146 163.767 34.565 164.319 34.2101 164.966C33.8428 165.62 33.6746 166.305 33.7053 167.022C33.7159 167.735 33.9313 168.432 34.3514 169.114C34.7638 169.784 35.2893 170.291 35.9279 170.633C36.5464 170.971 37.2302 171.123 37.9794 171.089C38.7161 171.063 39.4567 170.821 40.2009 170.362C40.9328 169.911 41.4824 169.359 41.8497 168.705C42.217 168.051 42.3953 167.367 42.3846 166.655C42.3539 165.938 42.1323 165.245 41.7199 164.575Z" fill="white"/>
<path d="M31.5331 143.993C31.612 144.288 31.6097 144.59 31.5262 144.899C31.4428 145.208 31.295 145.474 31.0829 145.696C30.8709 145.919 30.5959 146.075 30.2581 146.165C29.9202 146.256 29.6039 146.257 29.3092 146.17C29.0145 146.083 28.7541 145.926 28.5279 145.7C28.3017 145.474 28.1491 145.213 28.0702 144.917C27.9876 144.608 27.9899 144.305 28.0771 144.011C28.1606 143.702 28.3084 143.436 28.5205 143.214C28.7325 142.991 29.0075 142.835 29.3453 142.744C29.6832 142.654 29.9994 142.653 30.2941 142.74C30.5888 142.827 30.8493 142.984 31.0755 143.21C31.298 143.422 31.4505 143.683 31.5331 143.993Z" fill="white"/>
<path d="M33.3898 123.559L21.8777 123.915L21.5547 113.451L33.0668 113.095L33.1207 114.843L22.7009 115.165L23.1461 114.714L23.3882 122.556L22.9153 122.111L33.3352 121.789L33.3898 123.559Z" fill="white"/>
<path d="M35.8958 101.105C35.7086 102.226 35.2975 103.184 34.6625 103.979C34.0132 104.772 33.2082 105.346 32.2476 105.703C31.287 106.059 30.2462 106.144 29.1253 105.956C27.99 105.767 27.0333 105.348 26.255 104.701C25.4791 104.04 24.9189 103.237 24.5743 102.293C24.2177 101.333 24.133 100.292 24.3201 99.1708C24.5073 98.0498 24.9256 97.0931 25.5749 96.3005C26.2123 95.4911 27.0029 94.9142 27.9467 94.5697C28.893 94.2108 29.9337 94.1262 31.069 94.3159C32.1899 94.5032 33.1467 94.9216 33.9393 95.5711C34.7344 96.2062 35.309 97.0113 35.6632 97.9864C36.0054 98.9447 36.0829 99.9843 35.8958 101.105ZM34.3653 100.849C34.4973 100.059 34.4412 99.3332 34.1971 98.672C33.941 97.994 33.5196 97.4213 32.9329 96.954C32.3462 96.4866 31.6289 96.1821 30.7811 96.0404C29.9188 95.8963 29.1415 95.9511 28.4492 96.2047C27.7426 96.4559 27.1652 96.8617 26.7171 97.422C26.257 97.9656 25.961 98.6325 25.8291 99.4229C25.6995 100.199 25.7627 100.926 26.0188 101.604C26.2629 102.265 26.6783 102.829 27.265 103.297C27.8373 103.762 28.5546 104.066 29.4169 104.21C30.2648 104.352 31.042 104.297 31.7487 104.046C32.4554 103.795 33.0387 103.398 33.4988 102.854C33.9469 102.294 34.2357 101.625 34.3653 100.849Z" fill="white"/>
<path d="M41.0941 86.0587C40.7061 87.1424 40.1242 88.0327 39.3484 88.7298C38.5639 89.4083 37.6742 89.8401 36.6793 90.0253C35.6707 90.2057 34.6247 90.1017 33.5411 89.7134C32.4575 89.3251 31.5902 88.7435 30.9391 87.9685C30.2881 87.1935 29.8816 86.2972 29.7198 85.2796C29.5491 84.2434 29.6578 83.1835 30.0458 82.0998C30.3797 81.167 30.8669 80.3898 31.5074 79.768C32.1478 79.1463 32.9101 78.7461 33.7942 78.5677L34.1678 80.1177C33.5003 80.2964 32.9405 80.6065 32.4883 81.0481C32.0362 81.4897 31.6996 82.0192 31.4786 82.6364C31.2085 83.3909 31.1368 84.1313 31.2636 84.8578C31.3816 85.5656 31.6878 86.2015 32.1823 86.7656C32.663 87.3248 33.3149 87.7518 34.1378 88.0467C34.9608 88.3416 35.7423 88.4282 36.4823 88.3064C37.2086 88.1797 37.8487 87.8829 38.4028 87.4159C38.9481 86.9303 39.3558 86.3103 39.6259 85.5558C39.8469 84.9386 39.9298 84.3182 39.8744 83.6948C39.8053 83.0664 39.5697 82.4712 39.1673 81.9092L40.4397 80.9489C40.9957 81.6434 41.3308 82.4367 41.4447 83.3288C41.5449 84.216 41.428 85.1259 41.0941 86.0587Z" fill="white"/>
<path d="M45.622 77.5797L35.5587 71.9776L36.4298 70.4115L46.5349 70.1837L46.1843 70.814L41.1042 62.0078L41.8903 60.5944L51.9643 66.1774L51.1888 67.5717L42.8631 62.9369L43.1646 62.7546L47.7761 70.8746L47.3936 71.5622L37.9401 71.8775L38.0634 71.521L46.4082 76.1664L45.622 77.5797Z" fill="white"/>
<path d="M59.6923 59.1943C58.9494 60.0543 58.1 60.6586 57.1443 61.0071C56.1775 61.3462 55.1913 61.418 54.1856 61.2226C53.1799 61.0272 52.2472 60.5579 51.3875 59.8146C50.5168 59.0618 49.9175 58.2065 49.5895 57.2489C49.2711 56.2802 49.2103 55.3031 49.4071 54.3176C49.6023 53.3115 50.0714 52.3784 50.8144 51.5184C51.5573 50.6584 52.4122 50.0589 53.3789 49.7199C54.3442 49.3603 55.3194 49.279 56.3046 49.4759C57.2992 49.6617 58.2319 50.1311 59.1027 50.8839C59.9623 51.6272 60.5617 52.4824 60.9006 53.4496C61.2491 54.4057 61.3209 55.3924 61.1162 56.4095C60.9099 57.406 60.4353 58.3343 59.6923 59.1943ZM58.5185 58.1794C59.0424 57.573 59.3721 56.9239 59.5076 56.2322C59.6416 55.5198 59.5797 54.8114 59.3219 54.107C59.064 53.4025 58.6099 52.7692 57.9597 52.2069C57.2984 51.6352 56.6062 51.2775 55.8831 51.1338C55.149 50.9806 54.4449 51.0268 53.7708 51.2721C53.0952 51.497 52.4955 51.9126 51.9716 52.519C51.4573 53.1144 51.1331 53.7682 50.9991 54.4806C50.8636 55.1724 50.9247 55.8705 51.1826 56.5749C51.4294 57.2699 51.8835 57.9032 52.5448 58.475C53.1951 59.0372 53.8872 59.3949 54.6213 59.5481C55.3554 59.7013 56.0603 59.6654 56.7359 59.4406C57.41 59.1952 58.0042 58.7748 58.5185 58.1794Z" fill="white"/>
<path d="M70.0488 50.3663L63.4821 42.2416L64.1241 42.3406L60.4369 45.3233L59.4615 44.1165L67.5326 37.5877L68.508 38.7945L64.8038 41.7909L64.8414 41.142L71.4082 49.2667L70.0488 50.3663Z" fill="white"/>
<path d="M84.7808 41.4128C83.9385 41.9063 83.0576 42.1608 82.138 42.1762C81.2184 42.1916 80.3303 41.9437 79.4738 41.4324C78.6298 40.9137 77.8912 40.1138 77.2581 39.0325C76.6102 37.926 76.2639 36.8877 76.2192 35.9175C76.1798 34.9274 76.3916 34.0349 76.8547 33.2399C77.3179 32.445 77.9832 31.7934 78.8505 31.2851C79.8059 30.7252 80.7796 30.4417 81.7715 30.4346C82.7761 30.4201 83.7129 30.6648 84.582 31.1687C85.4637 31.6652 86.2028 32.4227 86.7991 33.4412C87.3881 34.447 87.6834 35.4561 87.6852 36.4683C87.6995 37.4731 87.4547 38.4103 86.9508 39.2798C86.4595 40.1419 85.7361 40.8529 84.7808 41.4128ZM81.6826 48.016L73.7204 34.4181L75.1723 33.5673L76.8509 36.434L77.9856 38.6314L79.411 40.6332L83.2099 47.121L81.6826 48.016ZM83.8836 40.14C84.5624 39.7422 85.0774 39.2378 85.4287 38.6266C85.7925 38.0081 85.9659 37.3238 85.9489 36.5739C85.9318 35.8239 85.7061 35.078 85.2718 34.3362C84.83 33.5818 84.2901 33.0201 83.6519 32.6511C83.0063 32.2694 82.3212 32.0798 81.5967 32.0823C80.8846 32.0773 80.1892 32.2738 79.5104 32.6716C78.8316 33.0694 78.314 33.5838 77.9575 34.2149C77.601 34.846 77.4313 35.5365 77.4483 36.2865C77.458 37.0239 77.6837 37.7698 78.1254 38.5242C78.5598 39.266 79.0998 39.8277 79.7453 40.2093C80.3909 40.5909 81.0723 40.7743 81.7895 40.7592C82.5067 40.7442 83.2047 40.5378 83.8836 40.14Z" fill="white"/>
<path d="M100.174 35.8805C99.0325 36.2799 97.9468 36.3973 96.917 36.2328C95.8823 36.0546 94.9776 35.6301 94.203 34.9595C93.4283 34.289 92.8535 33.4173 92.4785 32.3445C92.1035 31.2717 91.9986 30.2433 92.164 29.2592C92.3383 28.2567 92.7494 27.3796 93.3974 26.6281C94.0405 25.8628 94.8778 25.2998 95.9092 24.9389C96.9407 24.5781 97.937 24.4919 98.8981 24.6805C99.8592 24.869 100.713 25.3034 101.46 25.9836C102.203 26.6501 102.766 27.5335 103.151 28.6338C103.175 28.7026 103.204 28.7851 103.237 28.8814C103.271 28.9776 103.295 29.0694 103.311 29.1568L93.945 32.4334L93.5195 31.2162L102.019 28.2427L101.517 28.9275C101.253 28.171 100.855 27.5617 100.323 27.0995C99.7995 26.6188 99.1983 26.312 98.5191 26.1792C97.835 26.0326 97.1285 26.0868 96.3996 26.3418C95.6707 26.5968 95.0776 26.9973 94.6202 27.5432C94.1717 28.0706 93.8927 28.6853 93.7831 29.3874C93.6736 30.0895 93.7534 30.8256 94.0226 31.5958L94.1164 31.864C94.3904 32.648 94.8052 33.2824 95.3605 33.7673C95.9296 34.2474 96.5906 34.5487 97.3434 34.6712C98.0915 34.78 98.878 34.69 99.7032 34.4013C100.363 34.1704 100.93 33.8486 101.403 33.4361C101.885 33.005 102.244 32.4859 102.479 31.8787L103.783 32.6268C103.49 33.3776 103.031 34.0319 102.408 34.5895C101.799 35.1423 101.054 35.5726 100.174 35.8805Z" fill="white"/>
<path d="M112.973 33.5657L111.332 23.2488L111.839 23.6549L107.155 24.4007L106.912 22.8683L117.164 21.2357L117.407 22.7682L112.702 23.5174L113.058 22.9738L114.7 33.2908L112.973 33.5657Z" fill="white"/>
<path d="M129.439 25.5258C130.896 25.5291 132.006 25.8484 132.769 26.4836C133.531 27.1188 133.917 28.0265 133.926 29.2066C133.936 30.445 133.528 31.4026 132.703 32.0792C131.892 32.7411 130.721 33.0707 129.191 33.0679L124.405 33.0831L124.316 21.5658L126.087 21.5521L126.117 25.5296L129.439 25.5258ZM129.05 31.7358C130.07 31.7425 130.841 31.5326 131.362 31.106C131.898 30.6648 132.162 30.0362 132.156 29.2203C132.15 28.3898 131.883 27.7872 131.355 27.4125C130.828 27.0377 130.047 26.847 129.012 26.8405L126.127 26.819L126.165 31.7144L129.05 31.7358Z" fill="white"/>
<path d="M148.813 36.7936L151.866 25.6882L156.86 27.0624C158.139 27.4142 159.075 27.9365 159.671 28.6292C160.27 29.3079 160.442 30.1108 160.187 31.038C159.936 31.9512 159.392 32.557 158.554 32.8554C157.734 33.1436 156.756 33.1312 155.618 32.818L156.046 32.4145C157.381 32.7818 158.289 33.2963 158.772 33.9581C159.269 34.6238 159.388 35.4272 159.129 36.3685C158.863 37.3378 158.298 37.9909 157.435 38.3276C156.589 38.6541 155.436 38.6163 153.975 38.2143L148.813 36.7936ZM150.821 35.9183L154.235 36.8577C155.148 37.109 155.875 37.1579 156.416 37.0045C156.961 36.837 157.32 36.4372 157.494 35.805C157.668 35.1728 157.584 34.6513 157.244 34.2403C156.908 33.8152 156.29 33.479 155.391 33.2316L151.83 32.2516L150.821 35.9183ZM152.171 31.0083L155.395 31.8955C156.224 32.1236 156.899 32.143 157.419 31.9538C157.94 31.7645 158.279 31.3819 158.438 30.8059C158.6 30.2159 158.504 29.7134 158.149 29.2986C157.795 28.8837 157.203 28.5622 156.375 28.3342L153.151 27.447L152.171 31.0083Z" fill="white"/>
<path d="M163.765 42.7704L168.758 32.3913L170.353 33.1593L166.506 41.1553L177.068 36.3923L178.485 37.0749L173.492 47.454L171.917 46.6955L175.764 38.6995L165.202 43.4625L163.765 42.7704Z" fill="white"/>
<path d="M185.021 55.9961L190.474 48.6668L186.18 45.4689L184.644 47.35C184.168 47.9404 183.684 48.5061 183.191 49.0471C182.718 49.5851 182.239 50.0459 181.754 50.4294C181.28 50.8217 180.819 51.0871 180.371 51.2257C179.935 51.373 179.524 51.3395 179.138 51.1252L177.919 49.8355C178.272 50.117 178.666 50.2103 179.1 50.1155C179.533 50.0206 179.978 49.7888 180.434 49.4199C180.911 49.048 181.4 48.5858 181.902 48.0331C182.404 47.4804 182.907 46.9015 183.412 46.2964L185.861 43.2972L192.803 48.466L186.424 57.0403L185.021 55.9961ZM175.007 52.9806L177.551 49.5614L188.278 57.5495L185.735 60.9688L184.402 59.9768L186.033 57.785L177.97 51.7808L176.339 53.9726L175.007 52.9806Z" fill="white"/>
<path d="M193.412 66.774C192.585 65.8912 192.039 64.9454 191.773 63.9366C191.518 62.9179 191.54 61.9185 191.84 60.9386C192.14 59.9586 192.705 59.0801 193.534 58.303C194.363 57.5259 195.261 57.014 196.228 56.7673C197.215 56.5212 198.183 56.5425 199.132 56.8313C200.092 57.1102 200.945 57.6485 201.692 58.4461C202.439 59.2438 202.92 60.1205 203.136 61.0761C203.352 62.0317 203.3 62.9889 202.98 63.9475C202.671 64.8963 202.091 65.7691 201.241 66.5661C201.187 66.6159 201.124 66.6757 201.049 66.7455C200.975 66.8152 200.901 66.8746 200.827 66.9238L194.046 59.6807L194.987 58.799L201.141 65.372L200.312 65.1903C200.896 64.6423 201.293 64.0315 201.5 63.3578C201.728 62.6848 201.766 62.0107 201.613 61.3356C201.47 60.6504 201.135 60.026 200.607 59.4623C200.08 58.8986 199.474 58.5179 198.79 58.3203C198.126 58.1233 197.451 58.1167 196.765 58.3004C196.079 58.4842 195.438 58.855 194.843 59.4129L194.635 59.6072C194.029 60.175 193.617 60.8111 193.398 61.5153C193.189 62.2302 193.181 62.9568 193.373 63.6951C193.576 64.4235 193.976 65.1067 194.574 65.7449C195.052 66.2554 195.575 66.6437 196.143 66.9097C196.732 67.1765 197.352 67.2947 198.002 67.2644L197.845 68.7594C197.04 68.7949 196.257 68.6404 195.495 68.2959C194.743 67.962 194.049 67.4547 193.412 66.774Z" fill="white"/>
<path d="M201.966 79.6415C201.346 78.6893 201 77.7056 200.93 76.6904C200.872 75.6672 201.076 74.6992 201.542 73.7865C202.008 72.8737 202.717 72.107 203.669 71.4862C204.633 70.8575 205.621 70.518 206.632 70.4677C207.65 70.4297 208.606 70.6416 209.498 71.1035C210.41 71.5696 211.176 72.2787 211.797 73.2309C212.417 74.1831 212.757 75.1707 212.815 76.1939C212.893 77.2214 212.701 78.1814 212.239 79.074C211.785 79.9787 211.076 80.7455 210.112 81.3742C209.16 81.995 208.173 82.3345 207.15 82.3927C206.135 82.4631 205.167 82.2591 204.247 81.7808C203.347 81.3068 202.587 80.5937 201.966 79.6415ZM203.266 78.7939C203.703 79.4653 204.236 79.9619 204.863 80.2836C205.51 80.6095 206.207 80.746 206.955 80.6931C207.703 80.6401 208.438 80.3789 209.158 79.9093C209.89 79.4318 210.425 78.8654 210.763 78.21C211.114 77.5467 211.264 76.8571 211.215 76.1411C211.186 75.4295 210.953 74.7379 210.515 74.0665C210.086 73.4073 209.548 72.9147 208.9 72.5888C208.273 72.2671 207.586 72.1327 206.838 72.1857C206.102 72.2306 205.368 72.4919 204.636 72.9694C203.916 73.439 203.38 74.0054 203.03 74.6687C202.68 75.332 202.519 76.0195 202.548 76.7312C202.597 77.4471 202.836 78.1347 203.266 78.7939Z" fill="white"/>
<path d="M214.143 99.2811C214.057 98.9876 214.051 98.6854 214.126 98.3745C214.201 98.0636 214.342 97.7941 214.548 97.566C214.754 97.338 215.025 97.1744 215.36 97.0752C215.696 96.9761 216.012 96.9662 216.309 97.0455C216.606 97.1248 216.87 97.2745 217.102 97.4946C217.334 97.7146 217.494 97.9714 217.58 98.2648C217.671 98.5722 217.677 98.8744 217.598 99.1713C217.522 99.4823 217.382 99.7518 217.176 99.9798C216.969 100.208 216.699 100.372 216.363 100.471C216.028 100.57 215.712 100.58 215.415 100.5C215.118 100.421 214.854 100.271 214.622 100.051C214.394 99.8452 214.234 99.5885 214.143 99.2811Z" fill="white"/>
<circle cx="123.571" cy="123.377" r="68.9275" stroke="#EFEFEF" stroke-opacity="0.4" stroke-width="1.68116"/>
</svg>
