<svg width="32" height="36" viewBox="0 0 32 36" fill="none" xmlns="http://www.w3.org/2000/svg">
<path d="M30.8913 30.6625C31.987 31.87 31.987 33.7485 30.8913 34.956C30.3435 35.5598 29.6739 35.8282 28.9435 35.8282C28.213 35.8282 27.5435 35.5598 26.9957 34.956L15.8565 22.6791L4.71739 34.956C4.16957 35.5598 3.5 35.8282 2.76957 35.8282C2.03913 35.8282 1.36957 35.5598 0.821739 34.956C-0.273913 33.7485 -0.273913 31.87 0.821739 30.6625L11.9609 18.3856L0.821739 6.10866C-0.273913 4.90109 -0.273913 3.02266 0.821739 1.8151C1.91739 0.607533 3.62174 0.607533 4.71739 1.8151L15.8565 14.092L26.9957 1.8151C28.0913 0.607533 29.7957 0.607533 30.8913 1.8151C31.987 3.02266 31.987 4.90109 30.8913 6.10866L19.7522 18.3856L30.8913 30.6625Z" fill="white"/>
</svg>
