<svg width="31" height="22" viewBox="0 0 31 22" fill="none" xmlns="http://www.w3.org/2000/svg">
<path d="M2.28131 0.731091C4.73806 0.728723 7.20566 0.727539 9.68412 0.727539C9.7005 0.727545 9.71655 0.73209 9.73046 0.740665C9.74437 0.749239 9.75558 0.761504 9.76285 0.776082L11.6211 4.48903C11.6252 4.49723 11.6314 4.50413 11.6392 4.50895C11.6469 4.51376 11.6558 4.51629 11.6649 4.51626C16.05 4.51626 20.4354 4.51784 24.8212 4.52099C25.3485 4.52139 25.7935 4.68458 26.1562 5.01057C26.3531 5.18738 26.5029 5.39082 26.6055 5.62091C26.7081 5.8502 26.7665 6.10219 26.7807 6.37688C26.781 6.38122 26.7803 6.38557 26.7788 6.38965C26.7773 6.39374 26.775 6.39748 26.772 6.40064C26.769 6.4038 26.7654 6.40631 26.7614 6.40803C26.7574 6.40974 26.7531 6.41063 26.7487 6.41062C21.3151 6.41062 15.8775 6.41062 10.4359 6.41062C10.237 6.41062 10.0223 6.42483 9.79186 6.45324C9.57203 6.48008 9.36227 6.52231 9.16258 6.57993C7.95966 6.92604 7.00892 7.63051 6.31038 8.69332C6.11423 8.99208 5.92065 9.42995 5.72964 10.0069C5.7253 10.0204 4.52139 13.2238 2.11792 19.6173C2.11487 19.6255 2.10936 19.6326 2.10221 19.6374C2.09507 19.6422 2.08667 19.6445 2.07826 19.6439C1.4697 19.6123 0.988609 19.3562 0.634995 18.8755C0.413986 18.5752 0.29184 18.2275 0.268555 17.8324C0.268555 12.7461 0.268555 7.65991 0.268555 2.57395C0.293813 2.27243 0.344329 2.04294 0.420103 1.88547C0.790688 1.11667 1.41109 0.73188 2.28131 0.731091Z" fill="white"/>
<path d="M11.088 8.30469C17.101 8.30469 23.1107 8.30469 29.117 8.30469C29.2046 8.30469 29.2918 8.30962 29.3786 8.31949C30.1103 8.40158 30.5038 8.77729 30.5591 9.44663C30.5713 9.59779 30.549 9.77065 30.4922 9.96521C30.3777 10.3563 30.2449 10.7413 30.0938 11.1202C28.8368 14.5932 27.5749 18.0642 26.308 21.5332C26.3051 21.5416 26.2997 21.5488 26.2927 21.5539C26.2857 21.559 26.2774 21.5617 26.2689 21.5617L3.46203 21.5652C3.45645 21.5652 3.45096 21.5638 3.44603 21.5612C3.4411 21.5586 3.43688 21.5549 3.43373 21.5503C3.43058 21.5458 3.4286 21.5406 3.42796 21.5351C3.42732 21.5297 3.42804 21.5241 3.43006 21.519C4.75335 17.9904 6.0721 14.476 7.38631 10.9757C7.62982 10.3269 7.77426 9.95988 7.81965 9.87464C8.04658 9.44564 8.37 9.08907 8.78991 8.80492C9.13642 8.57049 9.50839 8.41835 9.90581 8.34849C10.072 8.31929 10.466 8.30469 11.088 8.30469Z" fill="white"/>
</svg>
