<svg width="30" height="26" viewBox="0 0 30 26" fill="none" xmlns="http://www.w3.org/2000/svg">
    <path d="M10.6422 25.6277C10.495 25.6278 10.3499 25.5939 10.2179 25.5287C10.086 25.4635 9.97092 25.3688 9.88156 25.2519L0.196081 12.5827C0.0424015 12.3812 -0.025093 12.127 0.00839972 11.8758C0.0418924 11.6246 0.173638 11.397 0.374744 11.2428L4.60843 8.00511C4.81002 7.8515 5.06429 7.78411 5.31549 7.81773C5.56669 7.85134 5.79431 7.98321 5.94841 8.18441L11.122 14.9481L24.4509 0.676077C24.6242 0.490523 24.864 0.381373 25.1177 0.372638C25.3713 0.363902 25.6181 0.456297 25.8037 0.629497L29.696 4.26658C29.8815 4.43979 29.9907 4.67961 29.9994 4.9333C30.0082 5.18699 29.9158 5.43375 29.7426 5.61932L14.9703 21.4387C14.7965 21.622 14.5574 21.7292 14.3049 21.7369C14.0525 21.7446 13.8072 21.6522 13.6226 21.4799C13.438 21.3075 13.3289 21.0692 13.3193 20.8168C13.3096 20.5645 13.4001 20.3185 13.571 20.1325L27.693 5.01314L25.1962 2.68158L11.7454 17.0838C11.6504 17.1855 11.5344 17.2652 11.4055 17.3175C11.2765 17.3698 11.1377 17.3933 10.9987 17.3864C10.8597 17.3796 10.7239 17.3425 10.6007 17.2778C10.4776 17.213 10.37 17.1222 10.2855 17.0117L5.00851 10.105L2.29538 12.1801L11.4015 24.0893C11.5098 24.231 11.5764 24.4002 11.5937 24.5778C11.611 24.7554 11.5783 24.9342 11.4994 25.0942C11.4204 25.2542 11.2983 25.3889 11.1468 25.4832C10.9954 25.5775 10.8206 25.6275 10.6422 25.6277Z" fill="#EC1F27"/>
</svg>
