<svg width="1524" height="1641" viewBox="0 0 1524 1641" fill="none" xmlns="http://www.w3.org/2000/svg">
    <path d="M69.5038 1098.11C101.7 1067.34 138.087 1042.66 178.664 1024.08C186.809 1020.35 190.893 1018.48 190.916 1018.47C226.224 1001.89 258.534 985.819 287.846 970.255C299.16 964.246 311.482 956.645 324.809 947.452C358.048 924.544 382.729 894.63 398.853 857.709C401.608 851.395 406.948 838.001 414.875 817.526C427.806 784.102 443.983 752.384 463.408 722.371C471.548 709.776 477.959 700.37 482.639 694.153C497.462 674.416 515.265 657.633 536.048 643.803C543.637 638.753 551.607 634.52 559.958 631.105C569.52 627.205 578.2 625.03 586 624.579C598.558 623.873 610.659 626.722 622.306 633.125C622.796 633.394 623.361 633.465 623.879 633.322C629.433 631.724 633.876 628.397 637.206 623.343C638.794 620.922 640.232 620.773 641.519 622.896L644.131 627.221C644.521 627.864 644.86 628.297 645.15 628.52C647.55 630.407 649.298 633.265 650.393 637.095C650.559 637.694 650.927 638.216 651.435 638.573C655.65 641.532 654.911 643.69 649.22 645.048C646.149 645.795 643.343 647.068 640.803 648.867C640.465 649.116 639.735 649.846 638.615 651.058C637.75 651.996 636.805 652.515 635.78 652.616C635.204 652.672 634.654 652.887 634.191 653.239C633.728 653.59 633.37 654.063 633.155 654.606C630.964 660.068 628.606 665.125 626.079 669.779C624.951 671.846 619.305 680.386 609.142 695.399C601.267 707.016 596.094 715.811 593.623 721.783C585.499 741.36 584.104 762.143 589.44 784.131C591.869 794.161 595.658 803.112 600.806 810.984C604.714 816.956 609.627 821.674 615.544 825.14C624.013 830.095 633.173 832.851 643.024 833.408C645.938 833.567 650.794 833.233 657.594 832.405C662.592 831.788 667.464 831.376 672.208 831.17C672.64 831.153 673.065 831.05 673.457 830.868C673.85 830.686 674.203 830.428 674.496 830.11C706.627 795.228 737.646 761.098 767.555 727.72C829.562 657.406 891.801 587.302 954.271 517.408C986.88 482.446 1018.89 446.951 1050.3 410.924C1058.73 401.245 1066.26 392.708 1072.9 385.311C1110.05 343.923 1147.14 302.47 1184.17 260.953C1198.02 246.459 1207.94 235.108 1213.94 226.899C1217.36 222.226 1218.33 216.314 1216.84 209.164C1216.36 206.85 1215.67 198.114 1214.77 182.957C1214.73 182.378 1214.87 181.821 1215.16 181.37C1217.37 177.802 1220.49 174.851 1224.51 172.517C1229.48 169.635 1235.37 165.611 1242.19 160.444C1242.42 160.271 1242.61 160.062 1242.75 159.828C1242.89 159.594 1242.98 159.34 1243.01 159.082C1243.39 155.887 1241.67 154.471 1237.84 154.832C1234.73 155.13 1231.66 154.465 1228.64 152.837C1225.74 151.274 1223.64 149.137 1222.32 146.427C1219.65 140.969 1221.05 135.556 1226.52 130.19C1230.43 126.33 1234.66 124.191 1239.2 123.774C1243.66 123.353 1247.43 124.762 1250.49 128C1254.07 131.767 1254.73 136.36 1252.48 141.777C1252.44 141.852 1251.74 143.008 1250.37 145.245C1248.75 147.894 1249.51 150.065 1252.64 151.758C1252.86 151.878 1253.12 151.939 1253.38 151.936C1253.64 151.933 1253.91 151.866 1254.15 151.742C1263.15 147.266 1271.58 141.882 1279.42 135.59C1279.64 135.419 1279.81 135.207 1279.93 134.967C1280.06 134.727 1280.13 134.465 1280.14 134.199C1280.3 130.938 1278.95 129.323 1276.08 129.355C1273.69 129.378 1272.47 129.387 1272.43 129.382C1265.65 128.474 1261.22 124.788 1259.13 118.323C1258.18 115.379 1258.7 112.779 1260.69 110.525C1263.33 107.51 1264.75 105.878 1264.95 105.631C1267.31 102.601 1270.45 100.608 1274.37 99.6514C1279.19 98.4568 1283.63 100.01 1287.68 104.31C1290.45 107.245 1291.71 110.305 1291.47 113.491C1291.4 114.237 1290.64 115.861 1289.18 118.362C1287.45 121.325 1288 124.458 1290.83 127.76C1290.98 127.946 1291.2 128.07 1291.44 128.109C1291.68 128.149 1291.93 128.101 1292.14 127.974C1301.12 122.63 1309.96 116.968 1318.66 110.988C1321.65 108.941 1321.95 106.933 1319.58 104.963C1318.7 104.226 1317.59 103.824 1316.44 103.831C1309.07 103.89 1303.78 101.141 1300.55 95.5835C1298.53 92.0979 1298.59 88.832 1300.73 85.7855C1302.17 83.7371 1303.74 81.7329 1305.42 79.7732C1306.67 78.3104 1308.21 77.191 1310.03 76.4152C1311.31 75.8697 1313.07 75.2599 1315.31 74.5854C1321.73 72.6707 1326.48 74.9889 1329.56 81.5398C1331.43 85.551 1331.41 89.8226 1329.49 94.3548C1328.58 96.5047 1328.14 98.1871 1328.18 99.4021C1328.31 103.248 1330.2 103.964 1333.85 101.549C1336 100.131 1337.13 99.3857 1337.26 99.313C1349.46 92.1309 1356.03 87.9118 1356.96 86.6557C1358.55 84.5088 1358.5 82.4561 1356.79 80.4979C1356.63 80.3136 1356.42 80.1696 1356.17 80.0772C1355.92 79.9848 1355.64 79.9467 1355.35 79.9656C1348.11 80.3874 1342.57 77.6827 1338.73 71.8515C1335.74 67.3023 1336.07 62.6837 1339.72 57.9955C1343.1 53.6393 1347.32 50.8482 1352.37 49.6223C1357.35 48.4008 1361.68 49.7631 1365.37 53.7093C1370.08 58.7555 1370.68 64.066 1367.17 69.6404C1365.06 72.9673 1365.37 75.6481 1368.1 77.6828C1368.29 77.829 1368.54 77.9141 1368.8 77.9287C1369.06 77.9434 1369.32 77.8868 1369.56 77.7656C1377.79 73.6973 1385.59 68.9399 1392.97 63.4932C1394.73 62.2057 1395.77 61.011 1396.08 59.9093C1396.63 57.9855 1395.67 56.3284 1393.2 54.9379C1392.52 53.2415 1391.53 51.7796 1390.23 50.5524C1390 50.3344 1389.74 50.1697 1389.47 50.0734C1389.21 49.9771 1388.95 49.9521 1388.72 50.0007L1380.68 51.7498C1375.41 48.2572 1373.67 43.7128 1375.46 38.1166C1375.61 37.63 1375.96 37.1778 1376.46 36.8396C1378.39 35.5328 1379.99 33.9259 1381.25 32.0188C1382.77 29.723 1384.15 28.2472 1385.39 27.5915C1388.34 25.9984 1391.45 25.3585 1394.71 25.6717C1397.78 25.9573 1400.49 27.2555 1402.82 29.5667C1407.82 34.5131 1408.1 40.2843 1403.66 46.8804C1403.34 47.3695 1403.19 47.9162 1403.25 48.4205C1403.51 50.7252 1404.65 52.4797 1406.65 53.6841C1406.87 53.8135 1407.12 53.8828 1407.39 53.886C1407.66 53.8893 1407.93 53.8262 1408.17 53.7026C1416.28 49.6022 1423.88 44.7168 1430.99 39.0466C1432.36 37.954 1433.11 36.8561 1433.21 35.7523C1433.34 34.4613 1432.91 33.2807 1431.91 32.2107C1431.74 32.029 1431.52 31.8861 1431.27 31.7923C1431.02 31.6983 1430.74 31.6556 1430.46 31.6671C1427.45 31.8044 1424.55 31.4058 1421.77 30.4716C1418.86 29.4977 1416.51 27.9053 1414.73 25.6946C1410.79 20.7979 1410.96 15.4033 1415.25 9.51052C1419.72 3.3801 1425.06 0.546216 1431.26 1.00902C1436.17 1.3729 1439.94 3.50687 1442.57 7.41067C1445.63 11.931 1445.38 16.9681 1441.81 22.5223C1441.63 22.7871 1441.5 23.063 1441.43 23.3336C1441.36 23.6043 1441.34 23.8644 1441.38 24.0992C1441.62 25.4618 1442.51 27.0275 1444.03 28.7963C1444.34 29.156 1444.76 29.3955 1445.23 29.4725C1445.7 29.5495 1446.18 29.4592 1446.59 29.2174C1451.62 26.2425 1456.82 23.7844 1462.19 21.8433C1468.22 19.6643 1473.81 18.7326 1478.96 19.0482C1489.21 19.6591 1498.61 23.7652 1507.19 31.3669C1517.17 40.2205 1522.54 50.3479 1523.29 61.7491C1523.85 70.2923 1521.54 79.8179 1516.37 90.3257C1511.87 99.4504 1505.96 107.565 1498.62 114.67C1497.06 116.186 1495.18 116.962 1492.99 116.996C1488.11 117.041 1483.25 116.847 1478.42 116.413C1471.34 115.759 1464.92 117.533 1459.14 121.735C1447.07 130.513 1436.36 140.744 1427 152.428C1418.24 163.388 1410.3 174.916 1403.2 187.013C1391.34 207.237 1380.69 228.084 1371.26 249.555C1369.39 253.802 1366.57 257.527 1362.8 260.732C1361.08 262.202 1359.15 262.562 1357.01 261.81C1348.07 258.7 1338.9 256.526 1329.47 255.288C1324.17 254.579 1319.56 254.711 1315.64 255.684C1310.93 256.855 1306.63 258.781 1302.74 261.461C1292.39 268.615 1283.02 277.611 1274.61 288.45C1260.61 304.744 1246.73 321.139 1232.97 337.635C1123.24 469.2 1013.47 600.723 903.649 732.205C883.858 755.896 863.856 779.411 843.646 802.751C822.642 827.483 807.434 845.742 798.021 857.527C776.964 883.875 755.42 909.821 733.39 935.364C721.393 949.257 709.673 963.302 698.228 977.497C696.598 979.518 695.752 981.825 695.692 984.417C695.282 1003.47 700.446 1020.91 711.183 1036.74C721.429 1051.85 735.219 1062.2 752.553 1067.8C759.253 1069.96 766.018 1070.96 772.846 1070.81C778.773 1070.69 785.358 1069.36 792.599 1066.83C802.331 1063.43 811.527 1058.84 820.189 1053.07C820.513 1052.85 825.151 1049.56 834.104 1043.19C834.127 1043.18 836.737 1041.22 841.934 1037.3C846.54 1033.83 851.457 1030.84 856.684 1028.33C858.825 1027.3 861.045 1026.62 863.346 1026.29C865.318 1026.01 867.595 1026.1 870.175 1026.57C883.755 1029.1 892.365 1035.8 896.003 1046.66C898.451 1053.95 898.33 1063.7 895.639 1075.91C892.317 1090.96 886.377 1104.93 877.821 1117.81C872.524 1125.77 865.405 1134.65 856.464 1144.44C841.129 1161.22 823.433 1175.21 803.377 1186.41C784.924 1196.73 766.245 1206.63 747.34 1216.12C708.843 1235.41 682.865 1265.23 669.406 1305.57C665.801 1316.4 662.234 1329.66 658.705 1345.37C650.067 1383.89 638.479 1421.47 623.941 1458.09C618.483 1471.86 614.135 1482.36 610.894 1489.61C596.033 1522.86 576.525 1552.53 552.371 1578.64C530.028 1602.77 502.754 1620.23 470.549 1630.99C431.678 1643.99 393.082 1643.91 354.759 1630.77C341.528 1626.23 328.109 1620.02 314.501 1612.15C297.681 1602.41 277.929 1589.13 255.247 1572.31C229.951 1553.55 205.078 1534.23 180.627 1514.37C180.543 1514.3 180.444 1514.25 180.338 1514.23C180.233 1514.2 180.122 1514.2 180.015 1514.22C179.908 1514.25 179.807 1514.3 179.719 1514.36C179.631 1514.43 179.558 1514.51 179.506 1514.61L172.367 1528.12C172.096 1528.63 171.67 1529.03 171.16 1529.24C168.573 1530.35 166.076 1529.92 163.67 1527.95C160.214 1525.11 157.272 1521.82 154.844 1518.08C154.709 1517.88 154.643 1517.64 154.655 1517.39C154.666 1517.14 154.755 1516.89 154.908 1516.69L166.386 1501.49C166.453 1501.4 166.501 1501.29 166.527 1501.18C166.554 1501.08 166.558 1500.96 166.539 1500.85C166.52 1500.74 166.479 1500.63 166.418 1500.54C166.357 1500.44 166.278 1500.36 166.185 1500.29C163.515 1498.36 161.347 1496.57 159.68 1494.92C140.572 1475.96 121.272 1457.2 101.779 1438.63C84.7141 1421.88 68.9438 1403.98 54.4678 1384.95C39.1523 1364.82 26.9137 1344.57 17.7521 1324.21C13.0047 1313.65 9.0007 1301.12 5.74006 1286.63C-3.42232 1245.91 -0.0840396 1207.07 15.7549 1170.11C22.9165 1153.38 32.9252 1137.56 45.781 1122.65C51.8184 1115.62 59.726 1107.44 69.5038 1098.11ZM1322.26 105.678C1322.65 106.668 1323.12 106.475 1323.67 105.1C1323.73 104.978 1323.75 104.848 1323.76 104.719C1323.76 104.59 1323.74 104.464 1323.69 104.35C1323.65 104.236 1323.58 104.137 1323.5 104.059C1323.42 103.981 1323.32 103.926 1323.21 103.897C1322.78 103.781 1322.46 103.943 1322.26 104.384C1322.08 104.767 1322.08 105.199 1322.26 105.678Z" fill="#EAEAEA"/>
</svg>
