<?xml version="1.0" encoding="UTF-8"?>
<svg xmlns="http://www.w3.org/2000/svg" width="750.16" height="236.16" viewBox="0 0 750.16 236.16">
  <defs>
    <style>
      .d {
        stroke: #fff;
        stroke-width: 3.75px;
      }

      .d, .e {
        fill: #fff;
      }

      .d, .f, .g, .h {
        stroke-miterlimit: 2.61;
      }

      .d, .h {
        fill-rule: evenodd;
      }

      .i, .g {
        fill: #1a1a18;
      }

      .f {
        fill: #e3000f;
        stroke: #e3000f;
      }

      .f, .g {
        stroke-width: .5px;
      }

      .g {
        stroke: #1a1a18;
      }

      .j {
        fill: none;
        stroke: #020204;
        stroke-miterlimit: 10;
        stroke-width: 4px;
      }

      .h {
        fill: #ffed00;
        stroke: #ffed00;
        stroke-width: .22px;
      }
    </style>
  </defs>
  <g id="a" data-name="Слой 2">
    <g>
      <rect class="e" x="2" y="2" width="602.35" height="232.16" rx="25" ry="25"/>
      <rect class="j" x="2" y="2" width="602.35" height="232.16" rx="25" ry="25"/>
    </g>
  </g>
  <g id="b" data-name="Слой 3">
    <g>
      <path class="i" d="m36.56,206.34c-.12.09-.26.16-.42.2-.32.06-.64.12-.97.17-.32.05-.67.09-1.06.12-.38.03-.81.06-1.3.08-.48.02-1.05.03-1.69.03-.93,0-1.86-.14-2.81-.42-.95-.28-1.8-.78-2.56-1.49-.76-.71-1.39-1.67-1.87-2.87-.48-1.2-.72-2.71-.72-4.54v-4.19c0-1.85.24-3.37.72-4.57.48-1.2,1.11-2.15,1.87-2.85.76-.7,1.62-1.2,2.56-1.48.95-.28,1.88-.42,2.81-.42s1.89.06,2.76.17c.88.11,1.64.22,2.31.32.32.04.48.17.48.39v1.54c0,.1-.03.19-.09.26s-.18.1-.36.08c-.28-.02-.62-.05-1.01-.08-.39-.03-.81-.06-1.27-.09-.45-.03-.92-.06-1.4-.08-.48-.02-.95-.03-1.39-.03-.74,0-1.43.12-2.07.35-.63.23-1.19.61-1.66,1.15-.47.53-.84,1.24-1.12,2.11s-.41,1.96-.41,3.24v4.19c0,1.27.14,2.34.41,3.21s.64,1.58,1.12,2.11,1.03.92,1.66,1.16c.63.24,1.32.36,2.07.36.42,0,.87,0,1.34-.03.47-.02.94-.04,1.39-.06.45-.02.87-.04,1.25-.08.38-.03.71-.05,1-.08.4-.04.6.12.6.48v1.24c0,.18-.06.32-.18.41Z"/>
      <path class="i" d="m56.02,206.23c0,.32-.17.48-.51.48h-1.78c-.14,0-.25-.04-.33-.14s-.14-.2-.18-.32l-1.96-6.94h-7.81l-1.93,6.94c-.04.12-.11.23-.21.32s-.21.14-.33.14h-1.78c-.34,0-.51-.16-.51-.48,0-.1,0-.17.03-.21l5.58-19.64c.12-.46.3-.84.53-1.13.23-.29.49-.52.77-.69.28-.17.58-.29.89-.36.31-.07.61-.11.89-.11s.57.03.88.09.59.18.88.35c.28.17.54.4.77.69.23.29.41.67.53,1.13l5.58,19.67s.03.11.03.21Zm-8.09-19.22c-.1-.36-.29-.54-.57-.54-.3,0-.5.18-.6.54l-2.75,9.93h6.67l-2.75-9.93Z"/>
      <path class="i" d="m67.04,187.01c-.1-.36-.29-.54-.57-.54-.3,0-.5.18-.6.54l-5.25,19.25c-.04.12-.11.23-.21.32s-.21.14-.33.14h-1.78c-.34,0-.51-.16-.51-.48,0-.1,0-.17.03-.21l5.58-19.64c.12-.46.3-.84.53-1.13.23-.29.49-.52.77-.69.28-.17.58-.29.89-.36.31-.07.61-.11.89-.11s.57.03.88.09.59.18.88.35c.28.17.54.4.77.69.23.29.41.67.53,1.13l5.58,19.67s.03.11.03.21c0,.32-.17.48-.51.48h-1.78c-.14,0-.25-.04-.33-.14s-.14-.2-.18-.32l-5.28-19.25Z"/>
      <path class="i" d="m94.16,197.45c0,1.67-.2,3.1-.6,4.3-.4,1.2-.97,2.18-1.69,2.94-.73.76-1.59,1.33-2.58,1.69s-2.09.54-3.28.54-2.28-.18-3.28-.54-1.86-.92-2.58-1.69c-.73-.76-1.29-1.74-1.71-2.94-.41-1.2-.62-2.63-.62-4.3v-3.89c0-1.67.21-3.1.62-4.3s.98-2.18,1.71-2.94c.73-.76,1.59-1.33,2.58-1.69,1-.36,2.09-.54,3.28-.54s2.28.18,3.28.54c1,.36,1.86.92,2.58,1.69.73.76,1.29,1.75,1.69,2.94.4,1.2.6,2.63.6,4.3v3.89Zm-2.81-3.89c0-1.27-.13-2.34-.38-3.23-.25-.89-.61-1.61-1.07-2.17-.46-.56-1.02-.97-1.68-1.22-.66-.25-1.4-.38-2.23-.38s-1.56.13-2.23.38c-.66.25-1.23.66-1.7,1.22-.47.56-.83,1.29-1.08,2.17-.25.88-.38,1.96-.38,3.23v3.89c0,1.27.12,2.34.38,3.23.25.89.61,1.61,1.07,2.17.46.56,1.03.97,1.7,1.22.67.25,1.42.38,2.24.38s1.56-.12,2.23-.38c.66-.25,1.22-.66,1.68-1.22.46-.56.82-1.29,1.07-2.17.25-.88.38-1.96.38-3.23v-3.89Z"/>
      <path class="i" d="m113.92,206.53c-.12.12-.26.18-.42.18h-1.54c-.16,0-.3-.06-.42-.18-.12-.12-.18-.26-.18-.42v-9.99h-10.32v9.99c0,.16-.06.3-.18.42-.12.12-.26.18-.42.18h-1.54c-.16,0-.3-.06-.42-.18-.12-.12-.18-.26-.18-.42v-21.21c0-.16.06-.3.18-.42s.26-.18.42-.18h1.54c.16,0,.3.06.42.18.12.12.18.26.18.42v8.75h10.32v-8.75c0-.16.06-.3.18-.42.12-.12.26-.18.42-.18h1.54c.16,0,.3.06.42.18s.18.26.18.42v21.21c0,.16-.06.3-.18.42Z"/>
      <path class="i" d="m144.33,206.53c-.12.12-.26.18-.42.18h-1.46c-.16,0-.3-.06-.42-.18-.12-.12-.18-.26-.18-.42v-17.89c0-.14-.03-.15-.09-.03l-4.32,8.93c-.16.3-.33.52-.51.66-.18.14-.46.21-.85.21h-1.39c-.38,0-.67-.07-.85-.21-.18-.14-.35-.36-.51-.66l-4.32-8.93c-.06-.12-.09-.11-.09.03v17.89c0,.16-.06.3-.18.42-.12.12-.26.18-.42.18h-1.46c-.16,0-.3-.06-.42-.18-.12-.12-.18-.26-.18-.42v-20.94c0-.24.08-.45.25-.62.17-.17.37-.26.61-.26h1.94c.28,0,.49.04.62.11.13.07.25.21.35.41l4.99,10.35c.1.22.22.33.36.33s.26-.11.36-.33l4.99-10.35c.1-.2.22-.34.35-.41.13-.07.34-.11.62-.11h1.94c.24,0,.44.09.61.26.17.17.25.38.25.62v20.94c0,.16-.06.3-.18.42Z"/>
      <path class="i" d="m156.94,202.34c-.3.79-.61,1.46-.94,2.04-.32.57-.7,1.05-1.15,1.43-.44.38-.97.66-1.57.84-.6.18-1.34.27-2.2.27-.36,0-.73-.02-1.12-.06-.38-.04-.64-.08-.78-.12-.18-.04-.33-.09-.45-.15-.12-.06-.18-.17-.18-.33v-1.39c0-.36.22-.52.66-.48.24.02.44.04.6.04.16.01.31.02.44.03.13.01.26.02.39.02h.44c.42,0,.78-.03,1.09-.09s.56-.19.78-.38c.22-.19.43-.45.62-.78.19-.33.39-.77.59-1.31l1.09-2.84h-.15c-.56,0-1-.13-1.3-.39-.3-.26-.59-.74-.88-1.45l-4.56-12.19c-.1-.22-.11-.4-.03-.54.08-.14.23-.21.45-.21h1.84c.1,0,.21.04.32.14.11.09.19.19.23.29l4.25,11.31c.1.26.19.42.26.48.07.06.19.09.35.09h.18l4.62-11.89c.04-.1.11-.2.2-.29.09-.09.2-.14.32-.14h1.87c.22,0,.37.07.45.21.08.14.07.32-.03.54l-6.7,17.29Z"/>
      <path class="i" d="m179.34,203.38c-.37.81-.89,1.48-1.55,2.01-.66.52-1.45.91-2.37,1.16-.92.25-1.93.38-3.03.38-.97,0-1.88-.06-2.73-.18-.86-.12-1.64-.26-2.37-.43-.16-.04-.3-.11-.41-.2-.11-.09-.17-.22-.17-.38v-1.04c0-.18.06-.32.18-.41s.26-.12.42-.11c.91.12,1.8.22,2.69.3.88.08,1.68.12,2.38.12,1.65,0,2.85-.33,3.59-.99s1.12-1.71,1.12-3.16v-.63c0-.4-.06-.82-.17-1.25-.11-.43-.3-.83-.57-1.19-.27-.36-.63-.66-1.09-.89s-1.02-.35-1.7-.35h-5.49c-.38,0-.57-.18-.57-.54v-1.06c0-.38.19-.57.57-.57h5.49c.72,0,1.32-.11,1.78-.33.46-.22.82-.51,1.07-.86s.43-.74.53-1.16c.1-.42.15-.83.15-1.23v-.42c0-1.24-.36-2.15-1.07-2.72-.71-.57-1.93-.86-3.64-.86-.89,0-1.7.05-2.46.14-.75.09-1.62.2-2.61.32-.16.02-.3-.02-.42-.11-.12-.09-.18-.23-.18-.41v-1.07c0-.14.06-.26.17-.37.11-.1.25-.17.41-.21.72-.16,1.51-.31,2.37-.43.85-.12,1.76-.18,2.73-.18,1.13,0,2.15.1,3.08.29.92.19,1.71.52,2.37.98.65.46,1.16,1.07,1.52,1.83.36.75.54,1.68.54,2.79v.42c0,1.03-.24,1.95-.72,2.78-.48.82-1.2,1.47-2.14,1.93.54.26,1,.57,1.36.93.36.36.65.75.88,1.18.22.42.38.86.48,1.3.1.44.15.88.15,1.33v.63c0,1.13-.19,2.1-.56,2.91Z"/>
      <path class="i" d="m199.33,200.53c0,1.27-.24,2.31-.71,3.14-.47.82-1.12,1.48-1.93,1.96-.81.48-1.76.82-2.82,1.01-1.07.19-2.18.29-3.35.29-1.01,0-1.93-.02-2.78-.06-.84-.04-1.56-.11-2.14-.21-.34-.04-.59-.14-.75-.3-.16-.16-.24-.43-.24-.81v-20.67c0-.16.05-.3.15-.41s.23-.17.39-.17h1.66c.16,0,.29.06.39.17s.15.25.15.41v8.84c.46-.04.96-.07,1.49-.09.53-.02,1.09-.03,1.67-.03,1.17,0,2.28.1,3.35.29s2.01.53,2.82,1.03c.81.49,1.46,1.15,1.93,1.98.47.82.71,1.87.71,3.14v.51Zm-2.75-.54c0-.8-.14-1.47-.42-2.01-.28-.53-.68-.95-1.21-1.25-.52-.3-1.16-.51-1.92-.63-.75-.12-1.59-.18-2.52-.18-.52,0-1.05.01-1.58.03-.53.02-1.06.05-1.58.09v8.45c.5.02,1.03.04,1.57.08s1.08.04,1.6.04c.92,0,1.77-.06,2.52-.18.75-.12,1.39-.33,1.92-.63.52-.3.92-.71,1.21-1.24.28-.52.42-1.2.42-2.02v-.54Zm9.35,6.12c0,.16-.05.3-.15.42-.1.12-.23.18-.39.18h-1.66c-.16,0-.29-.06-.39-.18-.1-.12-.15-.26-.15-.42v-21.24c0-.16.05-.3.15-.41.1-.11.23-.17.39-.17h1.66c.16,0,.29.06.39.17.1.11.15.25.15.41v21.24Z"/>
      <path class="i" d="m225.28,206.49c-.02.15-.14.23-.36.23h-2.35c-.26,0-.48-.1-.66-.3l-8.51-10.35v10.05c0,.16-.05.3-.15.42-.1.12-.23.18-.39.18h-1.66c-.16,0-.29-.06-.39-.18-.1-.12-.15-.26-.15-.42v-21.24c0-.16.06-.3.17-.41.11-.11.25-.17.41-.17h1.6c.16,0,.3.06.41.17.11.11.17.25.17.41v9.74l8.69-10.05c.1-.1.19-.17.26-.21.07-.04.19-.06.35-.06h2.17c.24,0,.38.08.41.23.03.15,0,.29-.11.41l-9.08,10.26,9.08,10.86c.1.14.14.29.12.44Z"/>
      <path class="i" d="m244.83,206.23c0,.32-.17.48-.51.48h-1.78c-.14,0-.25-.04-.33-.14s-.14-.2-.18-.32l-1.96-6.94h-7.81l-1.93,6.94c-.04.12-.11.23-.21.32s-.21.14-.33.14h-1.78c-.34,0-.51-.16-.51-.48,0-.1,0-.17.03-.21l5.58-19.64c.12-.46.3-.84.53-1.13.23-.29.49-.52.77-.69.28-.17.58-.29.89-.36.31-.07.61-.11.89-.11s.57.03.88.09.59.18.88.35c.28.17.54.4.77.69.23.29.41.67.53,1.13l5.58,19.67s.03.11.03.21Zm-8.09-19.22c-.1-.36-.29-.54-.57-.54-.3,0-.5.18-.6.54l-2.75,9.93h6.67l-2.75-9.93Z"/>
      <path class="i" d="m255.84,187.01c-.1-.36-.29-.54-.57-.54-.3,0-.5.18-.6.54l-5.25,19.25c-.04.12-.11.23-.21.32s-.21.14-.33.14h-1.78c-.34,0-.51-.16-.51-.48,0-.1,0-.17.03-.21l5.58-19.64c.12-.46.3-.84.53-1.13.23-.29.49-.52.77-.69.28-.17.58-.29.89-.36.31-.07.61-.11.89-.11s.57.03.88.09.59.18.88.35c.28.17.54.4.77.69.23.29.41.67.53,1.13l5.58,19.67s.03.11.03.21c0,.32-.17.48-.51.48h-1.78c-.14,0-.25-.04-.33-.14s-.14-.2-.18-.32l-5.28-19.25Z"/>
      <path class="i" d="m281.88,200.53c0,1.27-.24,2.31-.71,3.14-.47.82-1.12,1.48-1.93,1.96-.81.48-1.76.82-2.82,1.01-1.07.19-2.18.29-3.35.29-1.01,0-1.93-.02-2.78-.06-.84-.04-1.56-.11-2.14-.21-.34-.04-.59-.14-.75-.3-.16-.16-.24-.43-.24-.81v-20.67c0-.16.05-.3.15-.41s.23-.17.39-.17h1.66c.16,0,.29.06.39.17s.15.25.15.41v8.84c.46-.04.96-.07,1.49-.09.53-.02,1.09-.03,1.67-.03,1.17,0,2.28.1,3.35.29s2.01.53,2.82,1.03c.81.49,1.46,1.15,1.93,1.98.47.82.71,1.87.71,3.14v.51Zm-2.75-.54c0-.8-.14-1.47-.42-2.01-.28-.53-.68-.95-1.21-1.25-.52-.3-1.16-.51-1.92-.63-.75-.12-1.59-.18-2.52-.18-.52,0-1.05.01-1.58.03-.53.02-1.06.05-1.58.09v8.45c.5.02,1.03.04,1.57.08s1.08.04,1.6.04c.92,0,1.77-.06,2.52-.18.75-.12,1.39-.33,1.92-.63.52-.3.92-.71,1.21-1.24.28-.52.42-1.2.42-2.02v-.54Z"/>
      <path class="i" d="m300.91,206.53c-.12.12-.26.18-.42.18h-1.54c-.16,0-.3-.06-.42-.18-.12-.12-.18-.26-.18-.42v-9.99h-10.32v9.99c0,.16-.06.3-.18.42-.12.12-.26.18-.42.18h-1.54c-.16,0-.3-.06-.42-.18-.12-.12-.18-.26-.18-.42v-21.21c0-.16.06-.3.18-.42s.26-.18.42-.18h1.54c.16,0,.3.06.42.18.12.12.18.26.18.42v8.75h10.32v-8.75c0-.16.06-.3.18-.42.12-.12.26-.18.42-.18h1.54c.16,0,.3.06.42.18s.18.26.18.42v21.21c0,.16-.06.3-.18.42Z"/>
      <path class="i" d="m320.52,200.53c0,1.27-.24,2.31-.71,3.14-.47.82-1.12,1.48-1.93,1.96s-1.75.82-2.82,1.01c-1.07.19-2.18.29-3.35.29-1.01,0-1.93-.02-2.78-.06-.84-.04-1.56-.11-2.14-.21-.34-.04-.59-.14-.75-.3-.16-.16-.24-.43-.24-.81v-20.67c0-.16.05-.3.15-.41.1-.11.23-.17.39-.17h1.66c.16,0,.29.06.39.17.1.11.15.25.15.41v8.84c.46-.04.96-.07,1.49-.09.53-.02,1.09-.03,1.67-.03,1.17,0,2.28.1,3.35.29s2.01.53,2.82,1.03c.81.49,1.46,1.15,1.93,1.98.47.82.71,1.87.71,3.14v.51Zm-2.75-.54c0-.8-.14-1.47-.42-2.01-.28-.53-.68-.95-1.21-1.25s-1.16-.51-1.92-.63c-.75-.12-1.59-.18-2.52-.18-.52,0-1.05.01-1.58.03-.53.02-1.06.05-1.58.09v8.45c.5.02,1.03.04,1.57.08.54.03,1.07.04,1.6.04.93,0,1.77-.06,2.52-.18s1.39-.33,1.92-.63.93-.71,1.21-1.24c.28-.52.42-1.2.42-2.02v-.54Zm9.35,6.12c0,.16-.05.3-.15.42-.1.12-.23.18-.39.18h-1.66c-.16,0-.29-.06-.39-.18-.1-.12-.15-.26-.15-.42v-21.24c0-.16.05-.3.15-.41.1-.11.23-.17.39-.17h1.66c.16,0,.29.06.39.17.1.11.15.25.15.41v21.24Z"/>
      <path class="i" d="m347.68,206.46c-.06.17-.21.26-.45.26h-1.9c-.16,0-.28-.04-.36-.11-.08-.07-.17-.19-.27-.35l-5.52-8.78-5.4,8.78c-.2.3-.41.45-.63.45h-1.78c-.22,0-.37-.08-.44-.26-.07-.17-.05-.34.05-.5l6.7-10.65-6.64-10.29c-.1-.16-.12-.32-.06-.48s.2-.24.42-.24h1.96c.16,0,.28.03.35.08.07.05.14.13.2.23l5.43,8.6,5.25-8.6c.1-.14.19-.23.27-.26s.18-.04.3-.04h1.78c.2,0,.34.08.42.24s.07.32-.03.48l-6.49,10.35,6.79,10.59c.1.16.12.33.06.5Z"/>
      <path class="i" d="m358.78,184.87c0-.16.05-.3.15-.41s.23-.17.39-.17h1.58c.16,0,.29.06.39.17.1.11.15.25.15.41v17.65c0,.06.01.09.04.09l.08-.09,9.28-17.62c.12-.22.25-.38.39-.47.14-.09.42-.14.85-.14h1.66c.24,0,.45.08.62.24.17.16.26.36.26.6v21.21c0,.16-.05.26-.15.3-.1.04-.23.06-.4.06h-1.59c-.16,0-.29-.05-.4-.17-.1-.11-.15-.25-.15-.41v-17.62c0-.06-.01-.09-.03-.09-.04,0-.07.03-.09.09l-9.32,17.71c-.16.32-.48.48-.97.48h-1.87c-.24,0-.45-.08-.62-.26-.17-.17-.26-.38-.26-.62v-20.97Z"/>
      <path class="i" d="m394.92,206.53c-.12.12-.26.18-.42.18h-1.54c-.16,0-.3-.06-.42-.18s-.18-.26-.18-.42v-9.99h-10.32v9.99c0,.16-.06.3-.18.42s-.26.18-.42.18h-1.54c-.16,0-.3-.06-.42-.18-.12-.12-.18-.26-.18-.42v-21.21c0-.16.06-.3.18-.42.12-.12.26-.18.42-.18h1.54c.16,0,.3.06.42.18.12.12.18.26.18.42v8.75h10.32v-8.75c0-.16.06-.3.18-.42.12-.12.26-.18.42-.18h1.54c.16,0,.3.06.42.18.12.12.18.26.18.42v21.21c0,.16-.06.3-.18.42Z"/>
      <path class="i" d="m412.66,206.34c-.12.09-.26.16-.42.2-.32.06-.64.12-.97.17-.32.05-.67.09-1.06.12s-.81.06-1.3.08c-.48.02-1.05.03-1.69.03-.93,0-1.86-.14-2.81-.42-.95-.28-1.8-.78-2.56-1.49-.76-.71-1.39-1.67-1.87-2.87-.48-1.2-.72-2.71-.72-4.54v-4.19c0-1.85.24-3.37.72-4.57.48-1.2,1.11-2.15,1.87-2.85.76-.7,1.62-1.2,2.56-1.48.94-.28,1.88-.42,2.81-.42s1.89.06,2.76.17c.88.11,1.64.22,2.31.32.32.04.48.17.48.39v1.54c0,.1-.03.19-.09.26-.06.07-.18.1-.36.08-.28-.02-.62-.05-1.01-.08-.39-.03-.81-.06-1.27-.09-.45-.03-.92-.06-1.4-.08-.48-.02-.95-.03-1.39-.03-.75,0-1.43.12-2.07.35-.63.23-1.19.61-1.66,1.15-.47.53-.84,1.24-1.12,2.11s-.41,1.96-.41,3.24v4.19c0,1.27.14,2.34.41,3.21s.64,1.58,1.12,2.11,1.03.92,1.66,1.16c.63.24,1.32.36,2.07.36.42,0,.87,0,1.34-.03.47-.02.94-.04,1.39-.06.45-.02.87-.04,1.25-.08.38-.03.71-.05,1-.08.4-.04.6.12.6.48v1.24c0,.18-.06.32-.18.41Z"/>
      <path class="i" d="m430.07,186.62h-5.88v19.49c0,.16-.05.3-.15.42-.1.12-.23.18-.39.18h-1.66c-.16,0-.29-.06-.39-.18-.1-.12-.15-.26-.15-.42v-19.49h-5.88c-.16,0-.3-.04-.42-.12-.12-.08-.18-.2-.18-.36v-1.31c0-.16.06-.29.18-.39.12-.1.26-.15.42-.15h14.51c.38,0,.57.18.57.54v1.31c0,.32-.19.48-.57.48Z"/>
      <path class="i" d="m448.23,191.02c0,1.27-.21,2.33-.63,3.18-.42.86-1.01,1.55-1.76,2.08-.75.53-1.64.92-2.67,1.15-1.03.23-2.15.35-3.38.35-.48,0-1.01-.01-1.57-.04-.56-.03-1.05-.07-1.45-.11v8.48c0,.16-.05.3-.15.42-.1.12-.23.18-.39.18h-1.63c-.16,0-.29-.06-.39-.18-.1-.12-.15-.26-.15-.42v-21.03c0-.44.24-.69.72-.75.64-.08,1.42-.14,2.32-.18.91-.04,1.8-.06,2.69-.06,1.23,0,2.35.12,3.38.35,1.03.23,1.92.6,2.67,1.12s1.34,1.19,1.76,2.02c.42.83.63,1.86.63,3.06v.39Zm-2.75-.41c0-1.52-.46-2.61-1.39-3.25-.92-.64-2.36-.96-4.31-.96-.46,0-.99.01-1.58.03-.59.02-1.07.05-1.43.09v8.81c.18,0,.4.01.66.03.26.02.53.04.81.04.28.01.56.02.83.03.27.01.51.02.71.02,2.07,0,3.54-.35,4.4-1.05.86-.7,1.3-1.83,1.3-3.4v-.39Z"/>
      <path class="i" d="m459.52,202.34c-.3.79-.61,1.46-.94,2.04-.32.57-.7,1.05-1.15,1.43-.44.38-.97.66-1.57.84-.6.18-1.34.27-2.2.27-.36,0-.73-.02-1.12-.06-.38-.04-.64-.08-.78-.12-.18-.04-.33-.09-.45-.15-.12-.06-.18-.17-.18-.33v-1.39c0-.36.22-.52.66-.48.24.02.44.04.6.04.16.01.31.02.44.03.13.01.26.02.39.02h.44c.42,0,.78-.03,1.09-.09s.56-.19.79-.38c.22-.19.43-.45.62-.78.19-.33.39-.77.59-1.31l1.09-2.84h-.15c-.56,0-1-.13-1.3-.39-.3-.26-.59-.74-.88-1.45l-4.56-12.19c-.1-.22-.11-.4-.03-.54.08-.14.23-.21.45-.21h1.84c.1,0,.21.04.32.14.11.09.19.19.23.29l4.25,11.31c.1.26.19.42.26.48.07.06.19.09.35.09h.18l4.62-11.89c.04-.1.11-.2.2-.29.09-.09.2-.14.32-.14h1.87c.22,0,.37.07.45.21.08.14.07.32-.03.54l-6.7,17.29Z"/>
      <path class="i" d="m487.61,206.53c-.12.12-.26.18-.42.18h-1.46c-.16,0-.3-.06-.42-.18-.12-.12-.18-.26-.18-.42v-17.89c0-.14-.03-.15-.09-.03l-4.32,8.93c-.16.3-.33.52-.51.66-.18.14-.46.21-.85.21h-1.39c-.38,0-.67-.07-.85-.21-.18-.14-.35-.36-.51-.66l-4.33-8.93c-.06-.12-.09-.11-.09.03v17.89c0,.16-.06.3-.18.42-.12.12-.26.18-.42.18h-1.46c-.16,0-.3-.06-.42-.18-.12-.12-.18-.26-.18-.42v-20.94c0-.24.08-.45.25-.62.17-.17.37-.26.61-.26h1.94c.28,0,.49.04.62.11.13.07.25.21.35.41l4.99,10.35c.1.22.22.33.36.33s.26-.11.36-.33l4.99-10.35c.1-.2.22-.34.35-.41s.34-.11.62-.11h1.94c.24,0,.44.09.61.26.17.17.25.38.25.62v20.94c0,.16-.06.3-.18.42Z"/>
      <path class="i" d="m505.03,206.62c-.05.08-.13.13-.23.15-.28.04-.66.06-1.15.08-.48,0-1,.03-1.55.04-.55.02-1.11.03-1.67.03h-1.51c-2.13,0-3.74-.43-4.81-1.3-1.08-.86-1.61-2.3-1.61-4.31v-11.62c0-2.01.54-3.45,1.61-4.31,1.08-.86,2.68-1.3,4.81-1.3,1.47,0,2.66.02,3.56.05s1.68.08,2.32.14c.1.02.18.07.23.15.05.08.08.17.08.27v1.51c0,.24-.11.36-.33.36h-5.82c-.8,0-1.45.06-1.93.17s-.86.29-1.12.54c-.26.25-.44.58-.53.98s-.14.88-.14,1.45v4.19h9.26c.16,0,.3.06.42.18.12.12.18.26.18.42v1.13c0,.16-.06.3-.18.42-.12.12-.26.18-.42.18h-9.26v5.09c0,.59.04,1.08.14,1.47.09.39.27.72.53.97.26.25.63.43,1.12.54.48.11,1.13.17,1.93.17h5.82c.22,0,.33.12.33.36v1.54c0,.1-.03.19-.08.27Z"/>
      <path class="i" d="m524.74,206.53c-.12.12-.26.18-.42.18h-1.54c-.16,0-.3-.06-.42-.18s-.18-.26-.18-.42v-9.99h-10.32v9.99c0,.16-.06.3-.18.42s-.26.18-.42.18h-1.54c-.16,0-.3-.06-.42-.18-.12-.12-.18-.26-.18-.42v-21.21c0-.16.06-.3.18-.42.12-.12.26-.18.42-.18h1.54c.16,0,.3.06.42.18.12.12.18.26.18.42v8.75h10.32v-8.75c0-.16.06-.3.18-.42.12-.12.26-.18.42-.18h1.54c.16,0,.3.06.42.18.12.12.18.26.18.42v21.21c0,.16-.06.3-.18.42Z"/>
      <path class="i" d="m543.45,186.62h-5.88v19.49c0,.16-.05.3-.15.42-.1.12-.23.18-.39.18h-1.66c-.16,0-.29-.06-.39-.18-.1-.12-.15-.26-.15-.42v-19.49h-5.88c-.16,0-.3-.04-.42-.12-.12-.08-.18-.2-.18-.36v-1.31c0-.16.06-.29.18-.39.12-.1.26-.15.42-.15h14.51c.38,0,.57.18.57.54v1.31c0,.32-.19.48-.57.48Z"/>
      <path class="i" d="m563.24,197.45c0,1.67-.2,3.1-.6,4.3-.4,1.2-.97,2.18-1.69,2.94-.73.76-1.59,1.33-2.58,1.69-1,.36-2.09.54-3.28.54s-2.28-.18-3.28-.54c-1-.36-1.86-.92-2.58-1.69-.73-.76-1.29-1.74-1.71-2.94-.41-1.2-.62-2.63-.62-4.3v-3.89c0-1.67.21-3.1.62-4.3s.98-2.18,1.71-2.94c.72-.76,1.59-1.33,2.58-1.69,1-.36,2.09-.54,3.28-.54s2.28.18,3.28.54c1,.36,1.86.92,2.58,1.69.72.76,1.29,1.75,1.69,2.94s.6,2.63.6,4.3v3.89Zm-2.81-3.89c0-1.27-.12-2.34-.38-3.23-.25-.89-.61-1.61-1.07-2.17-.46-.56-1.02-.97-1.68-1.22-.66-.25-1.4-.38-2.23-.38s-1.56.13-2.23.38c-.66.25-1.23.66-1.7,1.22-.47.56-.83,1.29-1.08,2.17-.25.88-.38,1.96-.38,3.23v3.89c0,1.27.12,2.34.38,3.23.25.89.61,1.61,1.07,2.17.46.56,1.03.97,1.7,1.22s1.42.38,2.24.38,1.57-.12,2.23-.38c.66-.25,1.22-.66,1.68-1.22.46-.56.82-1.29,1.07-2.17.25-.88.38-1.96.38-3.23v-3.89Z"/>
      <path class="i" d="m582.09,200.52c0,1.27-.24,2.32-.71,3.14-.47.83-1.12,1.48-1.93,1.96s-1.75.82-2.82,1.01-2.18.29-3.35.29c-1.01,0-1.93-.02-2.78-.06-.84-.04-1.56-.11-2.14-.21-.34-.04-.59-.14-.75-.3-.16-.16-.24-.43-.24-.81v-20.09c0-.68.32-1.06.96-1.12.5-.06,1.18-.12,2.04-.17.85-.05,1.77-.08,2.76-.08,1.21,0,2.34.09,3.41.27,1.07.18,2,.49,2.81.93.8.44,1.44,1.04,1.92,1.78s.71,1.69.71,2.83v.48c0,1.12-.28,2.09-.84,2.91-.56.81-1.36,1.42-2.38,1.82,1.04.36,1.87.98,2.46,1.84.59.87.89,1.88.89,3.05v.51Zm-2.87-10.61c0-.72-.15-1.31-.44-1.76-.29-.45-.7-.81-1.23-1.07-.53-.26-1.17-.44-1.91-.53-.74-.09-1.57-.14-2.5-.14-.52,0-1.04.01-1.56.03-.52.02-.99.04-1.41.06v7.48h4.63c.86,0,1.58-.1,2.15-.29.57-.19,1.03-.45,1.37-.78s.58-.71.71-1.15.2-.89.2-1.37v-.48Zm.12,10.09c0-.5-.07-.99-.21-1.45-.14-.46-.39-.87-.74-1.23-.35-.35-.82-.64-1.4-.85-.58-.21-1.31-.32-2.2-.32h-4.63v8.33c.5.02,1.02.04,1.55.08s1.06.04,1.58.04c.92,0,1.76-.06,2.51-.18.75-.12,1.39-.33,1.91-.64s.92-.72,1.2-1.24c.28-.52.42-1.2.42-2.03v-.51Z"/>
    </g>
  </g>
  <g id="c" data-name="Слой 1">
    <g>
      <rect class="g" x="265.52" y="19.54" width="319.08" height="150.75"/>
      <polygon class="h" points="542.74 35.12 521.6 61.54 563.88 61.54 542.74 35.12"/>
      <rect class="f" x="20.43" y="19.55" width="239.18" height="150.75"/>
      <path class="d" d="m39.25,138.65V55.04c0-.98.34-1.83,1.02-2.51s1.49-1.02,2.43-1.02h7.77c1.12,0,1.95.14,2.49.44.52.3.98.82,1.37,1.61l19.93,41.38c.4.9.86,1.33,1.43,1.29.54,0,1.02-.42,1.47-1.29l19.93-41.38c.4-.78.84-1.31,1.39-1.61.52-.3,1.33-.44,2.41-.44h7.77c.98,0,1.81.34,2.49,1.02.68.68,1.02,1.53,1.02,2.51v83.61c0,.62-.24,1.19-.72,1.67-.48.5-1.04.74-1.67.74h-5.83c-.62,0-1.19-.24-1.67-.74-.48-.48-.72-1.04-.72-1.67v-71.44c0-.24-.04-.38-.12-.4-.08,0-.18.08-.3.28l-17.22,35.58c-.62,1.21-1.31,2.07-2.05,2.61-.74.54-1.89.82-3.42.82h-5.54c-1.55,0-2.67-.28-3.39-.84-.72-.56-1.41-1.43-2.03-2.59l-17.28-35.58c-.08-.16-.16-.26-.24-.28-.08,0-.12.12-.12.4v71.44c0,.62-.24,1.19-.72,1.67-.48.5-1.04.74-1.67.74h-5.83c-.62,0-1.19-.24-1.67-.74-.48-.48-.72-1.04-.72-1.67h0Zm90.48-21.84v-39.64c0-.62.24-1.19.74-1.67.48-.5,1.04-.74,1.67-.74h5.85c.62,0,1.16.24,1.65.7.46.48.7,1.04.7,1.71v39.54c0,3.05.26,5.6.8,7.65.52,2.05,1.33,3.68,2.41,4.88,1.06,1.19,2.43,2.05,4.08,2.59,1.65.52,3.66.78,6.01.78,2.59,0,5.24-.44,7.98-1.33,2.71-.88,5.46-2.01,8.26-3.37v-50.74c0-.62.24-1.19.74-1.67.48-.5,1.04-.74,1.67-.74h5.97c.62,0,1.14.24,1.59.7.42.48.64,1.04.64,1.71v61.49c0,.62-.22,1.19-.64,1.67-.44.5-.96.74-1.59.74h-6.09c-.62,0-1.17-.24-1.61-.74-.46-.5-.68-1.08-.68-1.73v-2.33c-3.37,1.87-6.51,3.27-9.38,4.22-2.87.94-6.13,1.41-9.74,1.41-7.29,0-12.62-2.17-15.97-6.51-3.35-4.34-5.04-10.53-5.04-18.58h0Zm64.81,17.6v-2.29c0-1.69.2-3.05.62-4.14.4-1.08,1.13-2.31,2.13-3.68l31.14-38.67c.3-.48.46-.84.46-1.13,0-.54-.4-.82-1.19-.82h-29.29c-.6,0-1.14-.24-1.61-.7-.46-.48-.7-1.04-.7-1.73v-4.06c0-.64.24-1.21.74-1.69.48-.5,1.04-.74,1.67-.74h35.42c2.47,0,4.22.52,5.24,1.57,1.02,1.04,1.53,2.49,1.53,4.34v2.89c0,1.29-.22,2.43-.68,3.44-.46,1-1.16,2.09-2.11,3.21l-31.82,39.7c-.38.38-.58.82-.58,1.29,0,.62.32.94.94.94h31.94c.62,0,1.19.24,1.69.74.5.48.74,1.04.74,1.67v4.1c0,.62-.24,1.19-.74,1.67-.48.5-1.04.74-1.67.74h-36.5c-2.59,0-4.48-.68-5.62-2.05-1.17-1.39-1.75-2.91-1.75-4.6h0Zm86.24-75.53v-5.22c0-.62.24-1.12.7-1.55.48-.4,1.04-.6,1.71-.6h57.86c1.53,0,2.29.72,2.29,2.15v5.22c0,1.27-.76,1.91-2.29,1.91h-23.5v77.86c0,.62-.2,1.19-.58,1.67-.4.5-.9.74-1.55.74h-6.65c-.64,0-1.16-.24-1.57-.74-.42-.48-.62-1.04-.62-1.67V60.79h-23.38c-.62,0-1.19-.16-1.69-.46-.48-.32-.72-.8-.72-1.45h0Zm69.43,79.77v-61.47c0-.62.22-1.19.68-1.67.44-.5.98-.74,1.61-.74h5.66c.62,0,1.17.24,1.63.72.44.48.66,1.04.66,1.73v2.57c3.07-2.09,5.97-3.6,8.74-4.5,2.75-.9,5.52-1.37,8.26-1.37,1.69,0,2.53.74,2.53,2.21v4.98c0,1.39-.84,2.09-2.53,2.09-2.81,0-5.52.38-8.14,1.14-2.61.76-5.44,2.07-8.5,3.9v50.4c0,.62-.24,1.19-.7,1.67-.48.5-1.02.74-1.65.74h-5.97c-.62,0-1.17-.24-1.61-.74-.46-.48-.68-1.04-.68-1.67h0Zm35.56-16.23v-1.47c0-3.21.5-6.05,1.53-8.52,1.02-2.45,2.67-4.5,4.94-6.15,2.29-1.65,5.28-2.87,8.98-3.68,3.72-.8,8.26-1.21,13.64-1.21h8.88v-4.86c0-5.1-.96-8.66-2.89-10.67-1.93-2.03-5.26-3.03-10.02-3.03-3.92,0-7.37.12-10.37.34-2.97.22-5.66.46-8.06.74h-.6c-.54,0-1.04-.12-1.49-.36-.44-.22-.66-.76-.66-1.59v-4.18c0-1.29.84-2.05,2.53-2.29,2.47-.38,5.16-.76,8.12-1.08,2.93-.34,6.45-.5,10.53-.5,8.36,0,14.36,2.01,18.02,6.03,3.68,4.04,5.5,9.56,5.5,16.63v42.09c0,.62-.24,1.19-.72,1.67-.5.5-1.04.74-1.69.74h-5.56c-.62,0-1.17-.24-1.63-.74-.48-.48-.7-1.04-.7-1.69v-2.65c-2.91,1.69-5.91,3.09-8.98,4.22-3.05,1.13-6.29,1.69-9.66,1.69-2.59,0-5.04-.3-7.41-.88-2.35-.58-4.42-1.65-6.23-3.17-1.79-1.53-3.25-3.56-4.34-6.05-1.1-2.49-1.65-5.6-1.65-9.38h0Zm10.61-.14c0,4.36.96,7.27,2.89,8.74,1.93,1.47,4.66,2.21,8.2,2.21,2.83,0,5.52-.4,8.1-1.21,2.59-.8,5.3-2.01,8.18-3.62v-19.41h-8.9c-3.62,0-6.63.22-9.06.68-2.41.44-4.32,1.13-5.69,2.05-1.39.92-2.33,2.13-2.89,3.62-.54,1.49-.82,3.31-.82,5.46v1.47h0Zm52.13-10.14v-8.66c0-9.5,2.17-16.79,6.53-21.9,4.36-5.1,10.95-7.65,19.77-7.65,1.85,0,4.08.1,6.69.32,2.61.22,5.08.52,7.39.9v-22.32c0-.62.22-1.17.68-1.61.44-.46.98-.68,1.61-.68h6.15c.62,0,1.14.22,1.55.64.42.44.62.98.62,1.65v84.25c0,.78-.14,1.41-.44,1.85-.3.44-.98.76-2.09.96-3.76.7-7.47,1.23-11.15,1.53-3.66.32-7.33.48-11.01.48-4.52,0-8.42-.7-11.71-2.09-3.29-1.39-6.03-3.37-8.18-5.95s-3.76-5.71-4.82-9.42c-1.06-3.7-1.59-7.81-1.59-12.31h0Zm10.61-.04c0,6.59,1.12,11.65,3.35,15.21,2.25,3.56,6.35,5.32,12.33,5.32,2.07,0,4.42-.08,7.03-.26,2.61-.18,4.96-.34,7.05-.5v-47.83c-2.01-.4-4.38-.62-7.11-.7-2.73-.08-5.06-.12-6.97-.12-2.99,0-5.48.44-7.49,1.33-2.01.88-3.62,2.19-4.84,3.92-1.21,1.73-2.07,3.84-2.59,6.37-.5,2.53-.76,5.4-.76,8.62v8.66h0Zm54.54.9v-10.89c0-8.66,2.29-15.53,6.87-20.59,4.6-5.06,11.23-7.59,19.89-7.59,4.4,0,8.26.66,11.53,2.01,3.27,1.33,6.01,3.21,8.2,5.67,2.19,2.45,3.84,5.42,4.96,8.92,1.14,3.5,1.71,7.35,1.71,11.59v6.53c0,1.77-.76,2.65-2.29,2.65h-40.26v1.71c0,7.13,1.41,12.17,4.22,15.17,2.81,2.97,6.97,4.46,12.52,4.46,3.52,0,7.27-.12,11.23-.34,3.98-.22,7.37-.52,10.18-.86h.58c.46,0,.88.12,1.29.34.42.24.62.68.62,1.35v4.02c0,.78-.18,1.39-.5,1.85-.34.44-.96.76-1.91.94-3.44.62-6.85,1.1-10.25,1.47-3.39.34-7.15.52-11.25.52-3.46,0-6.81-.46-10.1-1.39-3.29-.92-6.21-2.47-8.74-4.68-2.53-2.19-4.58-5.14-6.15-8.86-1.57-3.7-2.35-8.36-2.35-13.98h0Zm10.61-9.78h31.94v-1.12c0-6.83-1.31-11.67-3.92-14.56-2.61-2.87-6.57-4.32-11.87-4.32s-9.22,1.53-11.99,4.6c-2.77,3.05-4.16,7.81-4.16,14.28v1.12Z"/>
    </g>
  </g>
</svg>