<svg width="168" height="48" viewBox="0 0 168 48" fill="none" xmlns="http://www.w3.org/2000/svg">
<path d="M1.58436 0.351562C23.5203 0.35756 45.4561 0.359195 67.3915 0.356469C68.3462 0.35974 69.3003 0.381276 70.2538 0.421075C69.7566 0.446154 69.2591 0.465508 68.7613 0.479138C68.7613 0.479138 46.9603 0.479138 3.35816 0.479138C2.48584 0.45733 1.61353 0.435795 0.741211 0.414532C1.02362 0.405264 1.30467 0.384274 1.58436 0.351562Z" fill="#D48272"/>
<path d="M75.0586 0.33897C75.1425 0.372227 75.2292 0.387219 75.3186 0.383948C75.3475 0.383403 75.3492 0.38831 75.3236 0.398668C75.2145 0.442284 75.1068 0.434924 75.0005 0.376588C74.9907 0.336789 75.0101 0.324249 75.0586 0.33897Z" fill="#B5B0B0"/>
<path d="M75.0584 0.338867C77.4889 0.354678 80.392 0.360402 83.7679 0.356041C87.5854 0.351134 115.554 0.352225 167.674 0.359312L167.63 0.43782C167.1 0.46508 166.569 0.47871 166.038 0.47871C136.359 0.47871 106.68 0.475711 77.0006 0.469714C76.1708 0.469714 75.503 0.459083 74.997 0.43782C74.9747 0.43673 74.9553 0.4231 74.939 0.396931C74.9662 0.404563 74.9867 0.397748 75.0003 0.376486C75.1066 0.434822 75.2143 0.442182 75.3233 0.398566C75.349 0.388207 75.3473 0.3833 75.3184 0.383846C75.229 0.387117 75.1423 0.372124 75.0584 0.338867Z" fill="#252525"/>
<path d="M70.055 0.400108C70.2903 0.399698 70.4811 0.39314 70.4811 0.385462C70.4811 0.377784 70.2903 0.371893 70.055 0.372303C69.8197 0.372714 69.6289 0.379271 69.6289 0.386949C69.6289 0.394628 69.8197 0.400519 70.055 0.400108Z" fill="white"/>
<path d="M167.674 0.359408C167.738 0.358317 167.773 0.384487 167.776 0.437916C167.818 1.1205 167.825 1.93148 167.796 2.87086C167.806 2.95264 167.811 3.03442 167.811 3.1162C167.815 29.9671 167.817 43.3926 167.817 43.3926C167.824 44.7812 167.817 46.1701 167.797 47.5593C167.797 47.5985 167.788 47.6263 167.772 47.6427C167.748 47.6656 167.716 47.6721 167.674 47.6623C167.707 47.1182 167.707 46.5741 167.674 46.03C167.682 45.9411 167.689 45.8525 167.694 45.7642C167.694 30.7168 167.693 15.6694 167.692 0.62192C167.692 0.55268 167.671 0.491345 167.629 0.437916L167.674 0.359408Z" fill="#252525"/>
<path d="M74.9383 0.39683C74.9547 0.423 74.974 0.43663 74.9964 0.43772C75.5023 0.458983 76.1702 0.469614 77 0.469614C106.679 0.475611 136.359 0.47861 166.037 0.47861C166.568 0.47861 167.099 0.46498 167.629 0.43772C167.671 0.491149 167.692 0.552484 167.692 0.621724C167.693 15.6692 167.693 30.7166 167.693 45.764C167.689 45.8523 167.682 45.9409 167.673 46.0298C167.707 46.5739 167.707 47.118 167.673 47.6621L73.5006 47.6605C73.4852 47.6605 73.4705 47.6544 73.4596 47.6435C73.4487 47.6326 73.4426 47.6178 73.4426 47.6024C73.4426 38.0489 73.4401 28.5222 73.4352 19.0221C73.4319 12.8205 73.4412 6.63742 73.463 0.472885C73.463 0.462399 73.4651 0.452016 73.4693 0.442338C73.4734 0.43266 73.4794 0.423879 73.487 0.416502C73.4946 0.409125 73.5036 0.403299 73.5136 0.399361C73.5235 0.395423 73.5341 0.393451 73.5448 0.393559L74.9383 0.39683ZM155.091 11.8198L150.878 17.0831C150.861 17.1049 150.866 17.1158 150.893 17.1158L159.312 17.1207C159.376 17.1207 159.388 17.0957 159.348 17.0455L155.147 11.8198C155.144 11.8155 155.139 11.8121 155.135 11.8097C155.13 11.8074 155.124 11.8062 155.119 11.8062C155.114 11.8062 155.108 11.8074 155.104 11.8097C155.099 11.8121 155.095 11.8155 155.091 11.8198ZM139.745 19.0393C139.572 18.9842 139.395 18.966 139.214 18.9845L138.703 18.978L138.645 18.9125C138.638 18.9033 138.627 18.8957 138.615 18.8904C138.603 18.885 138.589 18.882 138.574 18.8815L137.803 18.8553C137.713 18.84 137.624 18.8207 137.537 18.7972C137.03 18.8168 136.526 18.8635 136.024 18.9371C135.403 19.0047 134.94 19.0807 134.634 19.1652C132.563 19.7388 131.196 21.0134 130.532 22.9892C130.461 23.2013 130.384 23.4897 130.301 23.8545C130.21 24.2585 130.15 24.5507 130.121 24.7311C130.061 25.1019 130.031 25.4751 130.032 25.8507C130.033 26.8113 130.033 27.772 130.034 28.7326C130.034 29.3018 130.055 29.7377 130.096 30.0403C130.148 30.4175 130.229 30.8474 130.341 31.3299C130.768 33.1831 131.756 34.5253 133.304 35.3568C133.76 35.6021 134.269 35.7943 134.83 35.9333C135.397 36.074 135.972 36.156 136.557 36.1795C136.845 36.1915 137.39 36.1876 138.192 36.168C139.011 36.1484 139.7 36.0895 140.256 35.9914C141.06 35.8496 141.864 35.7133 142.669 35.5825C143.043 35.4865 143.421 35.3668 143.804 35.2235C143.816 35.2189 143.827 35.2114 143.836 35.2015C143.844 35.1916 143.85 35.1797 143.852 35.167C143.883 35.0095 143.899 34.8549 143.899 34.7033C143.897 27.6839 143.899 20.6645 143.906 13.6451C143.906 13.5383 143.896 13.402 143.875 13.2362C143.849 13.0312 143.733 12.9287 143.528 12.9287C142.755 12.9293 141.982 12.9295 141.209 12.9295C140.909 12.9295 140.751 12.9312 140.736 12.9344C140.532 12.9764 140.433 13.1315 140.44 13.3998C140.438 15.2823 140.439 17.1646 140.445 19.0466C140.445 19.0524 140.444 19.0581 140.442 19.0634C140.44 19.0687 140.437 19.0735 140.433 19.0774C140.429 19.0813 140.425 19.0843 140.42 19.0862C140.415 19.0881 140.41 19.0888 140.404 19.0884L139.745 19.0393ZM82.6632 13.6214C82.636 13.6061 82.6117 13.6048 82.5904 13.6173C82.5816 13.6222 82.5742 13.6313 82.569 13.6436C82.5638 13.6559 82.561 13.6708 82.561 13.6868L82.5643 16.3029C82.5648 16.4044 82.6182 16.4373 82.7245 16.4019L82.7385 16.4093C82.7526 16.4169 82.7619 16.4207 82.7663 16.4207L88.6127 16.4493V35.4328C88.6127 35.5075 88.6168 35.5822 88.6249 35.6569C88.6397 35.7845 88.6833 35.8335 88.7558 35.8041L88.7762 35.8106C88.7381 35.8875 88.7517 35.9467 88.8171 35.9881C89.6633 36.0393 90.5083 36.0257 91.3523 35.9472C91.6423 35.9696 91.9002 35.9491 92.1259 35.8859C92.2235 35.8586 92.2723 35.7943 92.2723 35.6929L92.2756 18.8177C92.3383 18.6525 92.3372 18.4878 92.2723 18.3237V16.5246C92.2723 16.5037 92.2806 16.4838 92.2953 16.4691C92.31 16.4543 92.33 16.4461 92.3508 16.4461C94.3364 16.4531 96.3138 16.4463 98.2831 16.4256C98.3033 16.4256 98.3112 16.412 98.3068 16.3847C98.4349 16.3367 98.502 16.2686 98.508 16.1803C98.5353 15.7817 98.5423 15.0299 98.5293 13.9248C98.5287 13.8594 98.5156 13.813 98.49 13.7858C98.4518 13.7449 98.3976 13.7321 98.3273 13.7473L98.3003 13.6247C98.3194 13.4791 98.2591 13.4189 98.1195 13.4439C97.2745 13.4058 96.4294 13.4047 95.5844 13.4407C94.7322 13.4456 93.8804 13.4581 93.0288 13.4783H87.754C87.6111 13.4581 87.468 13.4388 87.3246 13.4202C86.7794 13.4202 86.2343 13.4202 85.6891 13.4202C85.6373 13.4202 85.6089 13.4338 85.604 13.4611L84.2579 13.4439C83.8343 13.4052 83.4118 13.4178 82.9903 13.4816C82.86 13.4832 82.751 13.5298 82.6632 13.6214ZM154.793 18.8005C154.671 18.7901 154.553 18.8032 154.438 18.8397C154.419 18.8463 154.393 18.8496 154.359 18.8496C154.297 18.8496 154.264 18.8855 154.261 18.9575C152.809 19.0284 151.556 19.5109 150.501 20.405C150.086 20.7567 149.722 21.1598 149.41 21.6145C148.875 22.3942 148.521 23.2618 148.346 24.2176C148.195 25.0495 148.108 25.6484 148.087 26.0143C148.043 26.7824 148.042 27.7485 148.086 28.9125C148.099 29.2467 148.129 29.5758 148.175 29.8996C148.23 30.2883 148.283 30.6152 148.332 30.8801C148.422 31.3632 148.569 31.8345 148.771 32.2941C148.967 32.7374 149.22 33.1561 149.53 33.5502C150.431 34.6957 151.604 35.48 153.051 35.903C153.645 36.077 154.273 36.1677 154.936 36.1754C156.173 36.1901 157.363 36.1598 158.507 36.0846C158.906 36.0584 159.37 35.9985 159.9 35.9047C160.362 35.8224 160.825 35.7474 161.289 35.6798C161.416 35.6547 161.53 35.6037 161.63 35.5269C161.64 35.5191 161.649 35.5092 161.655 35.4976C161.661 35.4861 161.664 35.4732 161.666 35.4598C161.719 34.6753 161.725 33.8904 161.683 33.1054C161.689 33.0716 161.684 33.0421 161.669 33.017C161.663 33.0071 161.653 32.999 161.642 32.9935C161.63 32.9881 161.616 32.9855 161.602 32.986L160.906 33.0097L160.216 32.9933C160.197 32.9928 160.195 32.9988 160.21 33.0113C160.245 33.0386 160.245 33.0767 160.211 33.1258L159.27 33.1324L158.493 33.1937C158.349 33.1801 158.206 33.1861 158.064 33.2117C157.945 33.2329 157.945 33.2504 158.066 33.264C158.089 33.2662 158.09 33.2678 158.067 33.2689L157.307 33.3098C156.302 33.348 155.614 33.3559 155.243 33.3335C154.605 33.2948 154.055 33.1705 153.591 32.9606C153.05 32.7153 152.602 32.3056 152.246 31.7315C151.787 30.9905 151.561 30.182 151.569 29.3059C151.571 29.1085 151.576 28.8864 151.586 28.6394C151.587 28.6262 151.592 28.6138 151.601 28.6046C151.611 28.5954 151.623 28.5903 151.636 28.5903C154.913 28.5903 158.173 28.5903 161.417 28.5903C161.639 28.5903 161.824 28.5865 161.973 28.5789C162.089 28.5729 162.173 28.5421 162.224 28.4865C162.292 28.4123 162.318 28.3158 162.301 28.197C162.335 27.4539 162.335 26.711 162.301 25.9685C162.251 24.8792 162.068 23.9147 161.751 23.0751C161.074 21.276 159.843 20.022 158.059 19.3132C157.586 19.1257 157.035 19.0139 156.408 18.978C156.188 18.8073 155.936 18.7482 155.651 18.8005H154.793ZM116.602 19.0188C116.042 19.0772 115.484 19.1396 114.925 19.2061C114.599 19.2268 114.299 19.3233 114.025 19.4956C114.002 19.5103 113.986 19.5326 113.98 19.5578C113.959 19.6565 113.947 19.7982 113.944 19.983C113.934 20.5827 113.94 21.15 113.96 21.6849C113.965 21.7906 114.02 21.8405 114.125 21.8345C115.325 21.7631 116.476 21.7031 117.576 21.6546C117.58 21.6541 117.817 21.6399 118.286 21.6121C118.79 21.5815 119.294 21.5867 119.796 21.6276C120.412 21.6778 120.841 21.7467 121.082 21.8345C121.512 21.991 121.863 22.2753 122.137 22.6875C122.227 22.8238 122.29 22.9718 122.327 23.1315C122.418 23.5214 122.464 23.9166 122.464 24.3173C122.463 24.8833 122.473 25.4887 122.494 26.1337C122.494 26.144 122.492 26.1544 122.489 26.164C122.485 26.1737 122.479 26.1825 122.472 26.1899C122.465 26.1973 122.456 26.2032 122.446 26.2072C122.437 26.2111 122.427 26.2131 122.416 26.213C121.806 26.207 121.187 26.1994 120.559 26.1901C119.931 26.1803 119.433 26.1874 119.067 26.2114C118.6 26.2419 118.104 26.2904 117.578 26.3569C116.614 26.479 115.728 26.7721 114.92 27.236C114.335 27.5719 113.869 28.0424 113.521 28.6476C113.425 28.816 113.329 29.033 113.235 29.2985C113.109 29.6524 113.039 29.8797 113.024 29.9806C112.914 30.7073 112.893 31.4352 112.961 32.1641C112.985 32.4231 113.027 32.6689 113.086 32.9017C113.151 33.1585 113.227 33.3962 113.315 33.6149C113.701 34.5728 114.357 35.2652 115.283 35.6921C115.418 35.7542 115.596 35.8207 115.814 35.8916C116.086 35.9788 116.268 36.0309 116.361 36.0478C117.184 36.1977 118.004 36.2242 118.821 36.1271C119.335 36.0661 119.862 35.9322 120.4 35.7256C121.179 35.4268 121.918 35.046 122.619 34.5831C122.623 34.5807 122.627 34.5793 122.631 34.5789C122.635 34.5786 122.64 34.5793 122.644 34.5812C122.648 34.583 122.651 34.5857 122.654 34.5892C122.656 34.5927 122.658 34.5968 122.658 34.6011C122.708 35.0051 122.727 35.305 122.715 35.5007C122.696 35.8076 122.839 35.9507 123.144 35.93C123.969 35.9567 124.794 35.9567 125.618 35.93C125.803 35.924 125.898 35.815 125.904 35.6029C125.904 32.226 125.904 28.8487 125.904 25.4712C125.904 24.5368 125.903 24.0537 125.902 24.0221C125.874 23.5587 125.798 23.0795 125.674 22.5844C125.349 21.289 124.62 20.3281 123.487 19.7017C122.72 19.2781 121.829 19.0322 120.813 18.9641C120.722 18.9859 120.668 18.966 120.651 18.9044C120.647 18.891 120.64 18.8791 120.632 18.8705C120.624 18.8618 120.614 18.8568 120.605 18.8561L119.955 18.8005C119.315 18.7716 118.811 18.7841 118.442 18.8381C118.048 18.8954 117.714 18.9103 117.439 18.8831C117.413 18.881 117.387 18.886 117.364 18.8978C117.215 18.972 117.057 18.9987 116.889 18.978C116.788 18.9654 116.692 18.979 116.602 19.0188ZM102.127 35.9129C102.207 35.9505 102.255 35.9698 102.27 35.9709C102.713 35.9987 103.156 35.9976 103.599 35.9676H103.803C104.239 36.0036 104.676 36.0121 105.112 35.993C105.126 35.9925 105.14 35.9893 105.152 35.9836C105.164 35.9778 105.173 35.9698 105.18 35.9603C105.205 35.9227 105.202 35.8796 105.173 35.8311C105.19 35.8153 105.211 35.8063 105.234 35.8041C105.283 35.809 105.309 35.7896 105.312 35.746C105.365 35.0509 105.367 34.3558 105.319 33.6606L105.321 22.9115C105.321 22.8992 105.324 22.8871 105.331 22.8766C105.337 22.8661 105.346 22.8575 105.357 22.8518C105.756 22.6447 106.279 22.4228 106.926 22.1862C107.862 21.8438 108.784 21.6821 109.691 21.7012C109.864 21.705 110.003 21.6549 110.108 21.5507C110.184 21.4766 110.225 21.3596 110.231 21.1999C110.257 20.5162 110.253 19.8328 110.22 19.1497C110.219 19.122 110.21 19.0961 110.194 19.0753C110.108 18.9581 109.999 18.8905 109.867 18.8725C109.839 18.8686 109.708 18.8744 109.473 18.8896C107.87 18.9949 106.464 19.5733 105.257 20.625C105.216 20.661 105.195 20.6517 105.193 20.5972L105.153 19.3272C105.148 19.1996 105.083 19.1317 104.955 19.1235C104.092 19.0695 103.225 19.0616 102.353 19.0998C102.351 19.1004 102.295 19.0976 102.186 19.0916C102.058 19.0851 101.97 19.1437 101.922 19.2675C101.896 19.3378 101.889 19.5218 101.902 19.8195C101.871 25.0741 101.87 30.3284 101.899 35.5825C101.899 35.7531 101.975 35.8632 102.127 35.9129Z" fill="#252525"/>
<path d="M0.0915927 0.403337L0.740922 0.413968C1.61324 0.435231 2.48555 0.456766 3.35787 0.478574C46.96 0.478574 68.761 0.478574 68.761 0.478574C69.2588 0.464944 69.7563 0.44559 70.2535 0.420511L71.526 0.412333C71.5369 0.412331 71.5474 0.416612 71.5552 0.424258C71.563 0.431904 71.5675 0.442304 71.5677 0.453223C71.5775 1.41877 71.5824 3.08325 71.5824 5.44668C71.5824 19.4648 71.5824 33.5142 71.5824 47.595C71.5824 47.6043 71.5806 47.6134 71.5771 47.6219C71.5735 47.6305 71.5684 47.6382 71.5618 47.6448C71.5553 47.6513 71.5476 47.6565 71.539 47.66C71.5305 47.6635 71.5213 47.6654 71.5121 47.6654H0.044161C0.0383617 47.6654 0.0326191 47.6642 0.0272613 47.6619C0.0219034 47.6597 0.0170348 47.6564 0.012934 47.6522C0.00883331 47.648 0.0055804 47.643 0.0033611 47.6376C0.00114181 47.6321 0 47.6263 0 47.6204L0.00981314 0.482663C0.0098086 0.472107 0.0119327 0.461656 0.0160612 0.451924C0.0201896 0.442191 0.0262398 0.433372 0.0338562 0.425985C0.0414726 0.418597 0.050502 0.412788 0.0604162 0.4089C0.0703305 0.405011 0.0809297 0.403119 0.0915927 0.403337ZM2.21295 1.08865L0.767092 1.0911C0.738388 1.09132 0.710933 1.10279 0.690712 1.12301C0.670491 1.14323 0.659143 1.17056 0.659143 1.19905C0.680405 5.48212 0.68722 9.78754 0.679588 14.1153C0.679588 24.5967 0.679588 35.0781 0.679588 45.5595C0.679588 45.6953 0.668139 46.1503 0.64524 46.9244C0.644801 46.9354 0.648733 46.9462 0.656208 46.9544C0.663682 46.9627 0.674116 46.9677 0.685312 46.9686C0.884309 46.9833 1.14137 46.9907 1.45649 46.9907C24.5456 46.9907 47.6518 46.9907 70.7753 46.9907C70.7994 46.9907 70.8226 46.9811 70.8398 46.9641C70.8569 46.9471 70.8666 46.9241 70.8669 46.8999C70.8881 44.3435 70.8979 41.7772 70.8963 39.2012C70.8903 26.5324 70.8873 13.8686 70.8873 1.20968C70.8873 1.17317 70.8727 1.13814 70.8466 1.11224C70.8206 1.08635 70.7852 1.07169 70.7483 1.07148L69.9673 1.0682C69.9368 0.993512 69.8822 0.946898 69.8037 0.928362C69.7759 0.921819 69.0331 0.928634 67.5752 0.948806C67.5752 0.948806 46.5306 0.948806 4.44145 0.948806C3.49171 0.948806 2.7985 0.9439 2.36179 0.934086C2.34869 0.933859 2.33584 0.936731 2.32442 0.942442C2.313 0.948153 2.30336 0.956524 2.29637 0.966798L2.21295 1.08865Z" fill="#EC1F27"/>
<path d="M69.8032 0.928185C69.8817 0.946721 69.9362 0.993336 69.9667 1.06803C69.7421 1.10074 69.5172 1.10183 69.292 1.0713C68.875 1.07566 68.4593 1.10292 68.0449 1.15308C24.7972 1.15308 3.17331 1.15308 3.17331 1.15308C2.85274 1.13781 2.53243 1.11628 2.2124 1.08847L2.29582 0.966621C2.30281 0.956347 2.31245 0.947976 2.32387 0.942265C2.33529 0.936554 2.34814 0.933682 2.36124 0.933909C2.79794 0.943723 3.49116 0.948629 4.44089 0.948629C46.5301 0.948629 67.5747 0.948629 67.5747 0.948629C69.0325 0.928457 69.7754 0.921642 69.8032 0.928185Z" fill="#CF212A"/>
<path d="M0.766416 1.09126L2.21228 1.0888C2.53231 1.11661 2.85261 1.13814 3.17319 1.15341C3.17319 1.15341 24.7971 1.15341 68.0448 1.15341C68.4591 1.10325 68.8749 1.07599 69.2919 1.07163C69.5171 1.10216 69.742 1.10107 69.9666 1.06836L70.7476 1.07163C70.7845 1.07185 70.8199 1.0865 70.846 1.1124C70.872 1.13829 70.8866 1.17332 70.8866 1.20984C70.8866 13.8688 70.8896 26.5326 70.8956 39.2013C70.8973 41.7774 70.8874 44.3436 70.8662 46.9001C70.866 46.9242 70.8562 46.9473 70.8391 46.9643C70.8219 46.9813 70.7987 46.9908 70.7746 46.9908C47.6512 46.9908 24.5449 46.9908 1.45582 46.9908C1.14069 46.9908 0.883633 46.9835 0.684636 46.9687C0.67344 46.9679 0.663006 46.9628 0.655532 46.9546C0.648057 46.9463 0.644125 46.9356 0.644564 46.9246C0.667463 46.1504 0.678912 45.6954 0.678912 45.5597C0.678912 35.0783 0.678912 24.5969 0.678912 14.1155C0.686544 9.78769 0.679729 5.48227 0.658467 1.19921C0.658467 1.17072 0.669815 1.14338 0.690036 1.12316C0.710257 1.10294 0.737712 1.09147 0.766416 1.09126ZM24.175 21.7529C24.217 21.8188 24.217 21.9189 24.175 22.053C24.1995 26.3459 24.1987 30.6385 24.1725 34.9308C24.1704 35.2661 24.1875 35.4945 24.2241 35.6161C24.3064 35.8904 24.4789 36.0645 24.7417 36.1387C24.8279 36.1627 25.1296 36.176 25.647 36.1788C26.5935 36.1837 27.5211 36.1763 28.43 36.1567C28.5984 36.1529 28.723 36.0771 28.8037 35.9293C28.886 35.7783 28.9498 35.6218 28.9951 35.4599C28.9951 35.4599 28.9951 28.5904 28.9951 14.8515C29.0174 14.6765 29.0174 14.4311 28.9951 14.1155C28.9634 13.6684 28.8291 13.2816 28.5919 12.955C28.5128 12.8471 28.4221 12.753 28.3196 12.6729C28.1991 12.5786 28.0835 12.5142 27.9728 12.4799C27.6964 12.3937 27.3625 12.3597 26.971 12.3776C26.9236 12.3798 26.6693 12.3847 26.208 12.3924C26.2015 12.3924 25.9474 12.3877 25.4458 12.3785C25.1569 12.373 24.8685 12.3896 24.5806 12.4284C24.2987 12.4665 24.0818 12.5467 23.9296 12.6688C23.7067 12.8487 23.5079 13.1139 23.3335 13.4645C21.7949 16.5612 20.2531 19.6718 18.708 22.7964C18.6606 22.8923 18.6134 22.8923 18.5665 22.7964C17.0596 19.7269 15.5445 16.6643 14.0212 13.6084C14.0201 13.6062 13.9866 13.5343 13.9207 13.3925C13.8007 13.1352 13.6358 12.9095 13.4259 12.7154C13.2907 12.5905 13.1511 12.512 13.0072 12.4799C12.535 12.3747 12.0239 12.3406 11.4738 12.3776C11.0436 12.3798 10.6135 12.3842 10.1833 12.3907C9.74662 12.3967 9.42714 12.442 9.22487 12.5265C8.6993 12.7462 8.41307 13.1873 8.36619 13.8497C8.3651 13.8628 8.36237 20.9776 8.35801 35.1941C8.35746 35.295 8.367 35.4449 8.38663 35.6439C8.40789 35.8636 8.49594 36.0133 8.65078 36.0929C8.72929 36.1327 8.88358 36.1553 9.11365 36.1608C10.2182 36.1858 11.3228 36.1853 12.4274 36.1591C12.5582 36.1559 12.6552 36.1373 12.7185 36.1035C12.8074 36.0561 12.8815 35.983 12.9409 35.8844C13.0909 35.6352 13.1606 35.3779 13.1503 35.1124C13.1503 35.1124 13.1503 31.7095 13.1503 24.9038C13.1503 24.9033 13.1576 24.7304 13.1724 24.3853C13.1844 24.1013 13.1566 23.8197 13.089 23.5406C13.0704 23.1033 13.084 22.6671 13.1298 22.2321C13.1407 22.1269 13.1356 21.9837 13.1143 21.8027C13.1111 21.7738 13.1176 21.7466 13.1323 21.7267C13.1923 21.6455 13.2392 21.6708 13.273 21.8027C13.3062 21.9314 14.0948 23.47 15.6388 26.4184C15.6394 26.4189 15.6803 26.5059 15.7615 26.6793C15.8776 26.9284 16.0464 27.1179 16.2677 27.2476C16.4471 27.3528 16.723 27.4161 17.0953 27.4373C17.6749 27.4711 18.2544 27.4602 18.834 27.4046C19.426 27.5055 20.017 27.5022 20.6069 27.3948C20.9815 27.3261 21.2748 27.1369 21.4869 26.8273C21.5692 26.7062 22.0002 25.8448 22.7798 24.243C23.1778 23.4252 23.5971 22.5971 24.0376 21.7586C24.044 21.7462 24.0536 21.7358 24.0654 21.7283C24.0772 21.7208 24.0907 21.7166 24.1046 21.716C24.1186 21.7154 24.1324 21.7185 24.1448 21.725C24.1571 21.7315 24.1675 21.7411 24.175 21.7529ZM42.9769 35.2334C42.9845 35.4498 43.0603 35.669 43.2043 35.8909C43.298 36.0359 43.4319 36.1226 43.6058 36.151C43.7399 36.1728 43.8923 36.1809 44.0629 36.1755C44.534 36.1602 45.0792 36.1594 45.6985 36.173C46.5022 36.1916 46.9724 36.1856 47.1092 36.155C47.2804 36.1169 47.4145 36.0261 47.5116 35.8827C47.6681 35.651 47.7384 35.3942 47.7226 35.1124C47.7226 29.9194 47.7226 24.7264 47.7226 19.5334C47.7226 19.1337 47.722 18.9298 47.7209 18.9216C47.6975 18.7134 47.6269 18.5177 47.5091 18.3345C47.363 18.1066 47.1548 17.9815 46.8843 17.9591C45.9804 17.9591 45.0765 17.9591 44.1725 17.9591C43.8901 17.9591 43.6966 17.9765 43.5919 18.0114C43.3869 18.0807 43.2321 18.2148 43.1274 18.4138C43.0205 18.6172 42.9731 18.8472 42.9851 19.104C42.9949 19.3226 42.9998 19.432 42.9998 19.432C42.9998 23.3094 42.9998 27.1986 42.9998 31.0994C42.9998 31.1269 42.9924 31.1538 42.9783 31.1774C42.9642 31.201 42.9439 31.2204 42.9197 31.2336C42.3003 31.5645 41.672 31.8398 41.0346 32.0595C40.2594 32.3261 39.4724 32.3637 38.6737 32.1724C38.37 32.0993 38.1372 31.9532 37.9753 31.734C37.7474 31.4238 37.6084 31.0506 37.5582 30.6145C37.4399 29.589 37.3805 28.5599 37.3799 27.5273C37.3783 24.8433 37.3775 22.1593 37.3775 19.4753C37.3775 18.9666 37.3693 18.6793 37.3529 18.6133C37.2728 18.2884 37.0408 18.072 36.657 17.964C36.6303 17.9569 35.9174 17.9547 34.5185 17.9575C33.8719 17.9591 33.5028 17.9719 33.4112 17.9959C32.9657 18.1126 32.7272 18.4615 32.6956 19.0427C32.6716 19.4767 32.6645 22.114 32.6743 26.9548C32.6749 27.294 32.6817 27.662 32.6948 28.0589C32.7128 28.6199 32.7199 28.9879 32.716 29.1629C32.704 29.7163 32.7179 30.2688 32.7577 30.8206C32.7872 31.2284 32.8739 31.7542 33.0178 32.3981C33.1808 33.1281 33.4221 33.7529 33.7416 34.2725C34.0649 34.798 34.4983 35.2296 35.0418 35.5671C35.6454 35.9421 36.2865 36.1856 36.9653 36.2973C38.1484 36.4925 39.3227 36.45 40.4884 36.1698C41.3236 35.9691 42.1193 35.6387 42.8755 35.1786C42.8853 35.1724 42.8966 35.169 42.9082 35.1687C42.9198 35.1683 42.9314 35.1711 42.9416 35.1766C42.9519 35.1822 42.9606 35.1903 42.9667 35.2003C42.9729 35.2103 42.9764 35.2217 42.9769 35.2334ZM57.6171 21.9475C57.6661 21.9502 57.6762 21.9712 57.6473 22.0105C55.7032 24.6645 53.7969 27.2828 51.9285 29.8654C51.8205 30.0148 51.5139 30.4239 51.0085 31.0929C50.6345 31.5879 50.345 32.0094 50.14 32.3572C49.9334 32.7083 49.8279 33.0883 49.8235 33.4972C49.8191 33.9203 49.8276 34.3428 49.8488 34.7648C49.8734 35.2413 50.1086 35.6322 50.5546 35.9375C50.7956 36.1022 51.1055 36.1815 51.4844 36.1755C53.8555 36.1368 57.2562 36.14 61.6864 36.1853C61.8985 36.1875 62.1098 36.1774 62.3202 36.155C62.9058 36.2008 63.2193 35.9487 63.2607 35.3986C63.3027 34.8403 63.3062 33.9789 63.2713 32.8144C63.2626 32.5287 63.2192 32.3242 63.1413 32.201C63.0115 31.9949 62.806 31.8886 62.5247 31.8821C61.3116 31.8548 59.4102 31.8453 56.8205 31.8534C56.5687 31.854 56.322 31.8502 56.0804 31.842C56.0221 31.8398 56.0107 31.8153 56.0461 31.7684C56.6246 31.0046 57.1946 30.2367 57.7561 29.4647C59.4697 27.1105 61.187 24.7593 62.9082 22.4112C63.1198 22.1222 63.2236 21.8376 63.2198 21.5574C63.2247 20.8623 63.2239 20.1671 63.2173 19.472C63.2141 19.1607 63.1143 18.8797 62.918 18.6289C62.5288 18.1306 62.016 17.9073 61.3798 17.9591C57.9788 17.9591 54.5776 17.9591 51.1761 17.9591C50.9188 17.9591 50.7223 17.9954 50.5865 18.0679C50.2534 18.2451 50.0961 18.5564 50.1146 19.0018C50.1146 19.6969 50.1108 20.392 50.1032 21.0872C50.1005 21.345 50.14 21.5342 50.2218 21.6547C50.309 21.7823 50.4368 21.8589 50.6053 21.8845C50.8479 21.921 51.066 21.9347 51.2595 21.9254C51.3364 21.9216 52.9584 21.9159 56.1254 21.9082C56.6423 21.9071 57.1395 21.9202 57.6171 21.9475Z" fill="#EC1F27"/>
<path d="M155.148 11.8203L159.349 17.046C159.389 17.0961 159.377 17.1212 159.313 17.1212L150.894 17.1163C150.866 17.1163 150.861 17.1054 150.879 17.0836L155.092 11.8203C155.095 11.816 155.1 11.8126 155.104 11.8102C155.109 11.8079 155.114 11.8066 155.12 11.8066C155.125 11.8066 155.13 11.8079 155.135 11.8102C155.14 11.8126 155.144 11.816 155.148 11.8203Z" fill="#FFF200"/>
<path d="M11.4747 12.3778C12.0248 12.3407 12.5359 12.3748 13.0081 12.48C13.152 12.5122 13.2916 12.5907 13.4268 12.7155C13.6367 12.9096 13.8016 13.1353 13.9216 13.3927C13.9875 13.5344 14.0211 13.6064 14.0221 13.6086C15.5454 16.6644 17.0605 19.727 18.5674 22.7965C18.6143 22.8924 18.6615 22.8924 18.7089 22.7965C20.254 19.672 21.7958 16.5613 23.3344 13.4646C23.5088 13.1141 23.7076 12.8488 23.9305 12.6689C24.0827 12.5468 24.2996 12.4666 24.5815 12.4285C24.8694 12.3898 25.1578 12.3731 25.4467 12.3786C25.9483 12.3879 26.2024 12.3925 26.2089 12.3925C26.6702 12.3849 26.9245 12.38 26.9719 12.3778C27.3634 12.3598 27.6973 12.3939 27.9737 12.48C28.0844 12.5143 28.2 12.5787 28.3205 12.673C28.423 12.7531 28.5137 12.8472 28.5928 12.9551C28.83 13.2817 28.9644 13.6685 28.996 14.1156C29.0183 14.4313 29.0183 14.6766 28.996 14.8516C28.996 28.5906 28.996 35.46 28.996 35.46C28.9507 35.622 28.8869 35.7784 28.8046 35.9295C28.7239 36.0772 28.5993 36.153 28.4309 36.1568C27.522 36.1764 26.5944 36.1838 25.6479 36.1789C25.1305 36.1762 24.8288 36.1628 24.7426 36.1388C24.4798 36.0647 24.3073 35.8905 24.225 35.6162C24.1884 35.4947 24.1713 35.2662 24.1734 34.9309C24.1996 30.6386 24.2004 26.346 24.1759 22.0531C24.2179 21.919 24.2179 21.8189 24.1759 21.753C24.1684 21.7412 24.158 21.7316 24.1457 21.7251C24.1333 21.7186 24.1195 21.7155 24.1055 21.7161C24.0916 21.7167 24.0781 21.7209 24.0663 21.7284C24.0545 21.7359 24.0449 21.7463 24.0385 21.7587C23.598 22.5972 23.1787 23.4254 22.7807 24.2432C22.0011 25.8449 21.5701 26.7064 21.4878 26.8274C21.2757 27.1371 20.9824 27.3262 20.6078 27.3949C20.0179 27.5023 19.427 27.5056 18.8349 27.4048C18.2553 27.4604 17.6758 27.4713 17.0962 27.4375C16.7239 27.4162 16.448 27.353 16.2686 27.2477C16.0473 27.118 15.8785 26.9285 15.7624 26.6794C15.6812 26.506 15.6403 26.419 15.6397 26.4185C14.0957 23.4701 13.3071 21.9315 13.2739 21.8029C13.2401 21.6709 13.1932 21.6456 13.1332 21.7268C13.1185 21.7467 13.112 21.7739 13.1152 21.8029C13.1365 21.9839 13.1416 22.127 13.1307 22.2322C13.0849 22.6673 13.0713 23.1034 13.0899 23.5407C13.1575 23.8198 13.1853 24.1014 13.1733 24.3855C13.1585 24.7306 13.1512 24.9034 13.1512 24.9039C13.1512 31.7096 13.1512 35.1125 13.1512 35.1125C13.1615 35.378 13.0918 35.6353 12.9418 35.8845C12.8824 35.9832 12.8083 36.0562 12.7194 36.1036C12.6562 36.1374 12.5591 36.156 12.4283 36.1593C11.3237 36.1854 10.2191 36.186 9.11455 36.1609C8.88448 36.1554 8.73019 36.1328 8.65168 36.093C8.49684 36.0134 8.40879 35.8638 8.38753 35.644C8.36791 35.445 8.35836 35.2951 8.35891 35.1943C8.36327 20.9777 8.366 13.8629 8.36709 13.8498C8.41397 13.1874 8.7002 12.7463 9.22577 12.5266C9.42804 12.4421 9.74753 12.3969 10.1842 12.3909C10.6144 12.3843 11.0445 12.38 11.4747 12.3778ZM9.61423 13.131C9.26639 13.2411 9.06167 13.454 9.00006 13.7697C8.9848 13.8471 8.9728 14.0234 8.96408 14.2988C8.95917 14.476 8.96462 14.6534 8.98043 14.8312C8.97771 21.7197 8.97934 28.608 8.98534 35.496C8.98534 35.5071 8.98965 35.5177 8.99732 35.5255C9.00499 35.5333 9.01539 35.5377 9.02623 35.5377L12.2083 35.523C12.3795 35.5225 12.4672 35.4388 12.4716 35.2719L12.5002 34.1516C12.5013 33.8424 12.5275 33.5358 12.5787 33.2315C12.6076 30.9128 12.6071 28.5941 12.5771 26.2754C12.5711 25.8131 12.5785 25.3513 12.5992 24.89C12.5523 24.4141 12.5193 23.937 12.5002 23.4589C12.4866 22.4841 12.4926 21.5095 12.5182 20.5353C12.5253 20.2741 12.6376 20.1343 12.8551 20.1157C12.9669 20.1065 13.0656 20.1348 13.1512 20.2008C13.2373 20.2679 13.3003 20.3573 13.3401 20.469C13.5026 20.7531 13.6571 21.0412 13.8038 21.3334C14.4929 22.7101 15.1924 24.0815 15.9023 25.4478C15.9023 25.4483 15.9699 25.586 16.1051 25.8608C16.2452 26.147 16.4126 26.4174 16.6072 26.672C16.623 26.6931 16.6463 26.7076 16.6726 26.7129C16.9267 26.7652 17.184 26.7914 17.4446 26.7914C18.3306 26.7914 19.2165 26.7914 20.1024 26.7914C20.1183 26.7914 20.2175 26.7816 20.4001 26.762C20.5059 26.75 20.5945 26.7145 20.6659 26.6557C20.8148 26.533 20.932 26.3926 21.0176 26.2345C21.1326 26.0224 22.0169 24.2753 23.6705 20.9932C23.8766 20.5827 24.0246 20.3295 24.1146 20.2335C24.2694 20.0683 24.416 20.0334 24.5545 20.1288C24.6428 20.1899 24.7083 20.2951 24.7508 20.4445C24.801 20.619 24.8189 20.7992 24.8048 20.9851C24.8255 21.7827 24.8255 22.58 24.8048 23.3771C24.7791 24.3541 24.7857 28.2577 24.8244 35.0879C24.8249 35.1376 24.8309 35.194 24.8424 35.2572C24.8533 35.315 24.8609 35.3714 24.8653 35.4265C24.8676 35.4579 24.8817 35.4872 24.9047 35.5086C24.9278 35.53 24.9581 35.5419 24.9896 35.5418H28.2215C28.2362 35.5419 28.2502 35.5364 28.2609 35.5265C28.2715 35.5166 28.2779 35.5031 28.2788 35.4887C28.2995 35.1566 28.3068 34.8336 28.3008 34.5196C28.3008 34.5196 28.3008 27.9587 28.3008 14.8369C28.3008 14.1952 28.2921 13.8381 28.2747 13.7656C28.1678 13.3289 27.829 13.0974 27.2582 13.0713C26.5903 13.0402 25.9224 13.0407 25.2546 13.0729C24.9133 13.0893 24.624 13.1481 24.3869 13.2495C24.2915 13.2904 24.2132 13.3627 24.1522 13.4663C23.8692 13.9477 23.5876 14.476 23.3074 15.0511C22.9078 15.8711 21.529 18.6489 19.171 23.3845C19.0281 23.6723 18.7948 23.7928 18.4709 23.7459C18.4329 23.7404 18.3966 23.7259 18.3649 23.7038C18.3333 23.6817 18.3071 23.6524 18.2886 23.6184C17.4713 22.1169 16.6977 20.5933 15.9677 19.0477C15.0457 17.2 14.129 15.3499 13.2174 13.4973C13.1286 13.3158 12.9497 13.189 12.681 13.1171C12.724 13.1121 12.7278 13.1015 12.6924 13.0852C12.5141 13.0017 12.3263 12.9704 12.1289 12.9911C11.9376 13.0113 11.2629 13.0091 10.1049 12.9846C9.96588 12.9813 9.82931 12.996 9.69519 13.0287C9.63849 13.0429 9.6115 13.077 9.61423 13.131Z" fill="#EC1F27"/>
<path d="M141.211 12.9305C141.983 12.9305 142.756 12.9302 143.529 12.9297C143.735 12.9297 143.851 13.0322 143.877 13.2372C143.898 13.4029 143.908 13.5392 143.908 13.6461C143.901 20.6655 143.898 27.6849 143.901 34.7043C143.901 34.8559 143.885 35.0104 143.854 35.168C143.851 35.1807 143.846 35.1926 143.837 35.2025C143.829 35.2123 143.818 35.2199 143.806 35.2244C143.423 35.3678 143.045 35.4875 142.671 35.5834C141.865 35.7143 141.061 35.8506 140.258 35.9923C139.701 36.0905 139.013 36.1493 138.193 36.169C137.391 36.1886 136.846 36.1924 136.558 36.1804C135.974 36.157 135.398 36.0749 134.831 35.9343C134.27 35.7952 133.762 35.6031 133.305 35.3577C131.757 34.5263 130.77 33.184 130.342 31.3309C130.231 30.8484 130.15 30.4185 130.098 30.0412C130.056 29.7386 130.036 29.3028 130.036 28.7336C130.035 27.7729 130.034 26.8123 130.033 25.8517C130.033 25.476 130.062 25.1028 130.122 24.7321C130.152 24.5516 130.212 24.2594 130.303 23.8554C130.385 23.4907 130.462 23.2023 130.534 22.9902C131.197 21.0144 132.565 19.7397 134.636 19.1662C134.942 19.0817 135.405 19.0056 136.026 18.938L137.989 18.9585L138.704 18.9789L139.215 18.9855L139.747 19.0403L140.406 19.0893C140.411 19.0898 140.417 19.089 140.421 19.0871C140.426 19.0853 140.431 19.0823 140.435 19.0783C140.439 19.0744 140.442 19.0697 140.444 19.0644C140.446 19.0591 140.447 19.0534 140.447 19.0476C140.441 17.1656 140.439 15.2833 140.442 13.4007C140.435 13.1325 140.533 12.9774 140.737 12.9354C140.753 12.9321 140.91 12.9305 141.211 12.9305ZM135.263 33.1251C135.64 33.3285 136.037 33.446 136.455 33.4776C137.692 33.5719 138.992 33.5111 140.355 33.2952C140.368 33.2934 140.379 33.2879 140.387 33.2795C140.396 33.2711 140.402 33.2603 140.404 33.2486C140.429 33.1101 140.442 32.9207 140.442 32.6803C140.442 29.1228 140.442 25.5349 140.442 21.9164C140.442 21.8805 140.429 21.8459 140.405 21.8191C140.381 21.7924 140.348 21.7755 140.312 21.7717C139.655 21.7035 139.009 21.643 138.376 21.5901C138.009 21.5596 137.642 21.549 137.273 21.5582C136.845 21.5343 136.403 21.5768 135.949 21.6858C135.103 21.8892 134.478 22.3662 134.073 23.117C133.749 23.7178 133.569 24.3363 133.532 24.9725C133.478 25.8912 133.454 26.9012 133.461 28.0025C133.467 28.7957 133.473 29.2703 133.481 29.4263C133.504 29.9164 133.562 30.3877 133.654 30.8402C133.768 31.3985 133.997 31.8974 134.34 32.3368C134.6 32.6704 134.908 32.9332 135.263 33.1251Z" fill="white"/>
<path d="M10.1046 12.9848C11.2626 13.0094 11.9373 13.0115 12.1287 12.9914C12.326 12.9706 12.5139 13.002 12.6921 13.0854C12.7276 13.1018 12.7238 13.1124 12.6807 13.1173C12.0265 13.0492 11.3722 13.0481 10.718 13.114C10.35 13.1004 9.98196 13.1061 9.61396 13.1312C9.61123 13.0772 9.63822 13.0432 9.69492 13.029C9.82904 12.9963 9.96561 12.9815 10.1046 12.9848Z" fill="#D48272"/>
<path d="M27.2568 13.0717C27.8276 13.0979 28.1664 13.3293 28.2733 13.766C28.2907 13.8386 28.2994 14.1957 28.2994 14.8374C28.2994 27.9591 28.2994 34.52 28.2994 34.52C28.3054 34.8341 28.2981 35.1571 28.2774 35.4891C28.2765 35.5035 28.2701 35.5171 28.2595 35.527C28.2488 35.5368 28.2348 35.5423 28.2201 35.5423H24.9882C24.9567 35.5424 24.9264 35.5305 24.9033 35.5091C24.8803 35.4877 24.8662 35.4584 24.8639 35.427C24.8595 35.3719 24.8519 35.3155 24.841 35.2577C24.8295 35.1945 24.8235 35.138 24.823 35.0884C24.7843 28.2582 24.7778 24.3546 24.8034 23.3776C24.8241 22.5805 24.8241 21.7832 24.8034 20.9855C24.8175 20.7996 24.7996 20.6194 24.7494 20.445C24.7069 20.2956 24.6415 20.1904 24.5531 20.1293C24.4146 20.0339 24.268 20.0688 24.1132 20.234C24.0232 20.3299 23.8752 20.5832 23.6691 20.9937C22.0155 24.2758 21.1312 26.0229 21.0162 26.235C20.9306 26.3931 20.8134 26.5335 20.6645 26.6561C20.5931 26.715 20.5045 26.7504 20.3987 26.7624C20.2161 26.7821 20.1169 26.7919 20.1011 26.7919C19.2151 26.7919 18.3292 26.7919 17.4432 26.7919C17.1826 26.7919 16.9253 26.7657 16.6712 26.7134C16.6449 26.7081 16.6216 26.6936 16.6058 26.6725C16.4112 26.4179 16.2438 26.1475 16.1037 25.8612C15.9685 25.5865 15.9009 25.4488 15.9009 25.4482C15.191 24.082 14.4915 22.7105 13.8024 21.3339C13.6557 21.0417 13.5012 20.7536 13.3387 20.4695C13.2989 20.3577 13.2359 20.2683 13.1498 20.2013C13.0642 20.1353 12.9655 20.107 12.8538 20.1162C12.6362 20.1348 12.5239 20.2746 12.5168 20.5357C12.4912 21.51 12.4852 22.4846 12.4988 23.4594C12.4607 27.0239 12.4607 30.5881 12.4988 34.152L12.4702 35.2724C12.4658 35.4392 12.3781 35.5229 12.2069 35.5235L9.02483 35.5382C9.01399 35.5382 9.00359 35.5338 8.99592 35.526C8.98825 35.5182 8.98394 35.5076 8.98394 35.4965C8.97795 28.6085 8.97631 21.7202 8.97904 14.8316C8.96323 14.6539 8.95777 14.4764 8.96268 14.2992C8.9714 14.0239 8.9834 13.8475 8.99866 13.7701C9.06027 13.4545 9.26499 13.2416 9.61283 13.1314C9.98084 13.1064 10.3488 13.1006 10.7169 13.1143C11.3711 13.0483 12.0253 13.0494 12.6796 13.1175C12.9483 13.1895 13.1272 13.3163 13.216 13.4978C14.1276 15.3504 15.0444 17.2005 15.9663 19.0482C16.6963 20.5938 17.4699 22.1174 18.2872 23.6188C18.3057 23.6529 18.3319 23.6821 18.3635 23.7043C18.3952 23.7264 18.4315 23.7408 18.4695 23.7464C18.7934 23.7933 19.0267 23.6728 19.1696 23.3849C21.5276 18.6494 22.9064 15.8716 23.306 15.0516C23.5862 14.4764 23.8678 13.9481 24.1508 13.4667C24.2118 13.3631 24.2901 13.2909 24.3855 13.25C24.6226 13.1486 24.9119 13.0897 25.2532 13.0734C25.921 13.0412 26.5889 13.0407 27.2568 13.0717Z" fill="white"/>
<path d="M84.2588 13.4438V13.6008C83.9022 13.6117 83.5459 13.6074 83.1899 13.5877C83.1665 13.5866 83.1174 13.5757 83.0427 13.555C82.9915 13.5414 82.9397 13.5403 82.8873 13.5518C82.8704 13.5556 82.8478 13.5692 82.8194 13.5926C82.7775 13.6275 82.7257 13.6371 82.6641 13.6213C82.7518 13.5297 82.8609 13.4831 82.9912 13.4814C83.4126 13.4176 83.8351 13.4051 84.2588 13.4438Z" fill="#B5B0B0"/>
<path d="M85.6895 13.4199C86.2347 13.4199 86.7799 13.4199 87.3251 13.4199C87.4685 13.4385 87.6116 13.4578 87.7545 13.478L87.0389 13.5189C86.3683 13.5042 86.0055 13.5001 85.9504 13.5066C85.8283 13.5213 85.713 13.5061 85.6045 13.4608C85.6094 13.4336 85.6378 13.4199 85.6895 13.4199Z" fill="#5A565A"/>
<path d="M98.1206 13.4445V13.622C97.8889 13.6176 97.6571 13.6119 97.4254 13.6048C96.6545 13.6386 95.8844 13.625 95.1152 13.5639C94.8611 13.5437 94.166 13.5154 93.0298 13.4789C93.8814 13.4587 94.7333 13.4461 95.5854 13.4412C96.4304 13.4052 97.2755 13.4063 98.1206 13.4445Z" fill="#A7A5A5"/>
<path d="M84.2583 13.4443L85.6044 13.4615C85.7129 13.5068 85.8282 13.522 85.9503 13.5073C86.0054 13.5008 86.3682 13.5049 87.0388 13.5196C86.5688 13.5436 86.0986 13.5515 85.6281 13.5433C85.1729 13.5913 84.7163 13.6106 84.2583 13.6014V13.4443Z" fill="#EDC1B3"/>
<path d="M98.1206 13.444C98.2602 13.4189 98.3204 13.4792 98.3013 13.6247L98.1206 13.6215V13.444Z" fill="#5A565A"/>
<path d="M87.7535 13.4785H93.0283C94.1645 13.515 94.8596 13.5434 95.1137 13.5636C95.883 13.6246 96.6531 13.6383 97.424 13.6045C97.6557 13.6115 97.8874 13.6173 98.1191 13.6216L98.2998 13.6249L98.3268 13.7476L98.3064 16.385C98.3107 16.4122 98.3028 16.4258 98.2827 16.4258C96.3134 16.4466 94.336 16.4534 92.3504 16.4463C92.3295 16.4463 92.3096 16.4546 92.2949 16.4693C92.2801 16.484 92.2719 16.504 92.2719 16.5248V18.324C92.2272 18.4886 92.2283 18.6533 92.2751 18.8179L92.2719 35.6931C92.2719 35.7945 92.2231 35.8588 92.1255 35.8861C91.8998 35.9493 91.6419 35.9698 91.3518 35.9474C90.5259 35.8013 89.6944 35.7626 88.8576 35.8313C88.8287 35.8302 88.8014 35.8234 88.7758 35.8109L88.7553 35.8043C88.739 35.7247 88.7322 35.644 88.7349 35.5623C88.7349 29.2107 88.7349 22.8592 88.7349 16.5076C88.7349 16.4924 88.732 16.478 88.7265 16.466C88.721 16.4541 88.7132 16.445 88.7038 16.4398C88.676 16.4239 88.6455 16.4272 88.6122 16.4496L82.7658 16.4209C82.7615 16.4209 82.7522 16.4171 82.738 16.4095L82.7241 16.4021C82.717 16.2985 82.6636 16.2656 82.5638 16.3032L82.5605 13.6871C82.5605 13.6711 82.5633 13.6561 82.5685 13.6438C82.5737 13.6315 82.5812 13.6224 82.59 13.6175C82.6112 13.605 82.6355 13.6064 82.6628 13.6216C82.7244 13.6374 82.7762 13.6279 82.8182 13.593C82.8465 13.5696 82.8691 13.5559 82.886 13.5521C82.9384 13.5407 82.9902 13.5418 83.0414 13.5554C83.1161 13.5761 83.1652 13.587 83.1886 13.5881C83.5446 13.6077 83.9009 13.6121 84.2575 13.6012C84.7154 13.6105 85.172 13.5911 85.6273 13.5431C86.0978 13.5513 86.568 13.5434 87.038 13.5194L87.7535 13.4785Z" fill="white"/>
<path d="M98.3271 13.7474C98.3974 13.7322 98.4517 13.745 98.4898 13.7859C98.5155 13.8131 98.5285 13.8595 98.5291 13.9249C98.5422 15.03 98.5351 15.7818 98.5078 16.1804C98.5018 16.2687 98.4348 16.3368 98.3066 16.3848L98.3271 13.7474Z" fill="#363634"/>
<path d="M82.7247 16.4021C82.6184 16.4375 82.565 16.4045 82.5645 16.3031C82.6642 16.2655 82.7177 16.2985 82.7247 16.4021Z" fill="#B5B0B0"/>
<path d="M88.7364 16.5084C88.7364 22.8599 88.7364 29.2115 88.7364 35.563C88.7337 35.6448 88.7405 35.7255 88.7569 35.8051C88.6844 35.8345 88.6408 35.7854 88.626 35.6579C88.6179 35.5832 88.6138 35.5085 88.6138 35.4338V16.4503C88.647 16.4279 88.6776 16.4247 88.7054 16.4405C88.7147 16.4457 88.7226 16.4548 88.728 16.4668C88.7335 16.4788 88.7364 16.4931 88.7364 16.5084Z" fill="#837F81"/>
<path d="M34.5183 17.9572C35.9173 17.9545 36.6301 17.9566 36.6569 17.9637C37.0407 18.0717 37.2727 18.2881 37.3528 18.6131C37.3692 18.679 37.3773 18.9663 37.3773 19.475C37.3773 22.159 37.3782 24.843 37.3798 27.527C37.3803 28.5596 37.4398 29.5887 37.5581 30.6142C37.6082 31.0504 37.7473 31.4235 37.9751 31.7338C38.1371 31.9529 38.3699 32.099 38.6735 32.1721C39.4723 32.3635 40.2592 32.3259 41.0345 32.0593C41.6718 31.8395 42.3002 31.5642 42.9195 31.2333C42.9438 31.2202 42.964 31.2008 42.9781 31.1772C42.9923 31.1535 42.9997 31.1266 42.9997 31.0992C42.9997 27.1983 42.9997 23.3091 42.9997 19.4317C42.9997 19.4317 42.9948 19.3224 42.985 19.1037C42.973 18.847 43.0204 18.6169 43.1273 18.4135C43.2319 18.2145 43.3868 18.0804 43.5918 18.0112C43.6964 17.9763 43.89 17.9588 44.1724 17.9588C45.0763 17.9588 45.9803 17.9588 46.8842 17.9588C47.1546 17.9812 47.3629 18.1063 47.509 18.3342C47.6268 18.5174 47.6974 18.7131 47.7208 18.9214C47.7219 18.9295 47.7224 19.1335 47.7224 19.5331C47.7224 24.7261 47.7224 29.9191 47.7224 35.1121C47.7383 35.3939 47.6679 35.6507 47.5115 35.8824C47.4144 36.0258 47.2803 36.1166 47.1091 36.1548C46.9723 36.1853 46.502 36.1913 45.6984 36.1728C45.0791 36.1591 44.5339 36.1599 44.0628 36.1752C43.8922 36.1807 43.7398 36.1725 43.6057 36.1507C43.4317 36.1223 43.2979 36.0356 43.2041 35.8906C43.0602 35.6687 42.9844 35.4496 42.9768 35.2331C42.9763 35.2214 42.9728 35.21 42.9666 35.2C42.9604 35.19 42.9518 35.1819 42.9415 35.1763C42.9312 35.1708 42.9197 35.1681 42.9081 35.1684C42.8965 35.1687 42.8852 35.1722 42.8754 35.1783C42.1192 35.6385 41.3235 35.9689 40.4882 36.1695C39.3226 36.4497 38.1482 36.4922 36.9652 36.2971C36.2864 36.1853 35.6452 35.9419 35.0417 35.5668C34.4982 35.2293 34.0647 34.7978 33.7414 34.2722C33.4219 33.7526 33.1807 33.1278 33.0177 32.3978C32.8737 31.7539 32.7871 31.2281 32.7576 30.8203C32.7178 30.2685 32.7039 29.716 32.7159 29.1626C32.7197 28.9876 32.7126 28.6196 32.6946 28.0586C32.6816 27.6617 32.6747 27.2937 32.6742 26.9546C32.6644 22.1138 32.6715 19.4764 32.6955 19.0424C32.7271 18.4612 32.9656 18.1123 33.411 17.9956C33.5026 17.9716 33.8717 17.9588 34.5183 17.9572ZM33.4691 18.7766C33.402 18.7744 33.3666 18.7998 33.3628 18.8527C33.3601 18.8903 33.356 18.917 33.3505 18.9328C33.3102 19.0484 33.2963 19.1667 33.3088 19.2877C33.2919 20.4785 33.2924 21.6694 33.3104 22.8607C33.3279 24.041 33.3352 25.2217 33.3325 26.4026C33.2671 27.3234 33.2717 28.2434 33.3464 29.1626C33.3617 29.7989 33.4293 30.5978 33.5492 31.5596C33.6196 32.1271 33.7482 32.6551 33.9352 33.1436C34.1282 33.649 34.3973 34.0778 34.7424 34.43C35.3874 35.087 36.1975 35.4915 37.1729 35.6436C38.4661 35.8454 39.7184 35.7415 40.9298 35.3321C41.5857 35.1102 42.2566 34.782 42.9424 34.3474C42.9441 34.3463 43.0438 34.2755 43.2417 34.1348C43.3541 34.0547 43.4748 33.986 43.604 33.9287C43.6102 33.9259 43.6169 33.9247 43.6236 33.9253C43.6304 33.9258 43.6368 33.9281 43.6424 33.9319C43.648 33.9357 43.6525 33.9408 43.6556 33.9469C43.6586 33.9529 43.66 33.9596 43.6596 33.9663C43.6444 34.3845 43.6504 34.7937 43.6776 35.1939C43.6934 35.4234 43.815 35.5384 44.0424 35.539C44.8498 35.5406 45.6572 35.5414 46.4647 35.5414C46.4679 35.5414 46.5293 35.5447 46.6487 35.5512C46.9322 35.567 47.072 35.4207 47.0682 35.1121C47.0682 35.1121 47.0707 29.8782 47.0756 19.4104C47.0756 19.2049 47.0595 18.9999 47.0273 18.7954C47.0219 18.7617 47.0049 18.731 46.9795 18.7089C46.954 18.6867 46.9217 18.6745 46.8883 18.6744L43.9729 18.654C43.8578 18.6534 43.7788 18.7079 43.7357 18.8175C43.6686 18.9882 43.6354 19.1653 43.6359 19.3491C43.6479 23.3972 43.6539 27.4583 43.6539 31.5326C43.6539 31.5551 43.6479 31.5771 43.6363 31.5964C43.6248 31.6157 43.6083 31.6315 43.5885 31.6422C42.8716 32.0353 42.1481 32.3716 41.4181 32.6513C40.9285 32.8389 40.4869 32.9506 40.0932 32.9866C39.6102 33.0313 39.1495 33.009 38.7112 32.9196C38.2859 32.8329 37.9103 32.6358 37.5842 32.3283C37.4 32.1544 37.2536 31.9319 37.1451 31.661C36.921 31.1011 36.8076 30.5136 36.8049 29.8986C36.7678 28.3448 36.7536 26.791 36.7624 25.2372C36.7738 23.1038 36.7675 20.9716 36.7435 18.8404C36.7425 18.7335 36.6885 18.6782 36.5816 18.6744C35.5719 18.6406 34.5628 18.6406 33.5541 18.6744C33.5056 18.676 33.4773 18.7101 33.4691 18.7766Z" fill="#EC1F27"/>
<path d="M51.1765 17.9595C54.578 17.9595 57.9792 17.9595 61.3801 17.9595C62.0164 17.9077 62.5291 18.1309 62.9184 18.6292C63.1147 18.88 63.2144 19.1611 63.2177 19.4724C63.2243 20.1675 63.2251 20.8626 63.2202 21.5578C63.224 21.838 63.1201 22.1226 62.9086 22.4115C61.1874 24.7597 59.47 27.1109 57.7565 29.465C57.1949 30.237 56.6249 31.0049 56.0465 31.7688C56.011 31.8156 56.0225 31.8402 56.0808 31.8424C56.3223 31.8505 56.569 31.8543 56.8209 31.8538C59.4106 31.8456 61.312 31.8552 62.525 31.8824C62.8064 31.889 63.0119 31.9953 63.1417 32.2014C63.2196 32.3246 63.263 32.529 63.2717 32.8147C63.3066 33.9793 63.303 34.8407 63.2611 35.3989C63.2196 35.949 62.9061 36.2012 62.3206 36.1554C62.1101 36.1778 61.8989 36.1878 61.6868 36.1857C57.2565 36.1404 53.8559 36.1371 51.4848 36.1758C51.1059 36.1818 50.796 36.1025 50.555 35.9379C50.109 35.6326 49.8738 35.2417 49.8492 34.7652C49.828 34.3432 49.8195 33.9206 49.8239 33.4976C49.8282 33.0887 49.9337 32.7087 50.1404 32.3576C50.3453 32.0097 50.6348 31.5883 51.0089 31.0933C51.5142 30.4243 51.8209 30.0151 51.9289 29.8657C53.7973 27.2831 55.7035 24.6648 57.6477 22.0108C57.6766 21.9716 57.6665 21.9506 57.6175 21.9478C57.1399 21.9206 56.6426 21.9075 56.1258 21.9086C52.9587 21.9162 51.3368 21.922 51.2599 21.9258C51.0664 21.935 50.8483 21.9214 50.6057 21.8849C50.4372 21.8593 50.3094 21.7827 50.2221 21.6551C50.1404 21.5346 50.1008 21.3454 50.1036 21.0875C50.1112 20.3924 50.115 19.6973 50.115 19.0022C50.0965 18.5567 50.2538 18.2454 50.5869 18.0682C50.7226 17.9957 50.9192 17.9595 51.1765 17.9595ZM50.7316 19.9835C50.7365 20.3766 50.715 20.7105 50.667 20.9853C50.6463 21.1047 50.694 21.1524 50.8101 21.1284C50.7692 21.3007 50.8306 21.3689 50.9941 21.3329C51.0596 21.3187 52.4362 21.3187 55.124 21.3329C55.6147 21.3089 56.1054 21.2895 56.596 21.2748L57.9855 21.2871C58.1299 21.2882 58.2578 21.3457 58.369 21.4596C58.5615 21.6559 58.5822 21.8505 58.4312 22.0435C57.6292 23.1803 56.8147 24.308 55.9876 25.4268C54.3002 27.7706 52.5995 30.1043 50.8854 32.4279C50.6607 32.7327 50.5389 33.0756 50.5198 33.4567C50.4991 33.8661 50.5075 34.275 50.5452 34.6834C50.5801 35.059 50.7518 35.3172 51.0604 35.4578C51.1601 35.5031 51.2834 35.529 51.43 35.5355C51.5331 35.5399 51.6604 35.5421 51.8119 35.5421C55.3061 35.5448 58.8011 35.5431 62.2969 35.5372C62.4801 35.5366 62.5777 35.4447 62.5896 35.2616C62.6469 34.4012 62.6523 33.5466 62.606 32.6978C62.6043 32.6653 62.5902 32.6347 62.5666 32.6123C62.543 32.59 62.5118 32.5775 62.4792 32.5776C60.3154 32.5776 58.1771 32.5795 56.0645 32.5833C55.8747 32.5833 55.6872 32.5664 55.5018 32.5326C55.3704 32.5086 55.2734 32.4522 55.2107 32.3633C55.0678 32.1621 55.0801 31.9476 55.2475 31.7197C57.4495 28.72 59.6404 25.7124 61.8201 22.6969C61.8981 22.5895 62.0224 22.4399 62.193 22.248C62.3304 22.0926 62.4411 21.883 62.525 21.6191C62.555 21.5242 62.5578 20.9371 62.5332 19.8576C62.5261 19.5452 62.494 19.32 62.4367 19.1821C62.331 18.9291 62.1513 18.7664 61.8978 18.6938C61.8062 18.6677 61.5003 18.6546 60.9802 18.6546C57.6731 18.6524 54.3599 18.654 51.0407 18.6595C50.863 18.66 50.7714 18.7484 50.766 18.9245L50.7316 19.9835Z" fill="#EC1F27"/>
<path d="M92.272 18.3242C92.3369 18.4883 92.338 18.653 92.2753 18.8182C92.2284 18.6535 92.2273 18.4889 92.272 18.3242Z" fill="#837F81"/>
<path d="M36.5812 18.6748C36.6881 18.6786 36.7421 18.7339 36.7432 18.8408C36.7672 20.972 36.7734 23.1042 36.762 25.2376C36.7533 26.7914 36.7674 28.3452 36.8045 29.899C36.8072 30.514 36.9206 31.1014 37.1447 31.6614C37.2532 31.9323 37.3996 32.1548 37.5839 32.3287C37.9099 32.6362 38.2855 32.8333 38.7108 32.9199C39.1491 33.0094 39.6098 33.0317 40.0929 32.987C40.4865 32.951 40.9281 32.8393 41.4177 32.6517C42.1477 32.372 42.8712 32.0356 43.5881 31.6425C43.6079 31.6319 43.6244 31.6161 43.636 31.5968C43.6475 31.5775 43.6536 31.5554 43.6535 31.533C43.6535 27.4587 43.6475 23.3975 43.6356 19.3494C43.635 19.1657 43.6683 18.9885 43.7353 18.8179C43.7784 18.7083 43.8574 18.6538 43.9725 18.6543L46.8879 18.6748C46.9213 18.6748 46.9536 18.6871 46.9791 18.7092C47.0046 18.7314 47.0215 18.7621 47.0269 18.7958C47.0591 19.0002 47.0752 19.2052 47.0752 19.4108C47.0703 29.8786 47.0678 35.1124 47.0678 35.1124C47.0717 35.421 46.9318 35.5674 46.6483 35.5516C46.5289 35.5451 46.4676 35.5418 46.4643 35.5418C45.6569 35.5418 44.8494 35.541 44.042 35.5393C43.8146 35.5388 43.6931 35.4238 43.6773 35.1942C43.65 34.7941 43.644 34.3849 43.6593 33.9667C43.6596 33.96 43.6582 33.9533 43.6552 33.9472C43.6522 33.9412 43.6476 33.936 43.6421 33.9322C43.6365 33.9285 43.63 33.9262 43.6233 33.9256C43.6165 33.9251 43.6098 33.9263 43.6037 33.9291C43.4744 33.9863 43.3537 34.055 43.2414 34.1352C43.0435 34.2758 42.9437 34.3467 42.9421 34.3478C42.2562 34.7823 41.5853 35.1105 40.9295 35.3324C39.718 35.7419 38.4657 35.8457 37.1725 35.644C36.1972 35.4919 35.387 35.0874 34.742 34.4304C34.3969 34.0782 34.1279 33.6494 33.9349 33.144C33.7479 32.6555 33.6192 32.1275 33.5489 31.5599C33.4289 30.5982 33.3613 29.7992 33.346 29.163C33.4126 28.5088 33.4137 27.8545 33.3493 27.2003C33.351 26.9342 33.3499 26.6684 33.346 26.4029C33.3319 24.733 33.3531 23.0691 33.4098 21.4111C33.4115 21.3675 33.4123 21.3236 33.4123 21.2794C33.409 20.6808 33.4134 20.1503 33.4254 19.688C33.4254 19.6858 33.4167 19.5427 33.3992 19.2587C33.3888 19.0962 33.412 18.9356 33.4687 18.777C33.4769 18.7105 33.5052 18.6764 33.5538 18.6748C34.5624 18.641 35.5715 18.641 36.5812 18.6748Z" fill="white"/>
<path d="M51.0417 18.6592C54.3609 18.6537 57.6741 18.6521 60.9812 18.6543C61.5013 18.6543 61.8072 18.6673 61.8988 18.6935C62.1523 18.766 62.3319 18.9288 62.4377 19.1817C62.495 19.3197 62.5271 19.5448 62.5342 19.8572C62.5587 20.9367 62.556 21.5239 62.526 21.6188C62.4421 21.8826 62.3314 22.0923 62.194 22.2476C62.0234 22.4396 61.8991 22.5892 61.8211 22.6966C59.6414 25.7121 57.4505 28.7197 55.2485 31.7194C55.0811 31.9472 55.0688 32.1618 55.2117 32.363C55.2744 32.4518 55.3714 32.5083 55.5028 32.5322C55.6882 32.566 55.8757 32.5829 56.0655 32.5829C58.1781 32.5791 60.3164 32.5772 62.4802 32.5772C62.5128 32.5772 62.544 32.5896 62.5676 32.612C62.5912 32.6344 62.6053 32.665 62.607 32.6974C62.6533 33.5463 62.6479 34.4009 62.5906 35.2612C62.5786 35.4444 62.4811 35.5363 62.2979 35.5368C58.8021 35.5428 55.3071 35.5445 51.8129 35.5417C51.6614 35.5417 51.5341 35.5395 51.431 35.5352C51.2844 35.5286 51.1611 35.5027 51.0614 35.4575C50.7528 35.3168 50.581 35.0587 50.5462 34.683C50.5085 34.2747 50.5001 33.8658 50.5208 33.4563C50.5399 33.0753 50.6617 32.7323 50.8864 32.4276C52.6005 30.1039 54.3012 27.7702 55.9886 25.4264C56.8156 24.3077 57.6302 23.1799 58.4322 22.0432C58.5832 21.8502 58.5625 21.6556 58.37 21.4593C58.2588 21.3453 58.1309 21.2878 57.9865 21.2867L56.597 21.2745C56.0704 21.2298 55.7773 21.2014 55.7179 21.1894C55.448 21.136 55.1754 21.1155 54.9001 21.1281C54.2279 21.1281 53.5556 21.1281 52.8834 21.1281C52.8551 21.1281 52.6602 21.1428 52.2987 21.1722C52.0893 21.1897 51.8797 21.175 51.6698 21.1281C51.6589 21.1259 51.3727 21.1259 50.8111 21.1281L50.7326 19.9832L50.767 18.9241C50.7724 18.748 50.864 18.6597 51.0417 18.6592Z" fill="white"/>
<path d="M33.4699 18.7765C33.4132 18.9351 33.3901 19.0957 33.4004 19.2582C33.4179 19.5422 33.4266 19.6853 33.4266 19.6875C33.4146 20.1498 33.4102 20.6803 33.4135 21.279C33.4135 21.3231 33.4127 21.367 33.411 21.4106C33.3543 23.0686 33.3331 24.7325 33.3473 26.4024H33.3334C33.3361 25.2215 33.3287 24.0409 33.3113 22.8606C33.2933 21.6693 33.2927 20.4783 33.3096 19.2876C33.2971 19.1666 33.311 19.0483 33.3514 18.9327C33.3568 18.9169 33.3609 18.8902 33.3636 18.8526C33.3674 18.7997 33.4029 18.7743 33.4699 18.7765Z" fill="#E5AD9D"/>
<path d="M155.652 18.8008L155.648 18.9611L154.813 18.9782C154.873 18.9641 154.883 18.9371 154.843 18.8973C154.842 18.8962 154.831 18.8891 154.81 18.876C154.788 18.8618 154.782 18.8368 154.793 18.8008H155.652Z" fill="#A7A5A5"/>
<path d="M119.955 18.8003C119.978 18.8499 119.985 18.9022 119.975 18.9573C119.512 18.9944 119.049 18.9954 118.585 18.9606C117.925 18.9993 117.264 19.0186 116.602 19.0186C116.693 18.9788 116.788 18.9652 116.889 18.9777C117.057 18.9984 117.215 18.9717 117.364 18.8976C117.388 18.8858 117.414 18.8807 117.439 18.8829C117.714 18.9101 118.048 18.8951 118.442 18.8379C118.811 18.7839 119.315 18.7714 119.955 18.8003Z" fill="#A7A5A5"/>
<path d="M119.955 18.8008L120.605 18.8564C120.614 18.8571 120.624 18.8621 120.632 18.8708C120.64 18.8794 120.647 18.8913 120.651 18.9046C120.667 18.9662 120.722 18.9861 120.813 18.9643L119.975 18.9578C119.984 18.9027 119.977 18.8504 119.955 18.8008Z" fill="#5A565A"/>
<path d="M137.537 18.7979C137.625 18.8213 137.713 18.8406 137.803 18.8559C137.797 18.9399 137.858 18.9739 137.987 18.9581L136.024 18.9377C136.526 18.8641 137.03 18.8175 137.537 18.7979Z" fill="#B5B0B0"/>
<path d="M154.792 18.8013C154.781 18.8373 154.787 18.8623 154.809 18.8765C154.83 18.8896 154.841 18.8967 154.842 18.8978C154.883 18.9376 154.873 18.9646 154.813 18.9787L154.261 18.9583C154.263 18.8863 154.296 18.8504 154.359 18.8504C154.392 18.8504 154.418 18.8471 154.437 18.8405C154.552 18.804 154.671 18.7909 154.792 18.8013Z" fill="#5A565A"/>
<path d="M155.652 18.8007C155.937 18.7483 156.189 18.8075 156.409 18.9781L155.649 18.9609L155.652 18.8007Z" fill="#5A565A"/>
<path d="M110.22 19.1495C110.254 19.8326 110.258 20.516 110.232 21.1997C110.226 21.3594 110.185 21.4764 110.109 21.5505C110.004 21.6547 109.865 21.7048 109.692 21.701C108.785 21.6819 107.863 21.8436 106.927 22.1859C106.28 22.4226 105.757 22.6445 105.358 22.8516C105.347 22.8573 105.338 22.8658 105.332 22.8764C105.325 22.8869 105.322 22.899 105.322 22.9113L105.32 33.6604C105.283 34.4695 105.275 35.076 105.297 35.48C105.301 35.5607 105.289 35.6185 105.261 35.6534C105.249 35.6674 105.24 35.6808 105.233 35.6924C105.226 35.7041 105.223 35.7134 105.222 35.7196C105.22 35.7469 105.224 35.775 105.235 35.8039C105.212 35.806 105.191 35.815 105.174 35.8309C104.881 35.8881 104.586 35.9113 104.29 35.9004C104.219 35.8976 104.14 35.908 104.05 35.9314C103.971 35.9527 103.889 35.9647 103.804 35.9674H103.6C103.113 35.842 102.623 35.8238 102.128 35.9126C101.976 35.863 101.9 35.7529 101.899 35.5822C101.871 30.3282 101.872 25.0739 101.903 19.8192C101.89 19.5216 101.896 19.3376 101.923 19.2672C101.971 19.1435 102.059 19.0849 102.187 19.0914C102.296 19.0974 102.351 19.1001 102.354 19.0996C103.226 19.0614 104.093 19.0693 104.956 19.1233C105.083 19.1315 105.149 19.1994 105.153 19.3269L105.194 20.597C105.196 20.6515 105.217 20.6608 105.258 20.6248C106.465 19.5731 107.87 18.9946 109.474 18.8894C109.709 18.8741 109.84 18.8684 109.868 18.8722C109.999 18.8902 110.108 18.9578 110.195 19.0751C110.211 19.0959 110.219 19.1218 110.22 19.1495Z" fill="white"/>
<path d="M137.804 18.8555L138.575 18.8816C138.589 18.8822 138.603 18.8852 138.616 18.8906C138.628 18.8959 138.638 18.9035 138.646 18.9127L138.703 18.9781L137.988 18.9577C137.859 18.9735 137.798 18.9394 137.804 18.8555Z" fill="#5A565A"/>
<path d="M118.585 18.9603C119.048 18.9952 119.511 18.9941 119.975 18.957L120.813 18.9636C121.828 19.0317 122.719 19.2776 123.486 19.7012C124.62 20.3277 125.349 21.2886 125.674 22.584C125.798 23.079 125.874 23.5582 125.901 24.0216C125.903 24.0533 125.904 24.5363 125.904 25.4708C125.904 28.8483 125.904 32.2255 125.904 35.6024C125.898 35.8145 125.802 35.9236 125.618 35.9296C124.793 35.9563 123.969 35.9563 123.144 35.9296C122.838 35.9503 122.695 35.8072 122.714 35.5002C122.727 35.3045 122.708 35.0046 122.658 34.6006C122.657 34.5963 122.656 34.5922 122.653 34.5888C122.651 34.5853 122.647 34.5825 122.643 34.5807C122.639 34.5789 122.635 34.5781 122.631 34.5784C122.626 34.5788 122.622 34.5802 122.619 34.5826C121.918 35.0455 121.179 35.4263 120.4 35.7251C119.861 35.9317 119.335 36.0656 118.821 36.1266C118.004 36.2237 117.184 36.1972 116.361 36.0473C116.268 36.0304 116.085 35.9783 115.814 35.8911C115.595 35.8202 115.418 35.7537 115.282 35.6916C114.357 35.2647 113.701 34.5723 113.315 33.6144C113.227 33.3958 113.151 33.158 113.086 32.9013C113.026 32.6685 112.985 32.4226 112.961 32.1636C112.893 31.4347 112.914 30.7068 113.024 29.9801C113.039 29.8792 113.109 29.6519 113.235 29.2981C113.329 29.0325 113.424 28.8156 113.521 28.6471C113.869 28.0419 114.335 27.5714 114.92 27.2356C115.728 26.7716 116.614 26.4786 117.578 26.3564C118.103 26.2899 118.6 26.2414 119.066 26.2109C119.433 26.1869 119.931 26.1798 120.559 26.1896C121.186 26.1989 121.805 26.2065 122.416 26.2125C122.426 26.2126 122.437 26.2106 122.446 26.2067C122.456 26.2027 122.464 26.1968 122.472 26.1894C122.479 26.182 122.485 26.1732 122.488 26.1635C122.492 26.1539 122.494 26.1436 122.494 26.1332C122.473 25.4882 122.463 24.8828 122.463 24.3169C122.463 23.9161 122.418 23.5209 122.327 23.1311C122.29 22.9713 122.226 22.8233 122.136 22.687C121.863 22.2748 121.512 21.9905 121.082 21.834C120.841 21.7463 120.412 21.6773 119.796 21.6271C119.294 21.5862 118.79 21.5811 118.285 21.6116C117.816 21.6394 117.58 21.6536 117.575 21.6541C116.475 21.7026 115.325 21.7626 114.125 21.834C114.019 21.84 113.964 21.7901 113.96 21.6844C113.939 21.1495 113.934 20.5823 113.944 19.9825C113.947 19.7977 113.959 19.656 113.98 19.5573C113.985 19.5321 114.001 19.5098 114.025 19.4951C114.298 19.3229 114.598 19.2264 114.925 19.2056C115.483 19.1391 116.042 19.0767 116.601 19.0184C117.263 19.0184 117.924 18.999 118.585 18.9603ZM116.951 33.1082C117.068 33.2096 117.199 33.2881 117.345 33.3437C117.66 33.4647 117.983 33.5397 118.315 33.5686C118.565 33.5904 118.894 33.5945 119.303 33.5808C119.946 33.559 120.572 33.4396 121.183 33.2227C121.613 33.0695 122.027 32.8794 122.424 32.6526C122.438 32.645 122.449 32.6337 122.457 32.6201C122.465 32.6064 122.469 32.5909 122.469 32.575V28.239C122.469 28.232 122.468 28.2251 122.465 28.2186C122.462 28.2121 122.458 28.2063 122.453 28.2014C122.448 28.1965 122.443 28.1927 122.436 28.1902C122.43 28.1876 122.423 28.1865 122.416 28.1867C121.632 28.203 120.839 28.2101 120.036 28.2079C119.517 28.2068 119.008 28.2611 118.508 28.3707C117.888 28.5064 117.427 28.7084 117.125 28.9767C116.839 29.2302 116.641 29.5486 116.531 29.9318C116.454 30.2006 116.408 30.5626 116.392 31.0179C116.377 31.4628 116.415 31.9055 116.507 32.346C116.57 32.6518 116.719 32.9059 116.951 33.1082Z" fill="white"/>
<path d="M154.26 18.957L154.812 18.9775L155.647 18.9603L156.407 18.9775C157.035 19.0135 157.585 19.1252 158.058 19.3128C159.842 20.0215 161.073 21.2755 161.751 23.0746C162.067 23.9142 162.251 24.8787 162.3 25.968C162.335 26.7105 162.335 27.4534 162.3 28.1965C162.317 28.3153 162.291 28.4118 162.223 28.486C162.172 28.5416 162.088 28.5724 161.972 28.5784C161.823 28.586 161.638 28.5898 161.416 28.5898C158.172 28.5898 154.912 28.5898 151.635 28.5898C151.622 28.5898 151.61 28.595 151.601 28.6041C151.591 28.6133 151.586 28.6258 151.585 28.6389C151.576 28.8859 151.57 29.1081 151.568 29.3054C151.561 30.1815 151.786 30.9901 152.245 31.731C152.601 32.3051 153.049 32.7148 153.591 32.9601C154.054 33.17 154.604 33.2943 155.242 33.3331C155.613 33.3554 156.301 33.3475 157.307 33.3093L158.39 33.2889C158.648 33.3009 158.905 33.314 159.162 33.3281C159.289 33.32 159.324 33.2545 159.269 33.1319L160.21 33.1253L160.905 33.1049C161.073 33.1365 161.237 33.1281 161.398 33.0795C161.421 33.0727 161.448 33.0747 161.473 33.0853C161.538 33.1136 161.608 33.1202 161.682 33.1049C161.724 33.89 161.719 34.6748 161.665 35.4593C161.664 35.4727 161.66 35.4856 161.654 35.4972C161.648 35.5087 161.64 35.5187 161.63 35.5264C161.529 35.6033 161.416 35.6542 161.289 35.6793C160.824 35.7469 160.361 35.8219 159.899 35.9042C159.37 35.998 158.905 36.0579 158.506 36.0841C157.363 36.1594 156.172 36.1896 154.935 36.1749C154.272 36.1673 153.644 36.0765 153.05 35.9026C151.604 35.4795 150.43 34.6952 149.529 33.5498C149.219 33.1556 148.966 32.7369 148.771 32.2936C148.568 31.834 148.421 31.3627 148.331 30.8797C148.282 30.6147 148.229 30.2879 148.174 29.8991C148.128 29.5753 148.098 29.2463 148.085 28.9121C148.042 27.7481 148.042 26.782 148.086 26.0138C148.107 25.648 148.194 25.0491 148.345 24.2171C148.52 23.2614 148.874 22.3937 149.409 21.614C149.721 21.1594 150.085 20.7562 150.5 20.4045C151.555 19.5104 152.809 19.0279 154.26 18.957ZM153.111 26.3254C155.019 26.3488 156.927 26.3455 158.835 26.3156C158.846 26.3156 158.856 26.3112 158.864 26.3033C158.872 26.2955 158.876 26.2849 158.876 26.2738C158.874 25.8159 158.841 25.3612 158.776 24.9098C158.698 24.3711 158.569 23.9243 158.389 23.5694C158.021 22.8454 157.46 22.3228 156.707 22.0017C156.343 21.8458 155.942 21.7531 155.505 21.7236C155.061 21.6936 154.646 21.7266 154.26 21.8226C153.287 22.0647 152.553 22.6524 152.057 23.5858C151.723 24.216 151.565 24.9299 151.582 25.7276C151.569 25.9173 151.569 26.1067 151.584 26.2959C151.585 26.3069 151.59 26.3173 151.598 26.3248C151.606 26.3324 151.617 26.3367 151.629 26.3368C152.123 26.3428 152.617 26.339 153.111 26.3254Z" fill="white"/>
<path d="M139.213 18.9845C139.395 18.966 139.572 18.9843 139.745 19.0393L139.213 18.9845Z" fill="#837F81"/>
<path d="M50.7314 19.9834L50.8099 21.1283C50.6938 21.1523 50.6461 21.1046 50.6668 20.9852C50.7148 20.7104 50.7363 20.3765 50.7314 19.9834Z" fill="#D48272"/>
<path d="M51.6693 21.1276C51.8792 21.1745 52.0888 21.1892 52.2982 21.1718C52.6596 21.1423 52.8546 21.1276 52.8829 21.1276C53.5551 21.1276 54.2274 21.1276 54.8996 21.1276C55.1749 21.1151 55.4475 21.1355 55.7174 21.1889C55.7768 21.2009 56.0698 21.2293 56.5965 21.274C56.1058 21.2887 55.6152 21.3081 55.1245 21.332C52.4367 21.3179 51.06 21.3179 50.9946 21.332C50.8311 21.368 50.7697 21.2999 50.8106 21.1276C51.3722 21.1254 51.6584 21.1254 51.6693 21.1276Z" fill="#EDC1B3"/>
<path d="M137.272 21.5573C137.641 21.548 138.008 21.5586 138.375 21.5892C139.008 21.642 139.653 21.7026 140.311 21.7707C140.347 21.7745 140.38 21.7915 140.404 21.8182C140.428 21.8449 140.441 21.8795 140.441 21.9155C140.441 25.5339 140.441 29.1219 140.441 32.6793C140.441 32.9197 140.428 33.1092 140.402 33.2477C140.401 33.2593 140.395 33.2701 140.386 33.2785C140.378 33.2869 140.366 33.2924 140.354 33.2943C138.991 33.5102 137.691 33.571 136.454 33.4766C136.036 33.445 135.639 33.3275 135.262 33.1242C134.906 32.9323 134.599 32.6695 134.339 32.3358C133.996 31.8964 133.767 31.3975 133.653 30.8392C133.561 30.3867 133.503 29.9154 133.48 29.4253C133.472 29.2694 133.466 28.7948 133.46 28.0015C133.453 26.9002 133.477 25.8902 133.531 24.9716C133.568 24.3353 133.748 23.7168 134.072 23.116C134.476 22.3653 135.102 21.8882 135.948 21.6848C136.402 21.5758 136.843 21.5333 137.272 21.5573Z" fill="#252525"/>
<path d="M156.709 22.0026C157.462 22.3237 158.023 22.8463 158.391 23.5703C158.571 23.9253 158.7 24.3721 158.778 24.9107C158.843 25.3621 158.876 25.8168 158.878 26.2748C158.878 26.2858 158.874 26.2965 158.866 26.3043C158.858 26.3121 158.848 26.3165 158.837 26.3165C156.929 26.3465 155.021 26.3498 153.113 26.3263C152.619 26.3399 152.125 26.3438 151.631 26.3378C151.619 26.3376 151.608 26.3333 151.6 26.3258C151.592 26.3182 151.587 26.3079 151.586 26.2969C151.571 26.1077 151.57 25.9182 151.584 25.7285C151.567 24.9309 151.725 24.2169 152.059 23.5867C152.555 22.6533 153.289 22.0656 154.262 21.8235C154.648 21.7276 155.063 21.6946 155.507 21.7246C155.944 21.754 156.344 21.8467 156.709 22.0026Z" fill="#252525"/>
<path d="M12.5008 23.459C12.5199 23.9371 12.5529 24.4142 12.5997 24.8901C12.579 25.3514 12.5717 25.8131 12.5777 26.2755C12.6076 28.5942 12.6082 30.9129 12.5793 33.2316C12.5281 33.5359 12.5019 33.8425 12.5008 34.1517C12.4626 30.5877 12.4626 27.0235 12.5008 23.459Z" fill="#C74A43"/>
<path d="M33.3339 26.4023H33.3478C33.3516 26.6679 33.3527 26.9336 33.3511 27.1997C33.4154 27.8539 33.4143 28.5082 33.3478 29.1624C33.2731 28.2432 33.2685 27.3232 33.3339 26.4023Z" fill="#E5AD9D"/>
<path d="M122.417 28.1875C122.424 28.1873 122.431 28.1885 122.437 28.191C122.443 28.1936 122.449 28.1974 122.454 28.2023C122.459 28.2071 122.463 28.213 122.466 28.2195C122.469 28.2259 122.47 28.2329 122.47 28.2399V32.5758C122.47 32.5917 122.466 32.6073 122.458 32.6209C122.45 32.6346 122.439 32.6458 122.425 32.6535C122.028 32.8803 121.614 33.0703 121.184 33.2235C120.573 33.4405 119.947 33.5599 119.304 33.5817C118.895 33.5953 118.566 33.5912 118.316 33.5694C117.984 33.5405 117.661 33.4656 117.346 33.3445C117.2 33.2889 117.069 33.2104 116.952 33.109C116.719 32.9067 116.571 32.6527 116.507 32.3468C116.416 31.9063 116.378 31.4636 116.393 31.0187C116.409 30.5635 116.455 30.2015 116.532 29.9327C116.642 29.5494 116.839 29.231 117.126 28.9775C117.428 28.7093 117.889 28.5073 118.509 28.3715C119.009 28.2619 119.518 28.2077 120.037 28.2088C120.84 28.211 121.633 28.2039 122.417 28.1875Z" fill="#252525"/>
<path d="M160.217 32.9942L160.907 33.0105V33.1062L160.212 33.1267C160.246 33.0776 160.246 33.0394 160.211 33.0122C160.195 32.9996 160.198 32.9936 160.217 32.9942Z" fill="#5A565A"/>
<path d="M161.67 33.0175C161.685 33.0425 161.69 33.072 161.684 33.1058C161.609 33.1211 161.54 33.1145 161.474 33.0862C161.449 33.0756 161.423 33.0736 161.4 33.0804C161.239 33.129 161.075 33.1374 160.907 33.1058V33.0101L161.603 32.9864C161.617 32.9859 161.631 32.9885 161.643 32.994C161.654 32.9994 161.664 33.0076 161.67 33.0175Z" fill="#B5B0B0"/>
<path d="M159.271 33.1328C159.326 33.2555 159.291 33.3209 159.164 33.3291C158.907 33.3149 158.649 33.3018 158.392 33.2898C158.454 33.2849 158.488 33.253 158.494 33.1941L159.271 33.1328Z" fill="#A7A5A5"/>
<path d="M158.493 33.1936C158.487 33.2525 158.453 33.2844 158.391 33.2893L157.308 33.3097L158.067 33.2689C158.09 33.2678 158.089 33.2661 158.067 33.264C157.945 33.2503 157.945 33.2329 158.064 33.2116C158.206 33.186 158.349 33.18 158.493 33.1936Z" fill="#5A565A"/>
<path d="M105.32 33.6611C105.368 34.3563 105.365 35.0514 105.313 35.7465C105.309 35.7901 105.283 35.8095 105.235 35.8046C105.224 35.7757 105.22 35.7476 105.222 35.7203C105.222 35.7141 105.226 35.7048 105.233 35.6931C105.239 35.6815 105.249 35.6681 105.26 35.6541C105.289 35.6192 105.301 35.5614 105.296 35.4807C105.274 35.0767 105.282 34.4702 105.32 33.6611Z" fill="#5A565A"/>
<path d="M88.7769 35.8105C88.8026 35.8231 88.8298 35.8299 88.8587 35.831C88.8576 35.885 88.844 35.9373 88.8178 35.988C88.7524 35.9466 88.7388 35.8874 88.7769 35.8105Z" fill="#5A565A"/>
<path d="M91.3521 35.9479C90.5081 36.0264 89.663 36.04 88.8169 35.9888C88.8431 35.9381 88.8567 35.8858 88.8578 35.8318C89.6947 35.7631 90.5261 35.8018 91.3521 35.9479Z" fill="#A7A5A5"/>
<path d="M105.173 35.8311C105.202 35.8796 105.205 35.9226 105.18 35.9603C105.173 35.9698 105.164 35.9778 105.152 35.9835C105.14 35.9892 105.126 35.9925 105.112 35.993C104.676 36.0121 104.239 36.0036 103.803 35.9676C103.888 35.9649 103.97 35.9529 104.049 35.9316C104.139 35.9082 104.219 35.8978 104.289 35.9006C104.586 35.9115 104.88 35.8883 105.173 35.8311Z" fill="#837F81"/>
<path d="M103.599 35.9675C103.157 35.9975 102.714 35.9986 102.271 35.9708C102.256 35.9697 102.208 35.9503 102.127 35.9127C102.622 35.8238 103.113 35.8421 103.599 35.9675Z" fill="#B5B0B0"/>
</svg>
