<svg width="18" height="18" viewBox="0 0 18 18" fill="none" xmlns="http://www.w3.org/2000/svg">
<path d="M17.4165 15.2989C18.0127 15.8951 18.0127 16.8225 17.4165 17.4187C17.1184 17.7168 16.7541 17.8493 16.3566 17.8493C15.9592 17.8493 15.5948 17.7168 15.2967 17.4187L9.23543 11.3574L3.17413 17.4187C2.87603 17.7168 2.51169 17.8493 2.11423 17.8493C1.71677 17.8493 1.35243 17.7168 1.05433 17.4187C0.458137 16.8225 0.458137 15.8951 1.05433 15.2989L7.11563 9.23762L1.05433 3.17632C0.458137 2.58013 0.458137 1.65271 1.05433 1.05652C1.65052 0.460327 2.57794 0.460327 3.17413 1.05652L9.23543 7.11782L15.2967 1.05652C15.8929 0.460327 16.8203 0.460327 17.4165 1.05652C18.0127 1.65271 18.0127 2.58013 17.4165 3.17632L11.3552 9.23762L17.4165 15.2989Z" fill="#3F3F3F"/>
</svg>
