<svg width="24" height="24" viewBox="0 0 24 24" fill="none" xmlns="http://www.w3.org/2000/svg">
<mask id="path-1-inside-1_6_1434" fill="white">
<path fill-rule="evenodd" clip-rule="evenodd" d="M20.5 23.5H3.5C2.83696 23.5 2.20107 23.2366 1.73223 22.7678C1.26339 22.2989 1 21.663 1 21V1C1 0.867392 1.05268 0.740215 1.14645 0.646447C1.24021 0.552678 1.36739 0.5 1.5 0.5H18.5C18.6325 0.500264 18.7596 0.553028 18.8533 0.646739C18.947 0.740449 18.9997 0.867473 19 1V8H22.5C22.6326 8 22.7598 8.05268 22.8536 8.14645C22.9473 8.24021 23 8.36739 23 8.5V21C23 21.663 22.7366 22.2989 22.2678 22.7678C21.7989 23.2366 21.163 23.5 20.5 23.5ZM18 21V1.5H2V21C2 21.3978 2.15804 21.7794 2.43934 22.0607C2.72064 22.342 3.10218 22.5 3.5 22.5H18.511C18.1813 22.0693 18.0018 21.5424 18 21ZM22 9H19V21C19 21.3978 19.158 21.7794 19.4393 22.0607C19.7206 22.342 20.1022 22.5 20.5 22.5C20.8978 22.5 21.2794 22.342 21.5607 22.0607C21.842 21.7794 22 21.3978 22 21V9ZM3.5 20C3.5 19.8674 3.55268 19.7402 3.64645 19.6464C3.74021 19.5527 3.86739 19.5 4 19.5H8.5C8.63261 19.5 8.75979 19.5527 8.85355 19.6464C8.94732 19.7402 9 19.8674 9 20C9 20.1326 8.94732 20.2598 8.85355 20.3536C8.75979 20.4473 8.63261 20.5 8.5 20.5H4C3.86739 20.5 3.74021 20.4473 3.64645 20.3536C3.55268 20.2598 3.5 20.1326 3.5 20ZM5.833 11.8575C5.74049 11.9444 5.61781 11.9918 5.49094 11.9898C5.36406 11.9878 5.24294 11.9365 5.15322 11.8468C5.06349 11.7571 5.0122 11.6359 5.0102 11.5091C5.0082 11.3822 5.05565 11.2595 5.1425 11.167L8.095 8.2145C8.111 8.191 8.1215 8.164 8.1425 8.143C8.18937 8.09643 8.24525 8.05991 8.30672 8.03566C8.36819 8.01142 8.43396 7.99997 8.5 8.002C8.56606 7.99985 8.63186 8.01125 8.69334 8.0355C8.75483 8.05975 8.8107 8.09633 8.8575 8.143C8.8785 8.164 8.8885 8.191 8.905 8.2145L11 10.3095L12.095 9.2145C12.111 9.191 12.1215 9.164 12.1425 9.143C12.1893 9.0964 12.2452 9.05989 12.3067 9.03572C12.3682 9.01156 12.434 9.00025 12.5 9.0025C12.566 9.00025 12.6318 9.01156 12.6933 9.03572C12.7548 9.05989 12.8107 9.0964 12.8575 9.143C12.8785 9.164 12.8885 9.191 12.905 9.2145L14.8575 11.167C14.9444 11.2595 14.9918 11.3822 14.9898 11.5091C14.9878 11.6359 14.9365 11.7571 14.8468 11.8468C14.7571 11.9365 14.6359 11.9878 14.5091 11.9898C14.3822 11.9918 14.2595 11.9444 14.167 11.8575L12.5 10.1905L11.6905 11L11.8575 11.167C11.9444 11.2595 11.9918 11.3822 11.9898 11.5091C11.9878 11.6359 11.9365 11.7571 11.8468 11.8468C11.7571 11.9365 11.6359 11.9878 11.5091 11.9898C11.3822 11.9918 11.2595 11.9444 11.167 11.8575L8.5 9.1905L5.833 11.8575ZM11.5 14.5H16C16.1326 14.5 16.2598 14.5527 16.3536 14.6464C16.4473 14.7402 16.5 14.8674 16.5 15C16.5 15.1326 16.4473 15.2598 16.3536 15.3536C16.2598 15.4473 16.1326 15.5 16 15.5H11.5C11.3674 15.5 11.2402 15.4473 11.1464 15.3536C11.0527 15.2598 11 15.1326 11 15C11 14.8674 11.0527 14.7402 11.1464 14.6464C11.2402 14.5527 11.3674 14.5 11.5 14.5ZM11.5 17H16C16.1326 17 16.2598 17.0527 16.3536 17.1464C16.4473 17.2402 16.5 17.3674 16.5 17.5C16.5 17.6326 16.4473 17.7598 16.3536 17.8536C16.2598 17.9473 16.1326 18 16 18H11.5C11.3674 18 11.2402 17.9473 11.1464 17.8536C11.0527 17.7598 11 17.6326 11 17.5C11 17.3674 11.0527 17.2402 11.1464 17.1464C11.2402 17.0527 11.3674 17 11.5 17ZM11.5 19.5H16C16.1326 19.5 16.2598 19.5527 16.3536 19.6464C16.4473 19.7402 16.5 19.8674 16.5 20C16.5 20.1326 16.4473 20.2598 16.3536 20.3536C16.2598 20.4473 16.1326 20.5 16 20.5H11.5C11.3674 20.5 11.2402 20.4473 11.1464 20.3536C11.0527 20.2598 11 20.1326 11 20C11 19.8674 11.0527 19.7402 11.1464 19.6464C11.2402 19.5527 11.3674 19.5 11.5 19.5ZM12 7.75C12 7.94891 11.921 8.13968 11.7803 8.28033C11.6397 8.42098 11.4489 8.5 11.25 8.5C11.0511 8.5 10.8603 8.42098 10.7197 8.28033C10.579 8.13968 10.5 7.94891 10.5 7.75C10.5 7.55109 10.579 7.36032 10.7197 7.21967C10.8603 7.07902 11.0511 7 11.25 7C11.4489 7 11.6397 7.07902 11.7803 7.21967C11.921 7.36032 12 7.55109 12 7.75ZM13.5 5H6.5C6.36739 5 6.24021 4.94732 6.14645 4.85355C6.05268 4.75979 6 4.63261 6 4.5C6 4.36739 6.05268 4.24021 6.14645 4.14645C6.24021 4.05268 6.36739 4 6.5 4H13.5C13.6326 4 13.7598 4.05268 13.8536 4.14645C13.9473 4.24021 14 4.36739 14 4.5C14 4.63261 13.9473 4.75979 13.8536 4.85355C13.7598 4.94732 13.6326 5 13.5 5ZM4 17H8.5C8.63261 17 8.75979 17.0527 8.85355 17.1464C8.94732 17.2402 9 17.3674 9 17.5C9 17.6326 8.94732 17.7598 8.85355 17.8536C8.75979 17.9473 8.63261 18 8.5 18H4C3.86739 18 3.74021 17.9473 3.64645 17.8536C3.55268 17.7598 3.5 17.6326 3.5 17.5C3.5 17.3674 3.55268 17.2402 3.64645 17.1464C3.74021 17.0527 3.86739 17 4 17ZM9 15C9 15.1326 8.94732 15.2598 8.85355 15.3536C8.75979 15.4473 8.63261 15.5 8.5 15.5H4C3.86739 15.5 3.74021 15.4473 3.64645 15.3536C3.55268 15.2598 3.5 15.1326 3.5 15C3.5 14.8674 3.55268 14.7402 3.64645 14.6464C3.74021 14.5527 3.86739 14.5 4 14.5H8.5C8.63261 14.5 8.75979 14.5527 8.85355 14.6464C8.94732 14.7402 9 14.8674 9 15Z"/>
</mask>
<path fill-rule="evenodd" clip-rule="evenodd" d="M20.5 23.5H3.5C2.83696 23.5 2.20107 23.2366 1.73223 22.7678C1.26339 22.2989 1 21.663 1 21V1C1 0.867392 1.05268 0.740215 1.14645 0.646447C1.24021 0.552678 1.36739 0.5 1.5 0.5H18.5C18.6325 0.500264 18.7596 0.553028 18.8533 0.646739C18.947 0.740449 18.9997 0.867473 19 1V8H22.5C22.6326 8 22.7598 8.05268 22.8536 8.14645C22.9473 8.24021 23 8.36739 23 8.5V21C23 21.663 22.7366 22.2989 22.2678 22.7678C21.7989 23.2366 21.163 23.5 20.5 23.5ZM18 21V1.5H2V21C2 21.3978 2.15804 21.7794 2.43934 22.0607C2.72064 22.342 3.10218 22.5 3.5 22.5H18.511C18.1813 22.0693 18.0018 21.5424 18 21ZM22 9H19V21C19 21.3978 19.158 21.7794 19.4393 22.0607C19.7206 22.342 20.1022 22.5 20.5 22.5C20.8978 22.5 21.2794 22.342 21.5607 22.0607C21.842 21.7794 22 21.3978 22 21V9ZM3.5 20C3.5 19.8674 3.55268 19.7402 3.64645 19.6464C3.74021 19.5527 3.86739 19.5 4 19.5H8.5C8.63261 19.5 8.75979 19.5527 8.85355 19.6464C8.94732 19.7402 9 19.8674 9 20C9 20.1326 8.94732 20.2598 8.85355 20.3536C8.75979 20.4473 8.63261 20.5 8.5 20.5H4C3.86739 20.5 3.74021 20.4473 3.64645 20.3536C3.55268 20.2598 3.5 20.1326 3.5 20ZM5.833 11.8575C5.74049 11.9444 5.61781 11.9918 5.49094 11.9898C5.36406 11.9878 5.24294 11.9365 5.15322 11.8468C5.06349 11.7571 5.0122 11.6359 5.0102 11.5091C5.0082 11.3822 5.05565 11.2595 5.1425 11.167L8.095 8.2145C8.111 8.191 8.1215 8.164 8.1425 8.143C8.18937 8.09643 8.24525 8.05991 8.30672 8.03566C8.36819 8.01142 8.43396 7.99997 8.5 8.002C8.56606 7.99985 8.63186 8.01125 8.69334 8.0355C8.75483 8.05975 8.8107 8.09633 8.8575 8.143C8.8785 8.164 8.8885 8.191 8.905 8.2145L11 10.3095L12.095 9.2145C12.111 9.191 12.1215 9.164 12.1425 9.143C12.1893 9.0964 12.2452 9.05989 12.3067 9.03572C12.3682 9.01156 12.434 9.00025 12.5 9.0025C12.566 9.00025 12.6318 9.01156 12.6933 9.03572C12.7548 9.05989 12.8107 9.0964 12.8575 9.143C12.8785 9.164 12.8885 9.191 12.905 9.2145L14.8575 11.167C14.9444 11.2595 14.9918 11.3822 14.9898 11.5091C14.9878 11.6359 14.9365 11.7571 14.8468 11.8468C14.7571 11.9365 14.6359 11.9878 14.5091 11.9898C14.3822 11.9918 14.2595 11.9444 14.167 11.8575L12.5 10.1905L11.6905 11L11.8575 11.167C11.9444 11.2595 11.9918 11.3822 11.9898 11.5091C11.9878 11.6359 11.9365 11.7571 11.8468 11.8468C11.7571 11.9365 11.6359 11.9878 11.5091 11.9898C11.3822 11.9918 11.2595 11.9444 11.167 11.8575L8.5 9.1905L5.833 11.8575ZM11.5 14.5H16C16.1326 14.5 16.2598 14.5527 16.3536 14.6464C16.4473 14.7402 16.5 14.8674 16.5 15C16.5 15.1326 16.4473 15.2598 16.3536 15.3536C16.2598 15.4473 16.1326 15.5 16 15.5H11.5C11.3674 15.5 11.2402 15.4473 11.1464 15.3536C11.0527 15.2598 11 15.1326 11 15C11 14.8674 11.0527 14.7402 11.1464 14.6464C11.2402 14.5527 11.3674 14.5 11.5 14.5ZM11.5 17H16C16.1326 17 16.2598 17.0527 16.3536 17.1464C16.4473 17.2402 16.5 17.3674 16.5 17.5C16.5 17.6326 16.4473 17.7598 16.3536 17.8536C16.2598 17.9473 16.1326 18 16 18H11.5C11.3674 18 11.2402 17.9473 11.1464 17.8536C11.0527 17.7598 11 17.6326 11 17.5C11 17.3674 11.0527 17.2402 11.1464 17.1464C11.2402 17.0527 11.3674 17 11.5 17ZM11.5 19.5H16C16.1326 19.5 16.2598 19.5527 16.3536 19.6464C16.4473 19.7402 16.5 19.8674 16.5 20C16.5 20.1326 16.4473 20.2598 16.3536 20.3536C16.2598 20.4473 16.1326 20.5 16 20.5H11.5C11.3674 20.5 11.2402 20.4473 11.1464 20.3536C11.0527 20.2598 11 20.1326 11 20C11 19.8674 11.0527 19.7402 11.1464 19.6464C11.2402 19.5527 11.3674 19.5 11.5 19.5ZM12 7.75C12 7.94891 11.921 8.13968 11.7803 8.28033C11.6397 8.42098 11.4489 8.5 11.25 8.5C11.0511 8.5 10.8603 8.42098 10.7197 8.28033C10.579 8.13968 10.5 7.94891 10.5 7.75C10.5 7.55109 10.579 7.36032 10.7197 7.21967C10.8603 7.07902 11.0511 7 11.25 7C11.4489 7 11.6397 7.07902 11.7803 7.21967C11.921 7.36032 12 7.55109 12 7.75ZM13.5 5H6.5C6.36739 5 6.24021 4.94732 6.14645 4.85355C6.05268 4.75979 6 4.63261 6 4.5C6 4.36739 6.05268 4.24021 6.14645 4.14645C6.24021 4.05268 6.36739 4 6.5 4H13.5C13.6326 4 13.7598 4.05268 13.8536 4.14645C13.9473 4.24021 14 4.36739 14 4.5C14 4.63261 13.9473 4.75979 13.8536 4.85355C13.7598 4.94732 13.6326 5 13.5 5ZM4 17H8.5C8.63261 17 8.75979 17.0527 8.85355 17.1464C8.94732 17.2402 9 17.3674 9 17.5C9 17.6326 8.94732 17.7598 8.85355 17.8536C8.75979 17.9473 8.63261 18 8.5 18H4C3.86739 18 3.74021 17.9473 3.64645 17.8536C3.55268 17.7598 3.5 17.6326 3.5 17.5C3.5 17.3674 3.55268 17.2402 3.64645 17.1464C3.74021 17.0527 3.86739 17 4 17ZM9 15C9 15.1326 8.94732 15.2598 8.85355 15.3536C8.75979 15.4473 8.63261 15.5 8.5 15.5H4C3.86739 15.5 3.74021 15.4473 3.64645 15.3536C3.55268 15.2598 3.5 15.1326 3.5 15C3.5 14.8674 3.55268 14.7402 3.64645 14.6464C3.74021 14.5527 3.86739 14.5 4 14.5H8.5C8.63261 14.5 8.75979 14.5527 8.85355 14.6464C8.94732 14.7402 9 14.8674 9 15Z" stroke="#121212" stroke-opacity="0.75" stroke-width="2" mask="url(#path-1-inside-1_6_1434)"/>
</svg>
