<svg width="26" height="26" viewBox="0 0 26 26" fill="none" xmlns="http://www.w3.org/2000/svg">
    <path d="M18.668 25.381C17.6388 25.3814 16.6274 25.1128 15.734 24.602L15.608 24.531C9.79913 21.2082 4.93937 16.4514 1.49296 10.715L0.835956 9.62001C0.163049 8.50054 -0.115791 7.18805 0.043874 5.8917C0.203539 4.59535 0.79252 3.38974 1.71696 2.46701L3.02596 1.15801C4.12596 0.0580078 5.91496 0.0580078 7.01396 1.15801L9.89796 4.04201C10.332 4.47809 10.6121 5.04374 10.6958 5.65328C10.7795 6.26282 10.6623 6.88305 10.362 7.42001L9.27796 9.34501C9.25517 9.38551 9.24626 9.43235 9.25258 9.47839C9.2589 9.52443 9.2801 9.56714 9.31296 9.60001L15.734 16.021C15.7673 16.0537 15.8104 16.0747 15.8568 16.0808C15.9031 16.087 15.9502 16.0779 15.991 16.055L17.913 14.972L17.914 14.971C18.451 14.671 19.0712 14.5539 19.6806 14.6377C20.2901 14.7214 20.8557 15.0013 21.292 15.435L24.177 18.321C25.277 19.421 25.277 21.21 24.177 22.309L22.81 23.675C22.2655 24.2176 21.6195 24.6476 20.9088 24.9403C20.1981 25.2331 19.4366 25.3828 18.668 25.381ZM5.01996 2.33301C4.80996 2.33301 4.59996 2.41301 4.43996 2.57301L3.13096 3.88101C2.52253 4.48835 2.13487 5.28185 2.02976 6.13507C1.92465 6.9883 2.10812 7.85216 2.55096 8.58901L3.20796 9.68401C6.4771 15.1257 11.0869 19.6384 16.597 22.791L16.723 22.862C18.249 23.735 20.169 23.488 21.395 22.26L22.762 20.894C22.8382 20.8179 22.8986 20.7274 22.9398 20.6279C22.9811 20.5284 23.0023 20.4217 23.0023 20.314C23.0023 20.2063 22.9811 20.0996 22.9398 20.0001C22.8986 19.9006 22.8382 19.8102 22.762 19.734L19.877 16.848C19.75 16.7218 19.5853 16.6404 19.4079 16.6162C19.2305 16.5921 19.0501 16.6264 18.894 16.714L16.972 17.797C16.5505 18.0329 16.0637 18.1252 15.5852 18.0597C15.1066 17.9942 14.6625 17.7745 14.32 17.434L7.89896 11.013C7.55809 10.6709 7.3382 10.2269 7.27268 9.74841C7.20717 9.26994 7.2996 8.78316 7.53596 8.36201L8.61996 6.43801C8.70705 6.28184 8.74098 6.10158 8.71663 5.92444C8.69227 5.74729 8.61096 5.58288 8.48496 5.45601L5.59996 2.57301C5.52384 2.49679 5.43342 2.43635 5.33389 2.39516C5.23436 2.35398 5.12767 2.33285 5.01996 2.33301Z" fill="#EC1F27"/>
</svg>
