<svg width="290" height="24" viewBox="0 0 290 24" fill="none" xmlns="http://www.w3.org/2000/svg">
    <path d="M12 2L15.09 8.26L22 9.27L17 14.14L18.18 21.02L12 17.77L5.82 21.02L7 14.14L2 9.27L8.91 8.26L12 2Z" fill="#3F3F3F" stroke="#3F3F3F" stroke-linecap="round" stroke-linejoin="round"/>
    <path d="M50 2L53.09 8.26L60 9.27L55 14.14L56.18 21.02L50 17.77L43.82 21.02L45 14.14L40 9.27L46.91 8.26L50 2Z" fill="#3F3F3F" stroke="#3F3F3F" stroke-linecap="round" stroke-linejoin="round"/>
    <path d="M88 2L91.09 8.26L98 9.27L93 14.14L94.18 21.02L88 17.77L81.82 21.02L83 14.14L78 9.27L84.91 8.26L88 2Z" fill="#3F3F3F" stroke="#3F3F3F" stroke-linecap="round" stroke-linejoin="round"/>
    <path d="M126 2L129.09 8.26L136 9.27L131 14.14L132.18 21.02L126 17.77L119.82 21.02L121 14.14L116 9.27L122.91 8.26L126 2Z" fill="#3F3F3F" stroke="#3F3F3F" stroke-linecap="round" stroke-linejoin="round"/>
    <path d="M164 2L167.09 8.26L174 9.27L169 14.14L170.18 21.02L164 17.77L157.82 21.02L159 14.14L154 9.27L160.91 8.26L164 2Z" fill="#3F3F3F" stroke="#3F3F3F" stroke-linecap="round" stroke-linejoin="round"/>
    <path d="M202 2L205.09 8.26L212 9.27L207 14.14L208.18 21.02L202 17.77L195.82 21.02L197 14.14L192 9.27L198.91 8.26L202 2Z" fill="#3F3F3F" stroke="#3F3F3F" stroke-linecap="round" stroke-linejoin="round"/>
    <path d="M240 2L243.09 8.26L250 9.27L245 14.14L246.18 21.02L240 17.77L233.82 21.02L235 14.14L230 9.27L236.91 8.26L240 2Z" fill="#3F3F3F" stroke="#3F3F3F" stroke-linecap="round" stroke-linejoin="round"/>
    <path d="M278 2L281.09 8.26L288 9.27L283 14.14L284.18 21.02L278 17.77L271.82 21.02L273 14.14L268 9.27L274.91 8.26L278 2Z" fill="#3F3F3F" stroke="#3F3F3F" stroke-linecap="round" stroke-linejoin="round"/>
</svg>
