<svg width="19" height="20" viewBox="0 0 19 20" fill="none" xmlns="http://www.w3.org/2000/svg">
<path d="M18.15 9.35443L10.3701 17.1343C9.41705 18.0874 8.12438 18.6228 6.77651 18.6228C5.42863 18.6228 4.13596 18.0874 3.18287 17.1343C2.22978 16.1812 1.69434 14.8885 1.69434 13.5407C1.69434 12.1928 2.22978 10.9001 3.18287 9.94702L10.9627 2.16716C11.5981 1.53177 12.4599 1.1748 13.3585 1.1748C14.2571 1.1748 15.1189 1.53177 15.7543 2.16716C16.3896 2.80255 16.7466 3.66433 16.7466 4.56292C16.7466 5.4615 16.3896 6.32328 15.7543 6.95868L7.96592 14.7385C7.64822 15.0562 7.21733 15.2347 6.76804 15.2347C6.31875 15.2347 5.88786 15.0562 5.57016 14.7385C5.25246 14.4208 5.07398 13.99 5.07398 13.5407C5.07398 13.0914 5.25246 12.6605 5.57016 12.3428L12.7574 5.16397" stroke="#3F3F3F" stroke-width="1.69312" stroke-linecap="round" stroke-linejoin="round"/>
</svg>
