<svg width="58" height="58" viewBox="0 0 58 58" fill="none" xmlns="http://www.w3.org/2000/svg">
<g clip-path="url(#clip0_106_1064)">
<path d="M29 58C45.0163 58 58 45.0163 58 29C58 12.9837 45.0163 0 29 0C12.9837 0 0 12.9837 0 29C0 45.0163 12.9837 58 29 58Z" fill="#EC1F27"/>
<path fill-rule="evenodd" clip-rule="evenodd" d="M27.9041 41.7191H30.1803C30.1803 41.7191 30.8678 41.6436 31.2188 41.2652C31.5419 40.9178 31.5316 40.2654 31.5316 40.2654C31.5316 40.2654 31.4871 37.2113 32.9046 36.7615C34.3019 36.3185 36.0963 39.7133 37.9981 41.0186C39.4363 42.0065 40.5291 41.7899 40.5291 41.7899L45.6144 41.7191C45.6144 41.7191 48.2746 41.5552 47.0133 39.4636C46.9099 39.2925 46.2787 37.9164 43.2323 35.0887C40.0437 32.1291 40.4707 32.6078 44.3117 27.4884C46.6509 24.3707 47.5861 22.4673 47.294 21.652C47.0153 20.8756 45.2949 21.0808 45.2949 21.0808L39.5692 21.1165C39.5692 21.1165 39.1447 21.0586 38.8299 21.2468C38.5223 21.4313 38.3243 21.8614 38.3243 21.8614C38.3243 21.8614 37.4181 24.274 36.2095 26.3258C33.6599 30.6553 32.6404 30.8838 32.2238 30.615C31.2545 29.9884 31.4964 28.0979 31.4964 26.7549C31.4964 22.5593 32.1328 20.8099 30.2573 20.3571C29.6349 20.2066 29.1769 20.1074 27.5852 20.0914C25.5422 20.0702 23.813 20.0976 22.8339 20.5773C22.1825 20.8963 21.68 21.6071 21.9861 21.6479C22.3645 21.6986 23.2216 21.879 23.676 22.4978C24.2627 23.296 24.242 25.0887 24.242 25.0887C24.242 25.0887 24.5791 30.0277 23.4547 30.6413C22.6829 31.0621 21.6242 30.203 19.3511 26.2751C18.1865 24.2632 17.3071 22.0392 17.3071 22.0392C17.3071 22.0392 17.1376 21.6236 16.8351 21.4013C16.4681 21.132 15.9553 21.0462 15.9553 21.0462L10.5144 21.0818C10.5144 21.0818 9.69758 21.1046 9.39775 21.4597C9.131 21.7756 9.37655 22.429 9.37655 22.429C9.37655 22.429 13.6362 32.3948 18.4594 37.417C22.8819 42.0215 27.9041 41.7191 27.9041 41.7191Z" fill="white"/>
</g>
<defs>
<clipPath id="clip0_106_1064">
<rect width="58" height="58" fill="white"/>
</clipPath>
</defs>
</svg>
