<svg width="226" height="241" viewBox="0 0 226 241" fill="none" xmlns="http://www.w3.org/2000/svg">
<path d="M31.7673 146.988L77.3364 151.269C90.8606 152.54 103.261 143.673 106.433 130.465L111.592 108.979C114.764 95.7703 127.165 86.9037 140.689 88.1742L186.258 92.4551" stroke="#EC1F27" stroke-width="7.67451"/>
<path d="M14.3366 99.8563L59.9057 104.137C73.4299 105.408 85.8306 96.5411 89.0022 83.3328L94.1616 61.8467C97.3332 48.6385 109.734 39.7718 123.258 41.0423L168.827 45.3232" stroke="#EC1F27" stroke-width="7.67451"/>
<path d="M210.413 137.988L164.782 134.425C151.24 133.368 138.98 142.429 136.017 155.685L131.197 177.25C128.234 190.506 115.974 199.567 102.432 198.51L56.8008 194.947" stroke="#EC1F27" stroke-width="7.67451"/>
</svg>
